M48
; DRILL file {KiCad 6.0.0} date ven. 15 juil. 2022 10:31:31
; FORMAT={-:-/ absolute / inch / decimal}
; #@! TF.CreationDate,2022-07-15T10:31:31+02:00
; #@! TF.GenerationSoftware,Kicad,Pcbnew,6.0.0
; #@! TF.FileFunction,Plated,1,2,PTH
FMAT,2
INCH
; #@! TA.AperFunction,Plated,PTH,ViaDrill
T1C0.0120
; #@! TA.AperFunction,Plated,PTH,ViaDrill
T2C0.0157
; #@! TA.AperFunction,Plated,PTH,ComponentDrill
T3C0.0433
; #@! TA.AperFunction,Plated,PTH,ComponentDrill
T4C0.0469
%
G90
G05
T1
X5.1378Y-3.7559
X5.1378Y-3.8839
X5.1594Y-4.439
X5.315Y-3.7559
X5.4134Y-4.5118
X5.4232Y-3.8839
X5.4528Y-3.9835
X5.4921Y-3.7559
X5.502Y-4.1339
X5.5315Y-4.5118
X5.6693Y-3.7559
X5.6693Y-4.5118
X5.8465Y-3.7559
X5.8465Y-4.5118
X6.0236Y-3.7559
X6.0236Y-4.5118
X6.122Y-4.1339
X6.2008Y-3.7559
X6.2992Y-4.0748
X6.2992Y-4.1929
X6.378Y-3.7559
X6.378Y-4.3228
X6.4567Y-3.8878
X6.4567Y-4.2323
X6.5551Y-3.7559
X6.5551Y-3.9449
X6.5551Y-4.1339
X6.5551Y-4.3228
T2
X6.2008Y-4.3228
T3
X5.3559Y-3.8839
T4
X5.2559Y-3.8839
X5.2559Y-3.9839
X5.2559Y-4.0839
X5.2559Y-4.1839
X5.2559Y-4.2839
X5.2559Y-4.3839
X5.3559Y-3.9839
X5.3559Y-4.0839
X5.3559Y-4.1839
X5.3559Y-4.2839
X5.3559Y-4.3839
T0
M30
