%TF.GenerationSoftware,KiCad,Pcbnew,6.0.0*%
%TF.CreationDate,2022-08-14T07:42:51+02:00*%
%TF.ProjectId,pmod-trh,706d6f64-2d74-4726-982e-6b696361645f,2*%
%TF.SameCoordinates,Original*%
%TF.FileFunction,Copper,L1,Top*%
%TF.FilePolarity,Positive*%
%FSLAX46Y46*%
G04 Gerber Fmt 4.6, Leading zero omitted, Abs format (unit mm)*
G04 Created by KiCad (PCBNEW 6.0.0) date 2022-08-14 07:42:51*
%MOMM*%
%LPD*%
G01*
G04 APERTURE LIST*
%ADD10C,0.076200*%
%TA.AperFunction,NonConductor*%
%ADD11C,0.076200*%
%TD*%
%ADD12C,0.101600*%
%TA.AperFunction,NonConductor*%
%ADD13C,0.101600*%
%TD*%
%TA.AperFunction,SMDPad,CuDef*%
%ADD14R,1.143000X0.635000*%
%TD*%
%TA.AperFunction,SMDPad,CuDef*%
%ADD15R,0.635000X1.143000*%
%TD*%
%TA.AperFunction,SMDPad,CuDef*%
%ADD16R,0.889000X1.397000*%
%TD*%
%TA.AperFunction,SMDPad,CuDef*%
%ADD17C,1.198880*%
%TD*%
%TA.AperFunction,SMDPad,CuDef*%
%ADD18R,1.143000X0.508000*%
%TD*%
%TA.AperFunction,ComponentPad*%
%ADD19R,2.000000X1.900000*%
%TD*%
%TA.AperFunction,ComponentPad*%
%ADD20C,1.900000*%
%TD*%
%TA.AperFunction,SMDPad,CuDef*%
%ADD21R,0.450000X0.850000*%
%TD*%
%TA.AperFunction,SMDPad,CuDef*%
%ADD22R,2.500000X1.600000*%
%TD*%
%TA.AperFunction,SMDPad,CuDef*%
%ADD23R,0.914400X0.914400*%
%TD*%
%TA.AperFunction,ViaPad*%
%ADD24C,0.711200*%
%TD*%
%TA.AperFunction,Conductor*%
%ADD25C,0.304800*%
%TD*%
%TA.AperFunction,Conductor*%
%ADD26C,0.406400*%
%TD*%
%TA.AperFunction,Conductor*%
%ADD27C,0.203200*%
%TD*%
G04 APERTURE END LIST*
D10*
D11*
X157370000Y-114316666D02*
X157370000Y-113850000D01*
X157370000Y-113983333D02*
X157403333Y-113916666D01*
X157436666Y-113883333D01*
X157503333Y-113850000D01*
X157570000Y-113850000D01*
X158070000Y-114283333D02*
X158003333Y-114316666D01*
X157870000Y-114316666D01*
X157803333Y-114283333D01*
X157770000Y-114216666D01*
X157770000Y-113950000D01*
X157803333Y-113883333D01*
X157870000Y-113850000D01*
X158003333Y-113850000D01*
X158070000Y-113883333D01*
X158103333Y-113950000D01*
X158103333Y-114016666D01*
X157770000Y-114083333D01*
X158336666Y-113850000D02*
X158503333Y-114316666D01*
X158670000Y-113850000D01*
X158903333Y-113683333D02*
X158936666Y-113650000D01*
X159003333Y-113616666D01*
X159170000Y-113616666D01*
X159236666Y-113650000D01*
X159270000Y-113683333D01*
X159303333Y-113750000D01*
X159303333Y-113816666D01*
X159270000Y-113916666D01*
X158870000Y-114316666D01*
X159303333Y-114316666D01*
D10*
D11*
X162033333Y-114250000D02*
X162000000Y-114283333D01*
X161900000Y-114316666D01*
X161833333Y-114316666D01*
X161733333Y-114283333D01*
X161666666Y-114216666D01*
X161633333Y-114150000D01*
X161600000Y-114016666D01*
X161600000Y-113916666D01*
X161633333Y-113783333D01*
X161666666Y-113716666D01*
X161733333Y-113650000D01*
X161833333Y-113616666D01*
X161900000Y-113616666D01*
X162000000Y-113650000D01*
X162033333Y-113683333D01*
X162733333Y-114250000D02*
X162700000Y-114283333D01*
X162600000Y-114316666D01*
X162533333Y-114316666D01*
X162433333Y-114283333D01*
X162366666Y-114216666D01*
X162333333Y-114150000D01*
X162300000Y-114016666D01*
X162300000Y-113916666D01*
X162333333Y-113783333D01*
X162366666Y-113716666D01*
X162433333Y-113650000D01*
X162533333Y-113616666D01*
X162600000Y-113616666D01*
X162700000Y-113650000D01*
X162733333Y-113683333D01*
X163033333Y-114050000D02*
X163566666Y-114050000D01*
X163900000Y-114316666D02*
X163900000Y-113616666D01*
X163900000Y-113883333D02*
X163966666Y-113850000D01*
X164100000Y-113850000D01*
X164166666Y-113883333D01*
X164200000Y-113916666D01*
X164233333Y-113983333D01*
X164233333Y-114183333D01*
X164200000Y-114250000D01*
X164166666Y-114283333D01*
X164100000Y-114316666D01*
X163966666Y-114316666D01*
X163900000Y-114283333D01*
X164466666Y-113850000D02*
X164633333Y-114316666D01*
X164800000Y-113850000D02*
X164633333Y-114316666D01*
X164566666Y-114483333D01*
X164533333Y-114516666D01*
X164466666Y-114550000D01*
X165066666Y-114050000D02*
X165600000Y-114050000D01*
X165900000Y-114283333D02*
X166000000Y-114316666D01*
X166166666Y-114316666D01*
X166233333Y-114283333D01*
X166266666Y-114250000D01*
X166300000Y-114183333D01*
X166300000Y-114116666D01*
X166266666Y-114050000D01*
X166233333Y-114016666D01*
X166166666Y-113983333D01*
X166033333Y-113950000D01*
X165966666Y-113916666D01*
X165933333Y-113883333D01*
X165900000Y-113816666D01*
X165900000Y-113750000D01*
X165933333Y-113683333D01*
X165966666Y-113650000D01*
X166033333Y-113616666D01*
X166200000Y-113616666D01*
X166300000Y-113650000D01*
X166566666Y-114116666D02*
X166900000Y-114116666D01*
X166500000Y-114316666D02*
X166733333Y-113616666D01*
X166966666Y-114316666D01*
D12*
D13*
X157367293Y-112816666D02*
X157367293Y-112116666D01*
X157633960Y-112116666D01*
X157700626Y-112150000D01*
X157733960Y-112183333D01*
X157767293Y-112250000D01*
X157767293Y-112350000D01*
X157733960Y-112416666D01*
X157700626Y-112450000D01*
X157633960Y-112483333D01*
X157367293Y-112483333D01*
X158067293Y-112816666D02*
X158067293Y-112116666D01*
X158300626Y-112616666D01*
X158533960Y-112116666D01*
X158533960Y-112816666D01*
X159000626Y-112116666D02*
X159133960Y-112116666D01*
X159200626Y-112150000D01*
X159267293Y-112216666D01*
X159300626Y-112350000D01*
X159300626Y-112583333D01*
X159267293Y-112716666D01*
X159200626Y-112783333D01*
X159133960Y-112816666D01*
X159000626Y-112816666D01*
X158933960Y-112783333D01*
X158867293Y-112716666D01*
X158833960Y-112583333D01*
X158833960Y-112350000D01*
X158867293Y-112216666D01*
X158933960Y-112150000D01*
X159000626Y-112116666D01*
X159600626Y-112816666D02*
X159600626Y-112116666D01*
X159767293Y-112116666D01*
X159867293Y-112150000D01*
X159933960Y-112216666D01*
X159967293Y-112283333D01*
X160000626Y-112416666D01*
X160000626Y-112516666D01*
X159967293Y-112650000D01*
X159933960Y-112716666D01*
X159867293Y-112783333D01*
X159767293Y-112816666D01*
X159600626Y-112816666D01*
X160800626Y-112783333D02*
X160900626Y-112816666D01*
X161067293Y-112816666D01*
X161133960Y-112783333D01*
X161167293Y-112750000D01*
X161200626Y-112683333D01*
X161200626Y-112616666D01*
X161167293Y-112550000D01*
X161133960Y-112516666D01*
X161067293Y-112483333D01*
X160933960Y-112450000D01*
X160867293Y-112416666D01*
X160833960Y-112383333D01*
X160800626Y-112316666D01*
X160800626Y-112250000D01*
X160833960Y-112183333D01*
X160867293Y-112150000D01*
X160933960Y-112116666D01*
X161100626Y-112116666D01*
X161200626Y-112150000D01*
X161767293Y-112783333D02*
X161700626Y-112816666D01*
X161567293Y-112816666D01*
X161500626Y-112783333D01*
X161467293Y-112716666D01*
X161467293Y-112450000D01*
X161500626Y-112383333D01*
X161567293Y-112350000D01*
X161700626Y-112350000D01*
X161767293Y-112383333D01*
X161800626Y-112450000D01*
X161800626Y-112516666D01*
X161467293Y-112583333D01*
X162100626Y-112350000D02*
X162100626Y-112816666D01*
X162100626Y-112416666D02*
X162133960Y-112383333D01*
X162200626Y-112350000D01*
X162300626Y-112350000D01*
X162367293Y-112383333D01*
X162400626Y-112450000D01*
X162400626Y-112816666D01*
X162700626Y-112783333D02*
X162767293Y-112816666D01*
X162900626Y-112816666D01*
X162967293Y-112783333D01*
X163000626Y-112716666D01*
X163000626Y-112683333D01*
X162967293Y-112616666D01*
X162900626Y-112583333D01*
X162800626Y-112583333D01*
X162733960Y-112550000D01*
X162700626Y-112483333D01*
X162700626Y-112450000D01*
X162733960Y-112383333D01*
X162800626Y-112350000D01*
X162900626Y-112350000D01*
X162967293Y-112383333D01*
X163400626Y-112816666D02*
X163333960Y-112783333D01*
X163300626Y-112750000D01*
X163267293Y-112683333D01*
X163267293Y-112483333D01*
X163300626Y-112416666D01*
X163333960Y-112383333D01*
X163400626Y-112350000D01*
X163500626Y-112350000D01*
X163567293Y-112383333D01*
X163600626Y-112416666D01*
X163633960Y-112483333D01*
X163633960Y-112683333D01*
X163600626Y-112750000D01*
X163567293Y-112783333D01*
X163500626Y-112816666D01*
X163400626Y-112816666D01*
X163933960Y-112816666D02*
X163933960Y-112350000D01*
X163933960Y-112483333D02*
X163967293Y-112416666D01*
X164000626Y-112383333D01*
X164067293Y-112350000D01*
X164133960Y-112350000D01*
X164800626Y-112116666D02*
X165200626Y-112116666D01*
X165000626Y-112816666D02*
X165000626Y-112116666D01*
X165933960Y-112083333D02*
X165333960Y-112983333D01*
X166567293Y-112816666D02*
X166333960Y-112483333D01*
X166167293Y-112816666D02*
X166167293Y-112116666D01*
X166433960Y-112116666D01*
X166500626Y-112150000D01*
X166533960Y-112183333D01*
X166567293Y-112250000D01*
X166567293Y-112350000D01*
X166533960Y-112416666D01*
X166500626Y-112450000D01*
X166433960Y-112483333D01*
X166167293Y-112483333D01*
X166867293Y-112816666D02*
X166867293Y-112116666D01*
X166867293Y-112450000D02*
X167267293Y-112450000D01*
X167267293Y-112816666D02*
X167267293Y-112116666D01*
D14*
%TO.P,R1,1*%
%TO.N,+3.3V*%
X155500000Y-108012000D03*
%TO.P,R1,2*%
%TO.N,/SDA*%
X155500000Y-106488000D03*
%TD*%
D15*
%TO.P,R6,1*%
%TO.N,+3.3V*%
X155738000Y-100500000D03*
%TO.P,R6,2*%
%TO.N,Net-(L2-Pad1)*%
X157262000Y-100500000D03*
%TD*%
D16*
%TO.P,C1,1*%
%TO.N,+VPMOD*%
X132952500Y-114000000D03*
%TO.P,C1,2*%
%TO.N,GND*%
X131047500Y-114000000D03*
%TD*%
D15*
%TO.P,R7,1*%
%TO.N,PWR_SENSOR*%
X152738000Y-100500000D03*
%TO.P,R7,2*%
%TO.N,+3.3V*%
X154262000Y-100500000D03*
%TD*%
D17*
%TO.P,TP1,1,1*%
%TO.N,/SDA*%
X160000000Y-106500000D03*
%TD*%
D14*
%TO.P,R8,1*%
%TO.N,Net-(R8-Pad1)*%
X146500000Y-111238000D03*
%TO.P,R8,2*%
%TO.N,+3.3V*%
X146500000Y-112762000D03*
%TD*%
%TO.P,C3,1*%
%TO.N,+VSENSOR*%
X164000000Y-101262000D03*
%TO.P,C3,2*%
%TO.N,GND*%
X164000000Y-99738000D03*
%TD*%
D15*
%TO.P,R5,1*%
%TO.N,+3.3V*%
X150512000Y-108750000D03*
%TO.P,R5,2*%
%TO.N,RST*%
X148988000Y-108750000D03*
%TD*%
D14*
%TO.P,C2,1*%
%TO.N,+3.3V*%
X139000000Y-112738000D03*
%TO.P,C2,2*%
%TO.N,GND*%
X139000000Y-114262000D03*
%TD*%
D16*
%TO.P,D1,1,A*%
%TO.N,Net-(R8-Pad1)*%
X144952500Y-111250000D03*
%TO.P,D1,2,K*%
%TO.N,LED*%
X143047500Y-111250000D03*
%TD*%
D15*
%TO.P,L1,1,1*%
%TO.N,+VPMOD*%
X134738000Y-114000000D03*
%TO.P,L1,2,2*%
%TO.N,+3.3V*%
X136262000Y-114000000D03*
%TD*%
D18*
%TO.P,U1,1,PA05*%
%TO.N,PWR_SENSOR*%
X147302000Y-108810000D03*
%TO.P,U1,2,PA08/XI*%
%TO.N,unconnected-(U1-Pad2)*%
X147302000Y-107540000D03*
%TO.P,U1,3,PA09/XO*%
%TO.N,unconnected-(U1-Pad3)*%
X147302000Y-106270000D03*
%TO.P,U1,4,PA14*%
%TO.N,Net-(R3-Pad1)*%
X147302000Y-105000000D03*
%TO.P,U1,5,PA15*%
%TO.N,Net-(R4-Pad1)*%
X147302000Y-103730000D03*
%TO.P,U1,6,PA28/RST*%
%TO.N,RST*%
X147302000Y-102460000D03*
%TO.P,U1,7,PA30*%
%TO.N,SWCLK*%
X147302000Y-101190000D03*
%TO.P,U1,8,PA31*%
%TO.N,SWDIO*%
X140952000Y-101190000D03*
%TO.P,U1,9,PA24*%
%TO.N,PMOD_RXD*%
X140952000Y-102460000D03*
%TO.P,U1,10,PA25*%
%TO.N,PMOD_TXD*%
X140952000Y-103730000D03*
%TO.P,U1,11*%
%TO.N,GND*%
X140952000Y-105000000D03*
%TO.P,U1,12*%
%TO.N,+3.3V*%
X140952000Y-106270000D03*
%TO.P,U1,13,PA02*%
%TO.N,IRQ*%
X140952000Y-107540000D03*
%TO.P,U1,14,PA04*%
%TO.N,LED*%
X140952000Y-108810000D03*
%TD*%
D19*
%TO.P,P1,1,IO1*%
%TO.N,unconnected-(P1-Pad1)*%
X136040000Y-98650000D03*
D20*
%TO.P,P1,2,IO2*%
%TO.N,PMOD_TXD*%
X136040000Y-101190000D03*
%TO.P,P1,3,IO3*%
%TO.N,PMOD_RXD*%
X136040000Y-103730000D03*
%TO.P,P1,4,IO4*%
%TO.N,unconnected-(P1-Pad4)*%
X136040000Y-106270000D03*
%TO.P,P1,5*%
%TO.N,GND*%
X136040000Y-108810000D03*
%TO.P,P1,6*%
%TO.N,+VPMOD*%
X136040000Y-111350000D03*
%TO.P,P1,7,IO5*%
%TO.N,IRQ*%
X133500000Y-98650000D03*
%TO.P,P1,8,IO6*%
%TO.N,RST*%
X133500000Y-101190000D03*
%TO.P,P1,9,IO7*%
%TO.N,SWDIO*%
X133500000Y-103730000D03*
%TO.P,P1,10,IO8*%
%TO.N,SWCLK*%
X133500000Y-106270000D03*
%TO.P,P1,11*%
%TO.N,GND*%
X133500000Y-108810000D03*
%TO.P,P1,12*%
%TO.N,+VPMOD*%
X133500000Y-111350000D03*
%TD*%
D14*
%TO.P,C4,1*%
%TO.N,RST*%
X149000000Y-110238000D03*
%TO.P,C4,2*%
%TO.N,GND*%
X149000000Y-111762000D03*
%TD*%
D15*
%TO.P,R4,1*%
%TO.N,Net-(R4-Pad1)*%
X151238000Y-103500000D03*
%TO.P,R4,2*%
%TO.N,/SCL*%
X152762000Y-103500000D03*
%TD*%
%TO.P,L2,1,1*%
%TO.N,Net-(L2-Pad1)*%
X158738000Y-100500000D03*
%TO.P,L2,2,2*%
%TO.N,+VSENSOR*%
X160262000Y-100500000D03*
%TD*%
D21*
%TO.P,U2,1,SDA*%
%TO.N,/SDA*%
X163000000Y-106450000D03*
%TO.P,U2,2*%
%TO.N,GND*%
X164000000Y-106450000D03*
%TO.P,U2,3*%
%TO.N,unconnected-(U2-Pad3)*%
X165000000Y-106450000D03*
%TO.P,U2,4*%
%TO.N,unconnected-(U2-Pad4)*%
X165000000Y-103550000D03*
%TO.P,U2,5*%
%TO.N,+VSENSOR*%
X164000000Y-103550000D03*
%TO.P,U2,6,SCL*%
%TO.N,/SCL*%
X163000000Y-103550000D03*
D22*
%TO.P,U2,PAD*%
%TO.N,N/C*%
X164000000Y-105000000D03*
%TD*%
D14*
%TO.P,R2,1*%
%TO.N,+3.3V*%
X155500000Y-101988000D03*
%TO.P,R2,2*%
%TO.N,/SCL*%
X155500000Y-103512000D03*
%TD*%
D17*
%TO.P,TP2,1,1*%
%TO.N,/SCL*%
X160000000Y-103500000D03*
%TD*%
D15*
%TO.P,R3,1*%
%TO.N,Net-(R3-Pad1)*%
X151238000Y-105250000D03*
%TO.P,R3,2*%
%TO.N,/SDA*%
X152762000Y-105250000D03*
%TD*%
D23*
%TO.P,Q1,1,G*%
%TO.N,PWR_SENSOR*%
X155484000Y-97111000D03*
%TO.P,Q1,2,S*%
%TO.N,+3.3V*%
X155484000Y-98889000D03*
%TO.P,Q1,3,D*%
%TO.N,Net-(L2-Pad1)*%
X157516000Y-98000000D03*
%TD*%
D24*
%TO.N,GND*%
X164000000Y-98750000D03*
X137500000Y-114600000D03*
X144000000Y-95400000D03*
X130500000Y-95400000D03*
X131050000Y-112750000D03*
X148500000Y-114600000D03*
X166500000Y-109800000D03*
X137750000Y-98650000D03*
X157500000Y-109800000D03*
X164000000Y-107500000D03*
X140500000Y-114600000D03*
X166500000Y-100200000D03*
X147750000Y-111760000D03*
X153000000Y-114600000D03*
X166500000Y-95400000D03*
X162000000Y-95400000D03*
X162000000Y-109800000D03*
X157500000Y-95400000D03*
X139500000Y-95400000D03*
X139750000Y-105000000D03*
X144000000Y-114600000D03*
X166500000Y-105000000D03*
X135000000Y-95400000D03*
X148500000Y-95400000D03*
X153000000Y-95400000D03*
X155500000Y-105000000D03*
%TO.N,IRQ*%
X130500000Y-98650000D03*
%TO.N,/SDA*%
X160000000Y-106500000D03*
%TO.N,/SCL*%
X160000000Y-103500000D03*
%TD*%
D25*
%TO.N,PMOD_TXD*%
X137540000Y-105000000D02*
X135320000Y-105000000D01*
X134770000Y-104450000D02*
X134770000Y-102460000D01*
X134770000Y-102460000D02*
X136040000Y-101190000D01*
X140952000Y-103730000D02*
X138810000Y-103730000D01*
X135320000Y-105000000D02*
X134770000Y-104450000D01*
X138810000Y-103730000D02*
X137540000Y-105000000D01*
%TO.N,PMOD_RXD*%
X140952000Y-102460000D02*
X137310000Y-102460000D01*
X137310000Y-102460000D02*
X136040000Y-103730000D01*
D26*
%TO.N,GND*%
X131047500Y-112752500D02*
X131050000Y-112750000D01*
X164000000Y-106450000D02*
X164000000Y-107500000D01*
X131047500Y-114000000D02*
X131047500Y-112752500D01*
X137838000Y-114262000D02*
X137500000Y-114600000D01*
X140162000Y-114262000D02*
X140500000Y-114600000D01*
X147752000Y-111762000D02*
X147750000Y-111760000D01*
X139000000Y-114262000D02*
X137838000Y-114262000D01*
X149000000Y-111762000D02*
X147752000Y-111762000D01*
X139000000Y-114262000D02*
X140162000Y-114262000D01*
X140952000Y-105000000D02*
X139750000Y-105000000D01*
X164000000Y-99738000D02*
X164000000Y-98750000D01*
%TO.N,+3.3V*%
X154168000Y-108012000D02*
X153430000Y-108750000D01*
D25*
X146488000Y-112750000D02*
X146500000Y-112762000D01*
X139012000Y-112750000D02*
X146488000Y-112750000D01*
D26*
X152000000Y-102500000D02*
X152500000Y-102000000D01*
X139000000Y-112738000D02*
X139000000Y-107210000D01*
X155738000Y-100500000D02*
X155738000Y-99143000D01*
X152500000Y-102000000D02*
X155488000Y-102000000D01*
X155738000Y-100500000D02*
X154262000Y-100500000D01*
X152000000Y-108750000D02*
X152000000Y-102500000D01*
X152000000Y-110810000D02*
X152000000Y-108750000D01*
X138152000Y-112738000D02*
X139000000Y-112738000D01*
X155738000Y-101750000D02*
X155500000Y-101988000D01*
X155500000Y-108012000D02*
X154168000Y-108012000D01*
D25*
X150512000Y-108750000D02*
X152000000Y-108750000D01*
X150060000Y-112750000D02*
X152000000Y-110810000D01*
D26*
X136262000Y-114000000D02*
X136890000Y-114000000D01*
X155738000Y-100500000D02*
X155738000Y-101750000D01*
X139000000Y-107210000D02*
X139940000Y-106270000D01*
X155738000Y-99143000D02*
X155484000Y-98889000D01*
D25*
X146512000Y-112750000D02*
X150060000Y-112750000D01*
D26*
X139940000Y-106270000D02*
X140952000Y-106270000D01*
X155488000Y-102000000D02*
X155500000Y-101988000D01*
X136890000Y-114000000D02*
X138152000Y-112738000D01*
X153430000Y-108750000D02*
X152000000Y-108750000D01*
D25*
X139000000Y-112738000D02*
X139012000Y-112750000D01*
X146500000Y-112762000D02*
X146512000Y-112750000D01*
%TO.N,RST*%
X144000000Y-107960000D02*
X144000000Y-102460000D01*
X148988000Y-110226000D02*
X149000000Y-110238000D01*
X148988000Y-108750000D02*
X148988000Y-110226000D01*
X149000000Y-110238000D02*
X146278000Y-110238000D01*
X144000000Y-102460000D02*
X147302000Y-102460000D01*
X146278000Y-110238000D02*
X144000000Y-107960000D01*
X133500000Y-101190000D02*
X134754311Y-99935689D01*
X139510000Y-101820000D02*
X141746122Y-101820000D01*
X142386122Y-102460000D02*
X144000000Y-102460000D01*
X137625689Y-99935689D02*
X139510000Y-101820000D01*
X141746122Y-101820000D02*
X142386122Y-102460000D01*
X134754311Y-99935689D02*
X137625689Y-99935689D01*
%TO.N,IRQ*%
X142040000Y-107240000D02*
X142040000Y-106080000D01*
X130500000Y-105290000D02*
X130500000Y-98650000D01*
X141740000Y-107540000D02*
X142040000Y-107240000D01*
X140952000Y-107540000D02*
X141740000Y-107540000D01*
X142040000Y-106080000D02*
X141650000Y-105690000D01*
X136590000Y-107540000D02*
X132750000Y-107540000D01*
X141650000Y-105690000D02*
X138440000Y-105690000D01*
X138440000Y-105690000D02*
X136590000Y-107540000D01*
X132750000Y-107540000D02*
X130500000Y-105290000D01*
D26*
%TO.N,+VPMOD*%
X133500000Y-112600000D02*
X133500000Y-111350000D01*
X136040000Y-111350000D02*
X133500000Y-111350000D01*
X132952500Y-113147500D02*
X133500000Y-112600000D01*
X132952500Y-114000000D02*
X134738000Y-114000000D01*
X132952500Y-114000000D02*
X132952500Y-113147500D01*
D25*
%TO.N,SWDIO*%
X140952000Y-101190000D02*
X140952000Y-100702000D01*
X140952000Y-100702000D02*
X137370000Y-97120000D01*
X132050000Y-102280000D02*
X133500000Y-103730000D01*
X132050000Y-98110000D02*
X132050000Y-102280000D01*
X133040000Y-97120000D02*
X132050000Y-98110000D01*
X137370000Y-97120000D02*
X133040000Y-97120000D01*
%TO.N,SWCLK*%
X131460000Y-97890000D02*
X131460000Y-104230000D01*
X142540000Y-101190000D02*
X137950000Y-96600000D01*
X132750000Y-96600000D02*
X131460000Y-97890000D01*
X137950000Y-96600000D02*
X132750000Y-96600000D01*
X131460000Y-104230000D02*
X133500000Y-106270000D01*
X147302000Y-101190000D02*
X142540000Y-101190000D01*
D26*
%TO.N,Net-(R3-Pad1)*%
X149030000Y-105250000D02*
X151238000Y-105250000D01*
X147302000Y-105000000D02*
X148780000Y-105000000D01*
X148780000Y-105000000D02*
X149030000Y-105250000D01*
%TO.N,Net-(R4-Pad1)*%
X149050000Y-103500000D02*
X151238000Y-103500000D01*
X148820000Y-103730000D02*
X149050000Y-103500000D01*
X147302000Y-103730000D02*
X148820000Y-103730000D01*
%TO.N,+VSENSOR*%
X164000000Y-101262000D02*
X164000000Y-103550000D01*
X162382000Y-101262000D02*
X161620000Y-100500000D01*
X164000000Y-101262000D02*
X162382000Y-101262000D01*
X161620000Y-100500000D02*
X160262000Y-100500000D01*
%TO.N,/SDA*%
X162680000Y-107500000D02*
X163000000Y-107180000D01*
D25*
X155500000Y-106488000D02*
X155512000Y-106500000D01*
D26*
X160000000Y-106500000D02*
X161000000Y-107500000D01*
X161000000Y-107500000D02*
X162680000Y-107500000D01*
X155512000Y-106500000D02*
X160000000Y-106500000D01*
X152762000Y-105250000D02*
X153480000Y-105250000D01*
X153480000Y-105250000D02*
X154718000Y-106488000D01*
X163000000Y-107180000D02*
X163000000Y-106450000D01*
X155500000Y-106488000D02*
X154718000Y-106488000D01*
%TO.N,/SCL*%
X160000000Y-103500000D02*
X155512000Y-103500000D01*
X161000000Y-102500000D02*
X160000000Y-103500000D01*
X163000000Y-102770000D02*
X163000000Y-103550000D01*
X155500000Y-103512000D02*
X152774000Y-103512000D01*
X152774000Y-103512000D02*
X152762000Y-103500000D01*
X155512000Y-103500000D02*
X155500000Y-103512000D01*
X161000000Y-102500000D02*
X162730000Y-102500000D01*
X162730000Y-102500000D02*
X163000000Y-102770000D01*
%TO.N,Net-(L2-Pad1)*%
X158738000Y-99222000D02*
X157516000Y-98000000D01*
X157262000Y-100500000D02*
X158738000Y-100500000D01*
X158738000Y-100500000D02*
X158738000Y-99222000D01*
D25*
%TO.N,PWR_SENSOR*%
X150900000Y-100500000D02*
X152738000Y-100500000D01*
X146300000Y-108810000D02*
X145500000Y-108010000D01*
X148310000Y-103090000D02*
X150900000Y-100500000D01*
D27*
X154679000Y-97111000D02*
X155484000Y-97111000D01*
X152738000Y-100500000D02*
X152738000Y-99052000D01*
D25*
X146280000Y-103090000D02*
X148310000Y-103090000D01*
D27*
X152738000Y-99052000D02*
X154679000Y-97111000D01*
D25*
X145500000Y-103870000D02*
X146280000Y-103090000D01*
X147302000Y-108810000D02*
X146300000Y-108810000D01*
X145500000Y-108010000D02*
X145500000Y-103870000D01*
%TO.N,Net-(R8-Pad1)*%
X144964500Y-111238000D02*
X144952500Y-111250000D01*
X146500000Y-111238000D02*
X144964500Y-111238000D01*
%TO.N,LED*%
X140952000Y-110292000D02*
X141910000Y-111250000D01*
X141910000Y-111250000D02*
X143047500Y-111250000D01*
X140952000Y-108810000D02*
X140952000Y-110292000D01*
%TD*%
%TA.AperFunction,Conductor*%
%TO.N,GND*%
G36*
X167288921Y-95063202D02*
G01*
X167335414Y-95116858D01*
X167346800Y-95169200D01*
X167346800Y-111304900D01*
X167326798Y-111373021D01*
X167273142Y-111419514D01*
X167220800Y-111430900D01*
X156811867Y-111430900D01*
X156811867Y-113569100D01*
X156811952Y-113569100D01*
X156812034Y-113569669D01*
X156812034Y-114830800D01*
X156792032Y-114898921D01*
X156738376Y-114945414D01*
X156686034Y-114956800D01*
X139860609Y-114956800D01*
X139792488Y-114936798D01*
X139745995Y-114883142D01*
X139735891Y-114812868D01*
X139755844Y-114760798D01*
X139803868Y-114688925D01*
X139813184Y-114666434D01*
X139824293Y-114610585D01*
X139825500Y-114598330D01*
X139825500Y-114534115D01*
X139821025Y-114518876D01*
X139819635Y-114517671D01*
X139811952Y-114516000D01*
X138192616Y-114516000D01*
X138177377Y-114520475D01*
X138176172Y-114521865D01*
X138174501Y-114529548D01*
X138174501Y-114598328D01*
X138175709Y-114610588D01*
X138186815Y-114666431D01*
X138196133Y-114688927D01*
X138244156Y-114760798D01*
X138265371Y-114828551D01*
X138246588Y-114897018D01*
X138193771Y-114944461D01*
X138139391Y-114956800D01*
X136784876Y-114956800D01*
X136716755Y-114936798D01*
X136670262Y-114883142D01*
X136660158Y-114812868D01*
X136689652Y-114748288D01*
X136714874Y-114726035D01*
X136716043Y-114725254D01*
X136716045Y-114725252D01*
X136726360Y-114718360D01*
X136771381Y-114650980D01*
X136783200Y-114591564D01*
X136783200Y-114532900D01*
X136803202Y-114464779D01*
X136856858Y-114418286D01*
X136909200Y-114406900D01*
X136954446Y-114406900D01*
X136975848Y-114399946D01*
X136995074Y-114395330D01*
X137007513Y-114393360D01*
X137017306Y-114391809D01*
X137037359Y-114381592D01*
X137055620Y-114374028D01*
X137067597Y-114370136D01*
X137067599Y-114370135D01*
X137077032Y-114367070D01*
X137095241Y-114353840D01*
X137112096Y-114343510D01*
X137132151Y-114333292D01*
X137475558Y-113989885D01*
X138174500Y-113989885D01*
X138178975Y-114005124D01*
X138180365Y-114006329D01*
X138188048Y-114008000D01*
X138727885Y-114008000D01*
X138743124Y-114003525D01*
X138744329Y-114002135D01*
X138746000Y-113994452D01*
X138746000Y-113989885D01*
X139254000Y-113989885D01*
X139258475Y-114005124D01*
X139259865Y-114006329D01*
X139267548Y-114008000D01*
X139807384Y-114008000D01*
X139822623Y-114003525D01*
X139823828Y-114002135D01*
X139825499Y-113994452D01*
X139825499Y-113925672D01*
X139824291Y-113913412D01*
X139813185Y-113857569D01*
X139803867Y-113835073D01*
X139761517Y-113771692D01*
X139744308Y-113754483D01*
X139680925Y-113712132D01*
X139658434Y-113702816D01*
X139602585Y-113691707D01*
X139590330Y-113690500D01*
X139272115Y-113690500D01*
X139256876Y-113694975D01*
X139255671Y-113696365D01*
X139254000Y-113704048D01*
X139254000Y-113989885D01*
X138746000Y-113989885D01*
X138746000Y-113708616D01*
X138741525Y-113693377D01*
X138740135Y-113692172D01*
X138732452Y-113690501D01*
X138409672Y-113690501D01*
X138397412Y-113691709D01*
X138341569Y-113702815D01*
X138319073Y-113712133D01*
X138255692Y-113754483D01*
X138238483Y-113771692D01*
X138196132Y-113835075D01*
X138186816Y-113857566D01*
X138175707Y-113913415D01*
X138174500Y-113925670D01*
X138174500Y-113989885D01*
X137475558Y-113989885D01*
X138198740Y-113266703D01*
X138261052Y-113232677D01*
X138336055Y-113239390D01*
X138338700Y-113240486D01*
X138349020Y-113247381D01*
X138408436Y-113259200D01*
X139591564Y-113259200D01*
X139650980Y-113247381D01*
X139718360Y-113202360D01*
X139745261Y-113162099D01*
X139799738Y-113116571D01*
X139850027Y-113106100D01*
X145633937Y-113106100D01*
X145702058Y-113126102D01*
X145738703Y-113162099D01*
X145781640Y-113226360D01*
X145849020Y-113271381D01*
X145908436Y-113283200D01*
X147091564Y-113283200D01*
X147150980Y-113271381D01*
X147218360Y-113226360D01*
X147261297Y-113162099D01*
X147315774Y-113116571D01*
X147366063Y-113106100D01*
X150008572Y-113106100D01*
X150028621Y-113108234D01*
X150032811Y-113108432D01*
X150042993Y-113110624D01*
X150073840Y-113106973D01*
X150079215Y-113106656D01*
X150079204Y-113106528D01*
X150084382Y-113106100D01*
X150089584Y-113106100D01*
X150100919Y-113104213D01*
X150107243Y-113103161D01*
X150113115Y-113102326D01*
X150150374Y-113097916D01*
X150150381Y-113097914D01*
X150160722Y-113096690D01*
X150168468Y-113092970D01*
X150176942Y-113091560D01*
X150215548Y-113070730D01*
X150219109Y-113068808D01*
X150224396Y-113066115D01*
X150260442Y-113048805D01*
X150260445Y-113048803D01*
X150267590Y-113045372D01*
X150271600Y-113042001D01*
X150273538Y-113040063D01*
X150275189Y-113038548D01*
X150275599Y-113038327D01*
X150275637Y-113038369D01*
X150275820Y-113038208D01*
X150281274Y-113035265D01*
X150315532Y-112998205D01*
X150318961Y-112994640D01*
X152085352Y-111228250D01*
X152127590Y-111202367D01*
X152127306Y-111201809D01*
X152134399Y-111198195D01*
X152134400Y-111198194D01*
X152242151Y-111143292D01*
X152333292Y-111052151D01*
X152391809Y-110937306D01*
X152393483Y-110926740D01*
X152400584Y-110881900D01*
X152406900Y-110842024D01*
X152406900Y-109282900D01*
X152426902Y-109214779D01*
X152480558Y-109168286D01*
X152532900Y-109156900D01*
X153494446Y-109156900D01*
X153515848Y-109149946D01*
X153535074Y-109145330D01*
X153547513Y-109143360D01*
X153557306Y-109141809D01*
X153577359Y-109131592D01*
X153595620Y-109124028D01*
X153607597Y-109120136D01*
X153607599Y-109120135D01*
X153617032Y-109117070D01*
X153635241Y-109103840D01*
X153652096Y-109093510D01*
X153672151Y-109083292D01*
X154299638Y-108455805D01*
X154361950Y-108421779D01*
X154388733Y-108418900D01*
X154675898Y-108418900D01*
X154744019Y-108438902D01*
X154764355Y-108458880D01*
X154765969Y-108457266D01*
X154774748Y-108466045D01*
X154781640Y-108476360D01*
X154849020Y-108521381D01*
X154908436Y-108533200D01*
X156091564Y-108533200D01*
X156150980Y-108521381D01*
X156218360Y-108476360D01*
X156263381Y-108408980D01*
X156275200Y-108349564D01*
X156275200Y-107674436D01*
X156263381Y-107615020D01*
X156218360Y-107547640D01*
X156150980Y-107502619D01*
X156091564Y-107490800D01*
X154908436Y-107490800D01*
X154849020Y-107502619D01*
X154781640Y-107547640D01*
X154774748Y-107557955D01*
X154765969Y-107566734D01*
X154763053Y-107563818D01*
X154726198Y-107594625D01*
X154675898Y-107605100D01*
X154103554Y-107605100D01*
X154094121Y-107608165D01*
X154082152Y-107612054D01*
X154062926Y-107616670D01*
X154040694Y-107620191D01*
X154031861Y-107624692D01*
X154031860Y-107624692D01*
X154020642Y-107630408D01*
X154002380Y-107637972D01*
X153990403Y-107641864D01*
X153990401Y-107641865D01*
X153980968Y-107644930D01*
X153972943Y-107650761D01*
X153962759Y-107658160D01*
X153945904Y-107668490D01*
X153925849Y-107678708D01*
X153298362Y-108306195D01*
X153236050Y-108340221D01*
X153209267Y-108343100D01*
X152532900Y-108343100D01*
X152464779Y-108323098D01*
X152418286Y-108269442D01*
X152406900Y-108217100D01*
X152406900Y-106151200D01*
X152426902Y-106083079D01*
X152480558Y-106036586D01*
X152532900Y-106025200D01*
X153099564Y-106025200D01*
X153158980Y-106013381D01*
X153226360Y-105968360D01*
X153254529Y-105926202D01*
X153264487Y-105911298D01*
X153264487Y-105911297D01*
X153271381Y-105900980D01*
X153273802Y-105888809D01*
X153278551Y-105877344D01*
X153281272Y-105878471D01*
X153305440Y-105832262D01*
X153367134Y-105797127D01*
X153438029Y-105800924D01*
X153485209Y-105830652D01*
X154452922Y-106798366D01*
X154452926Y-106798369D01*
X154475849Y-106821292D01*
X154495907Y-106831512D01*
X154512759Y-106841840D01*
X154530968Y-106855069D01*
X154552368Y-106862022D01*
X154570633Y-106869587D01*
X154590694Y-106879809D01*
X154600485Y-106881360D01*
X154600489Y-106881361D01*
X154612937Y-106883333D01*
X154632157Y-106887947D01*
X154653553Y-106894899D01*
X154675897Y-106894899D01*
X154744018Y-106914901D01*
X154764356Y-106934879D01*
X154765969Y-106933266D01*
X154774748Y-106942045D01*
X154781640Y-106952360D01*
X154800255Y-106964798D01*
X154833644Y-106987107D01*
X154849020Y-106997381D01*
X154908436Y-107009200D01*
X156091564Y-107009200D01*
X156150980Y-106997381D01*
X156166357Y-106987107D01*
X156199745Y-106964798D01*
X156218360Y-106952360D01*
X156224412Y-106943303D01*
X156285804Y-106909779D01*
X156312587Y-106906900D01*
X159236432Y-106906900D01*
X159304553Y-106926902D01*
X159344207Y-106967628D01*
X159356004Y-106987107D01*
X159356007Y-106987110D01*
X159359654Y-106993133D01*
X159484820Y-107122746D01*
X159635591Y-107221407D01*
X159642195Y-107223863D01*
X159797863Y-107281756D01*
X159797865Y-107281757D01*
X159804473Y-107284214D01*
X159887774Y-107295329D01*
X159976093Y-107307114D01*
X159976097Y-107307114D01*
X159983074Y-107308045D01*
X159990085Y-107307407D01*
X159990089Y-107307407D01*
X160073594Y-107299807D01*
X160153008Y-107292579D01*
X160222660Y-107306324D01*
X160253522Y-107328965D01*
X160757849Y-107833292D01*
X160777904Y-107843510D01*
X160794759Y-107853840D01*
X160812968Y-107867070D01*
X160822401Y-107870135D01*
X160822403Y-107870136D01*
X160834380Y-107874028D01*
X160852641Y-107881592D01*
X160872694Y-107891809D01*
X160894396Y-107895246D01*
X160894926Y-107895330D01*
X160914152Y-107899946D01*
X160935554Y-107906900D01*
X162744446Y-107906900D01*
X162765848Y-107899946D01*
X162785074Y-107895330D01*
X162785605Y-107895246D01*
X162807306Y-107891809D01*
X162827359Y-107881592D01*
X162845620Y-107874028D01*
X162857597Y-107870136D01*
X162857599Y-107870135D01*
X162867032Y-107867070D01*
X162885241Y-107853840D01*
X162902096Y-107843510D01*
X162922151Y-107833292D01*
X163013292Y-107742151D01*
X163310366Y-107445078D01*
X163310369Y-107445074D01*
X163333292Y-107422151D01*
X163343512Y-107402093D01*
X163353840Y-107385240D01*
X163367069Y-107367032D01*
X163374023Y-107345631D01*
X163381588Y-107327365D01*
X163387309Y-107316138D01*
X163387309Y-107316137D01*
X163391809Y-107307306D01*
X163393360Y-107297515D01*
X163393361Y-107297511D01*
X163395333Y-107285063D01*
X163399947Y-107265844D01*
X163403833Y-107253882D01*
X163406899Y-107244447D01*
X163406899Y-107212030D01*
X163406900Y-107212024D01*
X163406900Y-107170256D01*
X163426902Y-107102135D01*
X163480558Y-107055642D01*
X163550832Y-107045538D01*
X163602902Y-107065491D01*
X163665575Y-107107368D01*
X163688066Y-107116684D01*
X163743915Y-107127793D01*
X163756170Y-107129000D01*
X163756885Y-107129000D01*
X163772124Y-107124525D01*
X163773329Y-107123135D01*
X163775000Y-107115452D01*
X163775000Y-106351000D01*
X163795002Y-106282879D01*
X163848658Y-106236386D01*
X163901000Y-106225000D01*
X164099000Y-106225000D01*
X164167121Y-106245002D01*
X164213614Y-106298658D01*
X164225000Y-106351000D01*
X164225000Y-107110884D01*
X164229475Y-107126123D01*
X164230865Y-107127328D01*
X164238548Y-107128999D01*
X164243828Y-107128999D01*
X164256088Y-107127791D01*
X164311931Y-107116685D01*
X164334427Y-107107367D01*
X164397808Y-107065017D01*
X164415017Y-107047808D01*
X164426848Y-107030101D01*
X164481324Y-106984572D01*
X164551767Y-106975723D01*
X164620709Y-107011006D01*
X164621248Y-107011545D01*
X164628140Y-107021860D01*
X164695520Y-107066881D01*
X164754936Y-107078700D01*
X165245064Y-107078700D01*
X165304480Y-107066881D01*
X165371860Y-107021860D01*
X165416881Y-106954480D01*
X165428700Y-106895064D01*
X165428700Y-106004936D01*
X165427494Y-105998872D01*
X165427493Y-105998864D01*
X165422676Y-105974648D01*
X165429004Y-105903934D01*
X165430372Y-105901318D01*
X165430238Y-105901263D01*
X165434987Y-105889798D01*
X165441881Y-105879480D01*
X165453700Y-105820064D01*
X165453700Y-104179936D01*
X165441881Y-104120520D01*
X165434987Y-104110202D01*
X165430238Y-104098737D01*
X165434320Y-104097046D01*
X165420274Y-104052148D01*
X165422676Y-104025352D01*
X165427493Y-104001136D01*
X165427494Y-104001128D01*
X165428700Y-103995064D01*
X165428700Y-103104936D01*
X165416881Y-103045520D01*
X165403581Y-103025614D01*
X165380319Y-102990800D01*
X165371860Y-102978140D01*
X165336804Y-102954717D01*
X165314798Y-102940013D01*
X165314797Y-102940013D01*
X165304480Y-102933119D01*
X165245064Y-102921300D01*
X164754936Y-102921300D01*
X164695520Y-102933119D01*
X164685203Y-102940013D01*
X164685202Y-102940013D01*
X164663196Y-102954717D01*
X164628140Y-102978140D01*
X164621605Y-102987921D01*
X164559683Y-103021734D01*
X164488868Y-103016669D01*
X164432032Y-102974122D01*
X164407221Y-102907602D01*
X164406900Y-102898613D01*
X164406900Y-101909200D01*
X164426902Y-101841079D01*
X164480558Y-101794586D01*
X164532900Y-101783200D01*
X164591564Y-101783200D01*
X164650980Y-101771381D01*
X164718360Y-101726360D01*
X164763381Y-101658980D01*
X164775200Y-101599564D01*
X164775200Y-100924436D01*
X164763381Y-100865020D01*
X164750808Y-100846202D01*
X164729223Y-100813898D01*
X164718360Y-100797640D01*
X164650980Y-100752619D01*
X164591564Y-100740800D01*
X163408436Y-100740800D01*
X163349020Y-100752619D01*
X163281640Y-100797640D01*
X163274748Y-100807955D01*
X163265969Y-100816734D01*
X163263053Y-100813818D01*
X163226198Y-100844625D01*
X163175898Y-100855100D01*
X162602733Y-100855100D01*
X162534612Y-100835098D01*
X162513638Y-100818195D01*
X161862151Y-100166708D01*
X161842096Y-100156490D01*
X161825241Y-100146160D01*
X161820113Y-100142434D01*
X161807032Y-100132930D01*
X161797599Y-100129865D01*
X161797597Y-100129864D01*
X161785620Y-100125972D01*
X161767358Y-100118408D01*
X161756140Y-100112692D01*
X161756139Y-100112692D01*
X161747306Y-100108191D01*
X161725074Y-100104670D01*
X161705848Y-100100054D01*
X161693879Y-100096165D01*
X161684446Y-100093100D01*
X160909200Y-100093100D01*
X160845268Y-100074328D01*
X163174501Y-100074328D01*
X163175709Y-100086588D01*
X163186815Y-100142431D01*
X163196133Y-100164927D01*
X163238483Y-100228308D01*
X163255692Y-100245517D01*
X163319075Y-100287868D01*
X163341566Y-100297184D01*
X163397415Y-100308293D01*
X163409670Y-100309500D01*
X163727885Y-100309500D01*
X163743124Y-100305025D01*
X163744329Y-100303635D01*
X163746000Y-100295952D01*
X163746000Y-100291384D01*
X164254000Y-100291384D01*
X164258475Y-100306623D01*
X164259865Y-100307828D01*
X164267548Y-100309499D01*
X164590328Y-100309499D01*
X164602588Y-100308291D01*
X164658431Y-100297185D01*
X164680927Y-100287867D01*
X164744308Y-100245517D01*
X164761517Y-100228308D01*
X164803868Y-100164925D01*
X164813184Y-100142434D01*
X164824293Y-100086585D01*
X164825500Y-100074330D01*
X164825500Y-100010115D01*
X164821025Y-99994876D01*
X164819635Y-99993671D01*
X164811952Y-99992000D01*
X164272115Y-99992000D01*
X164256876Y-99996475D01*
X164255671Y-99997865D01*
X164254000Y-100005548D01*
X164254000Y-100291384D01*
X163746000Y-100291384D01*
X163746000Y-100010115D01*
X163741525Y-99994876D01*
X163740135Y-99993671D01*
X163732452Y-99992000D01*
X163192616Y-99992000D01*
X163177377Y-99996475D01*
X163176172Y-99997865D01*
X163174501Y-100005548D01*
X163174501Y-100074328D01*
X160845268Y-100074328D01*
X160841079Y-100073098D01*
X160794586Y-100019442D01*
X160783200Y-99967100D01*
X160783200Y-99908436D01*
X160771381Y-99849020D01*
X160726360Y-99781640D01*
X160683811Y-99753210D01*
X160669298Y-99743513D01*
X160669296Y-99743512D01*
X160658980Y-99736619D01*
X160599564Y-99724800D01*
X159924436Y-99724800D01*
X159865020Y-99736619D01*
X159854704Y-99743512D01*
X159854702Y-99743513D01*
X159840189Y-99753210D01*
X159797640Y-99781640D01*
X159752619Y-99849020D01*
X159740800Y-99908436D01*
X159740800Y-101091564D01*
X159752619Y-101150980D01*
X159797640Y-101218360D01*
X159807955Y-101225252D01*
X159851449Y-101254313D01*
X159865020Y-101263381D01*
X159924436Y-101275200D01*
X160599564Y-101275200D01*
X160658980Y-101263381D01*
X160672552Y-101254313D01*
X160716045Y-101225252D01*
X160726360Y-101218360D01*
X160771381Y-101150980D01*
X160783200Y-101091564D01*
X160783200Y-101032900D01*
X160803202Y-100964779D01*
X160856858Y-100918286D01*
X160909200Y-100906900D01*
X161399267Y-100906900D01*
X161467388Y-100926902D01*
X161488362Y-100943805D01*
X162139849Y-101595292D01*
X162159904Y-101605510D01*
X162176759Y-101615840D01*
X162194968Y-101629070D01*
X162204401Y-101632135D01*
X162204403Y-101632136D01*
X162216380Y-101636028D01*
X162234641Y-101643592D01*
X162254694Y-101653809D01*
X162264487Y-101655360D01*
X162276926Y-101657330D01*
X162296152Y-101661946D01*
X162317554Y-101668900D01*
X163175898Y-101668900D01*
X163244019Y-101688902D01*
X163264355Y-101708880D01*
X163265969Y-101707266D01*
X163274748Y-101716045D01*
X163281640Y-101726360D01*
X163349020Y-101771381D01*
X163408436Y-101783200D01*
X163467100Y-101783200D01*
X163535221Y-101803202D01*
X163581714Y-101856858D01*
X163593100Y-101909200D01*
X163593100Y-102506284D01*
X163573098Y-102574405D01*
X163519442Y-102620898D01*
X163449168Y-102631002D01*
X163384588Y-102601508D01*
X163365168Y-102580351D01*
X163353836Y-102564754D01*
X163343508Y-102547900D01*
X163337795Y-102536687D01*
X163333292Y-102527849D01*
X162972151Y-102166708D01*
X162952096Y-102156490D01*
X162935241Y-102146160D01*
X162933463Y-102144868D01*
X162917032Y-102132930D01*
X162907599Y-102129865D01*
X162907597Y-102129864D01*
X162895620Y-102125972D01*
X162877358Y-102118408D01*
X162866140Y-102112692D01*
X162866139Y-102112692D01*
X162857306Y-102108191D01*
X162835074Y-102104670D01*
X162815848Y-102100054D01*
X162803879Y-102096165D01*
X162794446Y-102093100D01*
X160935554Y-102093100D01*
X160926121Y-102096165D01*
X160914152Y-102100054D01*
X160894926Y-102104670D01*
X160872694Y-102108191D01*
X160863861Y-102112692D01*
X160863860Y-102112692D01*
X160852642Y-102118408D01*
X160834380Y-102125972D01*
X160822403Y-102129864D01*
X160822401Y-102129865D01*
X160812968Y-102132930D01*
X160796537Y-102144868D01*
X160794759Y-102146160D01*
X160777904Y-102156490D01*
X160757849Y-102166708D01*
X160251826Y-102672731D01*
X160189514Y-102706757D01*
X160147813Y-102708750D01*
X160012636Y-102692632D01*
X160005642Y-102691798D01*
X159998639Y-102692534D01*
X159998638Y-102692534D01*
X159970400Y-102695502D01*
X159826446Y-102710632D01*
X159819778Y-102712902D01*
X159662543Y-102766429D01*
X159662540Y-102766430D01*
X159655876Y-102768699D01*
X159502409Y-102863112D01*
X159456263Y-102908302D01*
X159384947Y-102978140D01*
X159373673Y-102989180D01*
X159346437Y-103031442D01*
X159343915Y-103035356D01*
X159290200Y-103081780D01*
X159238004Y-103093100D01*
X156312587Y-103093100D01*
X156244466Y-103073098D01*
X156224758Y-103057215D01*
X156218360Y-103047640D01*
X156185074Y-103025399D01*
X156161298Y-103009513D01*
X156161297Y-103009513D01*
X156150980Y-103002619D01*
X156091564Y-102990800D01*
X154908436Y-102990800D01*
X154849020Y-103002619D01*
X154838703Y-103009513D01*
X154838702Y-103009513D01*
X154814926Y-103025399D01*
X154781640Y-103047640D01*
X154774748Y-103057955D01*
X154765969Y-103066734D01*
X154763053Y-103063818D01*
X154726198Y-103094625D01*
X154675898Y-103105100D01*
X153409200Y-103105100D01*
X153341079Y-103085098D01*
X153294586Y-103031442D01*
X153283200Y-102979100D01*
X153283200Y-102908436D01*
X153271381Y-102849020D01*
X153250500Y-102817768D01*
X153241165Y-102803798D01*
X153226360Y-102781640D01*
X153158980Y-102736619D01*
X153099564Y-102724800D01*
X152654833Y-102724800D01*
X152586712Y-102704798D01*
X152540219Y-102651142D01*
X152530115Y-102580868D01*
X152559609Y-102516288D01*
X152565738Y-102509705D01*
X152631638Y-102443805D01*
X152693950Y-102409779D01*
X152720733Y-102406900D01*
X154687413Y-102406900D01*
X154755534Y-102426902D01*
X154775242Y-102442785D01*
X154781640Y-102452360D01*
X154791955Y-102459252D01*
X154834500Y-102487679D01*
X154849020Y-102497381D01*
X154908436Y-102509200D01*
X156091564Y-102509200D01*
X156150980Y-102497381D01*
X156165501Y-102487679D01*
X156208045Y-102459252D01*
X156218360Y-102452360D01*
X156250192Y-102404719D01*
X156256487Y-102395298D01*
X156256487Y-102395297D01*
X156263381Y-102384980D01*
X156275200Y-102325564D01*
X156275200Y-101650436D01*
X156263381Y-101591020D01*
X156218360Y-101523640D01*
X156208045Y-101516748D01*
X156208043Y-101516746D01*
X156200898Y-101511972D01*
X156155371Y-101457496D01*
X156144900Y-101407207D01*
X156144900Y-101324102D01*
X156164902Y-101255981D01*
X156184880Y-101235645D01*
X156183266Y-101234031D01*
X156192045Y-101225252D01*
X156202360Y-101218360D01*
X156247381Y-101150980D01*
X156259200Y-101091564D01*
X156740800Y-101091564D01*
X156752619Y-101150980D01*
X156797640Y-101218360D01*
X156807955Y-101225252D01*
X156851449Y-101254313D01*
X156865020Y-101263381D01*
X156924436Y-101275200D01*
X157599564Y-101275200D01*
X157658980Y-101263381D01*
X157672552Y-101254313D01*
X157716045Y-101225252D01*
X157726360Y-101218360D01*
X157771381Y-101150980D01*
X157783200Y-101091564D01*
X157783200Y-101032900D01*
X157803202Y-100964779D01*
X157856858Y-100918286D01*
X157909200Y-100906900D01*
X158090800Y-100906900D01*
X158158921Y-100926902D01*
X158205414Y-100980558D01*
X158216800Y-101032900D01*
X158216800Y-101091564D01*
X158228619Y-101150980D01*
X158273640Y-101218360D01*
X158283955Y-101225252D01*
X158327449Y-101254313D01*
X158341020Y-101263381D01*
X158400436Y-101275200D01*
X159075564Y-101275200D01*
X159134980Y-101263381D01*
X159148552Y-101254313D01*
X159192045Y-101225252D01*
X159202360Y-101218360D01*
X159247381Y-101150980D01*
X159259200Y-101091564D01*
X159259200Y-99908436D01*
X159247381Y-99849020D01*
X159202360Y-99781640D01*
X159192045Y-99774748D01*
X159183266Y-99765969D01*
X159186182Y-99763053D01*
X159155375Y-99726198D01*
X159144900Y-99675898D01*
X159144900Y-99465885D01*
X163174500Y-99465885D01*
X163178975Y-99481124D01*
X163180365Y-99482329D01*
X163188048Y-99484000D01*
X163727885Y-99484000D01*
X163743124Y-99479525D01*
X163744329Y-99478135D01*
X163746000Y-99470452D01*
X163746000Y-99465885D01*
X164254000Y-99465885D01*
X164258475Y-99481124D01*
X164259865Y-99482329D01*
X164267548Y-99484000D01*
X164807384Y-99484000D01*
X164822623Y-99479525D01*
X164823828Y-99478135D01*
X164825499Y-99470452D01*
X164825499Y-99401672D01*
X164824291Y-99389412D01*
X164813185Y-99333569D01*
X164803867Y-99311073D01*
X164761517Y-99247692D01*
X164744308Y-99230483D01*
X164680925Y-99188132D01*
X164658434Y-99178816D01*
X164602585Y-99167707D01*
X164590330Y-99166500D01*
X164272115Y-99166500D01*
X164256876Y-99170975D01*
X164255671Y-99172365D01*
X164254000Y-99180048D01*
X164254000Y-99465885D01*
X163746000Y-99465885D01*
X163746000Y-99184616D01*
X163741525Y-99169377D01*
X163740135Y-99168172D01*
X163732452Y-99166501D01*
X163409672Y-99166501D01*
X163397412Y-99167709D01*
X163341569Y-99178815D01*
X163319073Y-99188133D01*
X163255692Y-99230483D01*
X163238483Y-99247692D01*
X163196132Y-99311075D01*
X163186816Y-99333566D01*
X163175707Y-99389415D01*
X163174500Y-99401670D01*
X163174500Y-99465885D01*
X159144900Y-99465885D01*
X159144900Y-99157554D01*
X159137946Y-99136152D01*
X159133330Y-99116926D01*
X159131360Y-99104487D01*
X159129809Y-99094694D01*
X159119592Y-99074641D01*
X159112028Y-99056380D01*
X159108136Y-99044403D01*
X159108135Y-99044401D01*
X159105070Y-99034968D01*
X159091840Y-99016759D01*
X159081508Y-98999900D01*
X159081116Y-98999129D01*
X159071292Y-98979849D01*
X158213805Y-98122362D01*
X158179779Y-98060050D01*
X158176900Y-98033267D01*
X158176900Y-97522736D01*
X158165081Y-97463320D01*
X158120060Y-97395940D01*
X158052680Y-97350919D01*
X157993264Y-97339100D01*
X157038736Y-97339100D01*
X156979320Y-97350919D01*
X156911940Y-97395940D01*
X156866919Y-97463320D01*
X156855100Y-97522736D01*
X156855100Y-98477264D01*
X156866919Y-98536680D01*
X156911940Y-98604060D01*
X156979320Y-98649081D01*
X157038736Y-98660900D01*
X157549267Y-98660900D01*
X157617388Y-98680902D01*
X157638362Y-98697805D01*
X158294195Y-99353638D01*
X158328221Y-99415950D01*
X158331100Y-99442733D01*
X158331100Y-99675898D01*
X158311098Y-99744019D01*
X158291120Y-99764355D01*
X158292734Y-99765969D01*
X158283955Y-99774748D01*
X158273640Y-99781640D01*
X158228619Y-99849020D01*
X158216800Y-99908436D01*
X158216800Y-99967100D01*
X158196798Y-100035221D01*
X158143142Y-100081714D01*
X158090800Y-100093100D01*
X157909200Y-100093100D01*
X157841079Y-100073098D01*
X157794586Y-100019442D01*
X157783200Y-99967100D01*
X157783200Y-99908436D01*
X157771381Y-99849020D01*
X157726360Y-99781640D01*
X157683811Y-99753210D01*
X157669298Y-99743513D01*
X157669296Y-99743512D01*
X157658980Y-99736619D01*
X157599564Y-99724800D01*
X156924436Y-99724800D01*
X156865020Y-99736619D01*
X156854704Y-99743512D01*
X156854702Y-99743513D01*
X156840189Y-99753210D01*
X156797640Y-99781640D01*
X156752619Y-99849020D01*
X156740800Y-99908436D01*
X156740800Y-101091564D01*
X156259200Y-101091564D01*
X156259200Y-99908436D01*
X156247381Y-99849020D01*
X156202360Y-99781640D01*
X156192045Y-99774748D01*
X156183266Y-99765969D01*
X156186182Y-99763053D01*
X156155375Y-99726198D01*
X156144900Y-99675898D01*
X156144900Y-98411736D01*
X156133081Y-98352320D01*
X156125675Y-98341235D01*
X156094952Y-98295255D01*
X156088060Y-98284940D01*
X156046994Y-98257501D01*
X156030998Y-98246813D01*
X156030997Y-98246813D01*
X156020680Y-98239919D01*
X155961264Y-98228100D01*
X155006736Y-98228100D01*
X154947320Y-98239919D01*
X154937003Y-98246813D01*
X154937002Y-98246813D01*
X154921006Y-98257501D01*
X154879940Y-98284940D01*
X154873048Y-98295255D01*
X154842326Y-98341235D01*
X154834919Y-98352320D01*
X154823100Y-98411736D01*
X154823100Y-99366264D01*
X154834919Y-99425680D01*
X154879940Y-99493060D01*
X154947320Y-99538081D01*
X155006736Y-99549900D01*
X155205097Y-99549900D01*
X155273218Y-99569902D01*
X155319711Y-99623558D01*
X155329815Y-99693832D01*
X155300321Y-99758412D01*
X155292275Y-99765510D01*
X155292734Y-99765969D01*
X155283955Y-99774748D01*
X155273640Y-99781640D01*
X155228619Y-99849020D01*
X155216800Y-99908436D01*
X155216800Y-99967100D01*
X155196798Y-100035221D01*
X155143142Y-100081714D01*
X155090800Y-100093100D01*
X154909200Y-100093100D01*
X154841079Y-100073098D01*
X154794586Y-100019442D01*
X154783200Y-99967100D01*
X154783200Y-99908436D01*
X154771381Y-99849020D01*
X154726360Y-99781640D01*
X154683811Y-99753210D01*
X154669298Y-99743513D01*
X154669296Y-99743512D01*
X154658980Y-99736619D01*
X154599564Y-99724800D01*
X153924436Y-99724800D01*
X153865020Y-99736619D01*
X153854704Y-99743512D01*
X153854702Y-99743513D01*
X153840189Y-99753210D01*
X153797640Y-99781640D01*
X153752619Y-99849020D01*
X153740800Y-99908436D01*
X153740800Y-101091564D01*
X153752619Y-101150980D01*
X153797640Y-101218360D01*
X153807955Y-101225252D01*
X153851449Y-101254313D01*
X153865020Y-101263381D01*
X153924436Y-101275200D01*
X154599564Y-101275200D01*
X154658980Y-101263381D01*
X154672552Y-101254313D01*
X154716045Y-101225252D01*
X154726360Y-101218360D01*
X154771381Y-101150980D01*
X154783200Y-101091564D01*
X154783200Y-101032900D01*
X154803202Y-100964779D01*
X154856858Y-100918286D01*
X154909200Y-100906900D01*
X155090800Y-100906900D01*
X155158921Y-100926902D01*
X155205414Y-100980558D01*
X155216800Y-101032900D01*
X155216800Y-101091564D01*
X155228619Y-101150980D01*
X155273640Y-101218360D01*
X155283955Y-101225252D01*
X155292734Y-101234031D01*
X155289818Y-101236947D01*
X155320625Y-101273802D01*
X155331100Y-101324102D01*
X155331100Y-101340800D01*
X155311098Y-101408921D01*
X155257442Y-101455414D01*
X155205100Y-101466800D01*
X154908436Y-101466800D01*
X154849020Y-101478619D01*
X154781640Y-101523640D01*
X154774748Y-101533955D01*
X154774746Y-101533957D01*
X154772646Y-101537100D01*
X154766295Y-101542408D01*
X154765969Y-101542734D01*
X154765940Y-101542705D01*
X154718170Y-101582629D01*
X154667880Y-101593100D01*
X152435554Y-101593100D01*
X152426121Y-101596165D01*
X152414152Y-101600054D01*
X152394926Y-101604670D01*
X152372694Y-101608191D01*
X152363861Y-101612692D01*
X152363860Y-101612692D01*
X152352642Y-101618408D01*
X152334380Y-101625972D01*
X152322403Y-101629864D01*
X152322401Y-101629865D01*
X152312968Y-101632930D01*
X152297224Y-101644369D01*
X152294759Y-101646160D01*
X152277904Y-101656490D01*
X152257849Y-101666708D01*
X151666708Y-102257849D01*
X151656495Y-102277895D01*
X151656492Y-102277900D01*
X151646160Y-102294759D01*
X151632930Y-102312968D01*
X151629865Y-102322401D01*
X151629864Y-102322403D01*
X151625972Y-102334380D01*
X151618408Y-102352641D01*
X151608191Y-102372694D01*
X151606640Y-102382487D01*
X151604670Y-102394926D01*
X151600054Y-102414152D01*
X151593100Y-102435554D01*
X151593100Y-102598800D01*
X151573098Y-102666921D01*
X151519442Y-102713414D01*
X151467100Y-102724800D01*
X150900436Y-102724800D01*
X150841020Y-102736619D01*
X150773640Y-102781640D01*
X150758835Y-102803798D01*
X150749501Y-102817768D01*
X150728619Y-102849020D01*
X150716800Y-102908436D01*
X150716800Y-102967100D01*
X150696798Y-103035221D01*
X150643142Y-103081714D01*
X150590800Y-103093100D01*
X149114691Y-103093100D01*
X149046570Y-103073098D01*
X149000077Y-103019442D01*
X148989973Y-102949168D01*
X149019467Y-102884588D01*
X149025596Y-102878005D01*
X149816803Y-102086799D01*
X151010597Y-100893005D01*
X151072909Y-100858979D01*
X151099692Y-100856100D01*
X152090800Y-100856100D01*
X152158921Y-100876102D01*
X152205414Y-100929758D01*
X152216800Y-100982100D01*
X152216800Y-101091564D01*
X152228619Y-101150980D01*
X152273640Y-101218360D01*
X152283955Y-101225252D01*
X152327449Y-101254313D01*
X152341020Y-101263381D01*
X152400436Y-101275200D01*
X153075564Y-101275200D01*
X153134980Y-101263381D01*
X153148552Y-101254313D01*
X153192045Y-101225252D01*
X153202360Y-101218360D01*
X153247381Y-101150980D01*
X153259200Y-101091564D01*
X153259200Y-99908436D01*
X153247381Y-99849020D01*
X153202360Y-99781640D01*
X153159811Y-99753210D01*
X153145297Y-99743512D01*
X153145295Y-99743511D01*
X153134980Y-99736619D01*
X153122809Y-99734198D01*
X153121083Y-99733483D01*
X153065802Y-99688936D01*
X153043300Y-99617074D01*
X153043300Y-99230649D01*
X153063302Y-99162528D01*
X153080205Y-99141554D01*
X154627033Y-97594726D01*
X154689345Y-97560700D01*
X154760160Y-97565765D01*
X154816996Y-97608312D01*
X154832506Y-97635550D01*
X154834919Y-97647680D01*
X154879940Y-97715060D01*
X154947320Y-97760081D01*
X155006736Y-97771900D01*
X155961264Y-97771900D01*
X156020680Y-97760081D01*
X156088060Y-97715060D01*
X156133081Y-97647680D01*
X156144900Y-97588264D01*
X156144900Y-96633736D01*
X156133081Y-96574320D01*
X156088060Y-96506940D01*
X156020680Y-96461919D01*
X155961264Y-96450100D01*
X155006736Y-96450100D01*
X154947320Y-96461919D01*
X154879940Y-96506940D01*
X154834919Y-96574320D01*
X154823100Y-96633736D01*
X154823100Y-96678679D01*
X154803098Y-96746800D01*
X154749442Y-96793293D01*
X154701829Y-96804590D01*
X154680260Y-96805400D01*
X154674641Y-96805611D01*
X154669917Y-96805700D01*
X154650607Y-96805700D01*
X154645819Y-96806592D01*
X154642105Y-96806833D01*
X154610719Y-96808011D01*
X154600030Y-96812603D01*
X154595953Y-96813522D01*
X154582520Y-96817603D01*
X154578625Y-96819106D01*
X154567189Y-96821236D01*
X154545735Y-96834460D01*
X154529378Y-96842957D01*
X154506222Y-96852906D01*
X154501256Y-96856984D01*
X154498927Y-96859313D01*
X154498814Y-96859403D01*
X154496796Y-96861232D01*
X154496672Y-96861095D01*
X154486751Y-96868938D01*
X154480274Y-96874811D01*
X154470372Y-96880915D01*
X154463331Y-96890175D01*
X154453468Y-96903145D01*
X154442267Y-96915973D01*
X152559800Y-98798440D01*
X152557655Y-98800291D01*
X152552820Y-98802655D01*
X152544908Y-98811184D01*
X152544907Y-98811185D01*
X152518978Y-98839137D01*
X152515698Y-98842542D01*
X152502043Y-98856197D01*
X152499286Y-98860216D01*
X152496834Y-98863008D01*
X152483384Y-98877507D01*
X152483382Y-98877510D01*
X152475472Y-98886037D01*
X152471162Y-98896839D01*
X152468932Y-98900367D01*
X152462316Y-98912760D01*
X152460627Y-98916572D01*
X152454044Y-98926168D01*
X152450613Y-98940626D01*
X152448226Y-98950683D01*
X152442663Y-98968270D01*
X152433327Y-98991673D01*
X152432700Y-98998068D01*
X152432700Y-99001364D01*
X152432682Y-99001517D01*
X152432550Y-99004220D01*
X152432367Y-99004211D01*
X152430898Y-99016759D01*
X152430470Y-99025505D01*
X152427783Y-99036828D01*
X152429352Y-99048357D01*
X152429352Y-99048358D01*
X152431549Y-99064500D01*
X152432700Y-99081491D01*
X152432700Y-99617074D01*
X152412698Y-99685195D01*
X152354917Y-99733483D01*
X152353191Y-99734198D01*
X152341020Y-99736619D01*
X152330705Y-99743511D01*
X152330703Y-99743512D01*
X152316189Y-99753210D01*
X152273640Y-99781640D01*
X152228619Y-99849020D01*
X152216800Y-99908436D01*
X152216800Y-100017900D01*
X152196798Y-100086021D01*
X152143142Y-100132514D01*
X152090800Y-100143900D01*
X150951428Y-100143900D01*
X150931379Y-100141766D01*
X150927189Y-100141568D01*
X150917007Y-100139376D01*
X150891172Y-100142434D01*
X150886162Y-100143027D01*
X150880784Y-100143344D01*
X150880795Y-100143472D01*
X150875615Y-100143900D01*
X150870416Y-100143900D01*
X150865292Y-100144753D01*
X150865279Y-100144754D01*
X150852742Y-100146841D01*
X150846867Y-100147677D01*
X150809625Y-100152085D01*
X150809618Y-100152087D01*
X150799277Y-100153311D01*
X150791534Y-100157029D01*
X150783058Y-100158440D01*
X150773897Y-100163383D01*
X150740886Y-100181194D01*
X150735600Y-100183887D01*
X150699558Y-100201195D01*
X150699555Y-100201197D01*
X150692410Y-100204628D01*
X150688400Y-100207999D01*
X150686462Y-100209937D01*
X150684811Y-100211452D01*
X150684401Y-100211673D01*
X150684363Y-100211631D01*
X150684180Y-100211792D01*
X150678726Y-100214735D01*
X150671658Y-100222382D01*
X150671657Y-100222382D01*
X150644469Y-100251794D01*
X150641039Y-100255360D01*
X148292295Y-102604103D01*
X148229983Y-102638129D01*
X148159167Y-102633064D01*
X148102332Y-102590517D01*
X148077521Y-102523997D01*
X148077200Y-102515008D01*
X148077200Y-102185936D01*
X148065381Y-102126520D01*
X148020360Y-102059140D01*
X147952980Y-102014119D01*
X147893564Y-102002300D01*
X146710436Y-102002300D01*
X146651020Y-102014119D01*
X146583640Y-102059140D01*
X146577923Y-102067697D01*
X146516896Y-102101021D01*
X146490113Y-102103900D01*
X144021123Y-102103900D01*
X144010251Y-102103430D01*
X144006660Y-102103119D01*
X143971674Y-102100089D01*
X143961565Y-102102600D01*
X143951183Y-102103417D01*
X143951123Y-102102650D01*
X143940916Y-102103900D01*
X142585814Y-102103900D01*
X142517693Y-102083898D01*
X142496718Y-102066995D01*
X142275987Y-101846263D01*
X142034288Y-101604564D01*
X142021614Y-101588871D01*
X142018795Y-101585773D01*
X142013147Y-101577026D01*
X141988755Y-101557797D01*
X141984725Y-101554216D01*
X141984642Y-101554314D01*
X141980685Y-101550961D01*
X141977004Y-101547280D01*
X141972770Y-101544254D01*
X141962411Y-101536851D01*
X141957666Y-101533288D01*
X141928227Y-101510080D01*
X141928225Y-101510079D01*
X141920047Y-101503632D01*
X141911942Y-101500786D01*
X141904951Y-101495790D01*
X141859060Y-101482066D01*
X141853413Y-101480232D01*
X141811451Y-101465496D01*
X141753806Y-101424052D01*
X141727718Y-101358023D01*
X141727200Y-101346613D01*
X141727200Y-101184992D01*
X141747202Y-101116871D01*
X141800858Y-101070378D01*
X141871132Y-101060274D01*
X141935712Y-101089768D01*
X141942295Y-101095897D01*
X142251833Y-101405435D01*
X142264505Y-101421125D01*
X142267327Y-101424226D01*
X142272975Y-101432974D01*
X142281153Y-101439421D01*
X142297367Y-101452203D01*
X142301397Y-101455784D01*
X142301480Y-101455686D01*
X142305437Y-101459039D01*
X142309118Y-101462720D01*
X142313350Y-101465744D01*
X142313352Y-101465746D01*
X142323711Y-101473149D01*
X142328456Y-101476712D01*
X142357895Y-101499920D01*
X142357897Y-101499921D01*
X142366075Y-101506368D01*
X142374180Y-101509214D01*
X142381171Y-101514210D01*
X142416462Y-101524764D01*
X142427071Y-101527937D01*
X142432715Y-101529771D01*
X142470447Y-101543021D01*
X142470450Y-101543022D01*
X142477929Y-101545648D01*
X142483148Y-101546100D01*
X142485859Y-101546100D01*
X142488135Y-101546198D01*
X142488585Y-101546333D01*
X142488583Y-101546387D01*
X142488814Y-101546402D01*
X142494751Y-101548177D01*
X142545149Y-101546197D01*
X142550095Y-101546100D01*
X146490113Y-101546100D01*
X146558234Y-101566102D01*
X146577439Y-101581579D01*
X146583640Y-101590860D01*
X146597400Y-101600054D01*
X146632100Y-101623239D01*
X146651020Y-101635881D01*
X146710436Y-101647700D01*
X147893564Y-101647700D01*
X147952980Y-101635881D01*
X147971901Y-101623239D01*
X148006600Y-101600054D01*
X148020360Y-101590860D01*
X148065381Y-101523480D01*
X148077200Y-101464064D01*
X148077200Y-100915936D01*
X148065381Y-100856520D01*
X148020360Y-100789140D01*
X147976019Y-100759513D01*
X147963298Y-100751013D01*
X147963297Y-100751013D01*
X147952980Y-100744119D01*
X147893564Y-100732300D01*
X146710436Y-100732300D01*
X146651020Y-100744119D01*
X146640703Y-100751013D01*
X146640702Y-100751013D01*
X146627981Y-100759513D01*
X146583640Y-100789140D01*
X146577923Y-100797697D01*
X146516896Y-100831021D01*
X146490113Y-100833900D01*
X142739691Y-100833900D01*
X142671570Y-100813898D01*
X142650596Y-100796995D01*
X140457662Y-98604060D01*
X138238167Y-96384565D01*
X138225495Y-96368875D01*
X138222673Y-96365774D01*
X138217025Y-96357026D01*
X138192633Y-96337797D01*
X138188603Y-96334216D01*
X138188520Y-96334314D01*
X138184563Y-96330961D01*
X138180882Y-96327280D01*
X138176648Y-96324254D01*
X138166289Y-96316851D01*
X138161544Y-96313288D01*
X138132105Y-96290080D01*
X138132103Y-96290079D01*
X138123925Y-96283632D01*
X138115820Y-96280786D01*
X138108829Y-96275790D01*
X138062938Y-96262066D01*
X138057293Y-96260232D01*
X138019553Y-96246979D01*
X138019550Y-96246978D01*
X138012071Y-96244352D01*
X138006852Y-96243900D01*
X138004141Y-96243900D01*
X138001864Y-96243802D01*
X138001415Y-96243667D01*
X138001417Y-96243613D01*
X138001184Y-96243598D01*
X137995248Y-96241823D01*
X137945385Y-96243782D01*
X137944850Y-96243803D01*
X137939904Y-96243900D01*
X132801422Y-96243900D01*
X132781389Y-96241768D01*
X132777191Y-96241570D01*
X132767006Y-96239377D01*
X132756664Y-96240601D01*
X132736167Y-96243027D01*
X132730785Y-96243344D01*
X132730796Y-96243472D01*
X132725618Y-96243900D01*
X132720416Y-96243900D01*
X132709081Y-96245787D01*
X132702739Y-96246842D01*
X132696867Y-96247677D01*
X132659625Y-96252085D01*
X132659618Y-96252087D01*
X132649277Y-96253311D01*
X132641534Y-96257029D01*
X132633058Y-96258440D01*
X132590874Y-96281202D01*
X132585611Y-96283883D01*
X132542409Y-96304628D01*
X132538399Y-96307999D01*
X132536460Y-96309938D01*
X132534808Y-96311453D01*
X132534400Y-96311673D01*
X132534362Y-96311632D01*
X132534181Y-96311792D01*
X132528726Y-96314735D01*
X132521658Y-96322382D01*
X132521657Y-96322382D01*
X132494481Y-96351781D01*
X132491051Y-96355347D01*
X131244565Y-97601833D01*
X131228875Y-97614505D01*
X131225774Y-97617327D01*
X131217026Y-97622975D01*
X131210579Y-97631153D01*
X131197797Y-97647367D01*
X131194216Y-97651397D01*
X131194314Y-97651480D01*
X131190961Y-97655437D01*
X131187280Y-97659118D01*
X131184256Y-97663350D01*
X131184254Y-97663352D01*
X131176851Y-97673711D01*
X131173288Y-97678456D01*
X131150080Y-97707895D01*
X131150079Y-97707897D01*
X131143632Y-97716075D01*
X131140786Y-97724180D01*
X131135790Y-97731171D01*
X131132806Y-97741150D01*
X131122066Y-97777062D01*
X131120232Y-97782707D01*
X131113636Y-97801491D01*
X131104352Y-97827929D01*
X131103900Y-97833148D01*
X131103900Y-97835859D01*
X131103802Y-97838136D01*
X131103667Y-97838585D01*
X131103613Y-97838583D01*
X131103598Y-97838816D01*
X131101823Y-97844752D01*
X131103000Y-97874717D01*
X131103803Y-97895150D01*
X131103900Y-97900096D01*
X131103900Y-98153440D01*
X131083898Y-98221561D01*
X131030242Y-98268054D01*
X130959968Y-98278158D01*
X130899372Y-98250484D01*
X130898897Y-98251103D01*
X130782063Y-98161453D01*
X130646007Y-98105096D01*
X130637823Y-98104019D01*
X130637821Y-98104018D01*
X130508188Y-98086952D01*
X130500000Y-98085874D01*
X130491812Y-98086952D01*
X130362179Y-98104018D01*
X130362177Y-98104019D01*
X130353993Y-98105096D01*
X130217937Y-98161453D01*
X130101103Y-98251103D01*
X130011453Y-98367937D01*
X129955096Y-98503993D01*
X129954019Y-98512177D01*
X129954018Y-98512179D01*
X129949434Y-98546998D01*
X129935874Y-98650000D01*
X129955096Y-98796007D01*
X130011453Y-98932063D01*
X130101103Y-99048897D01*
X130107141Y-99053530D01*
X130141021Y-99115581D01*
X130143900Y-99142361D01*
X130143900Y-105238572D01*
X130141766Y-105258621D01*
X130141568Y-105262811D01*
X130139376Y-105272993D01*
X130141181Y-105288243D01*
X130143027Y-105303840D01*
X130143344Y-105309215D01*
X130143472Y-105309204D01*
X130143900Y-105314382D01*
X130143900Y-105319584D01*
X130144754Y-105324714D01*
X130146839Y-105337243D01*
X130147674Y-105343115D01*
X130152084Y-105380374D01*
X130152086Y-105380381D01*
X130153310Y-105390722D01*
X130157030Y-105398468D01*
X130158440Y-105406942D01*
X130175731Y-105438987D01*
X130181192Y-105449109D01*
X130183885Y-105454396D01*
X130201195Y-105490442D01*
X130201197Y-105490445D01*
X130204628Y-105497590D01*
X130207999Y-105501600D01*
X130209937Y-105503538D01*
X130211452Y-105505189D01*
X130211673Y-105505599D01*
X130211631Y-105505637D01*
X130211792Y-105505820D01*
X130214735Y-105511274D01*
X130222382Y-105518342D01*
X130222382Y-105518343D01*
X130251795Y-105545532D01*
X130255361Y-105548962D01*
X132461832Y-107755433D01*
X132474509Y-107771129D01*
X132477326Y-107774225D01*
X132482975Y-107782974D01*
X132491153Y-107789421D01*
X132507372Y-107802207D01*
X132511399Y-107805785D01*
X132511482Y-107805687D01*
X132515441Y-107809042D01*
X132519119Y-107812720D01*
X132523343Y-107815739D01*
X132523353Y-107815747D01*
X132533694Y-107823136D01*
X132538442Y-107826701D01*
X132564983Y-107847624D01*
X132606097Y-107905505D01*
X132609391Y-107976425D01*
X132585928Y-108024580D01*
X132489493Y-108146907D01*
X132483222Y-108156563D01*
X132385577Y-108342156D01*
X132381169Y-108352799D01*
X132318977Y-108553087D01*
X132316587Y-108564331D01*
X132291935Y-108772613D01*
X132291634Y-108784114D01*
X132305351Y-108993386D01*
X132307152Y-109004756D01*
X132358775Y-109208025D01*
X132362616Y-109218872D01*
X132450418Y-109409331D01*
X132456172Y-109419297D01*
X132476906Y-109448634D01*
X132487495Y-109457022D01*
X132500796Y-109449994D01*
X133410905Y-108539885D01*
X133473217Y-108505859D01*
X133544032Y-108510924D01*
X133589095Y-108539885D01*
X134500770Y-109451560D01*
X134513150Y-109458320D01*
X134519730Y-109453394D01*
X134601801Y-109306844D01*
X134606477Y-109296341D01*
X134649780Y-109168775D01*
X134690617Y-109110698D01*
X134756370Y-109083920D01*
X134826162Y-109096941D01*
X134877835Y-109145628D01*
X134891216Y-109178262D01*
X134898774Y-109208023D01*
X134902616Y-109218872D01*
X134990418Y-109409331D01*
X134996172Y-109419297D01*
X135016906Y-109448634D01*
X135027495Y-109457022D01*
X135040796Y-109449994D01*
X135679658Y-108811132D01*
X136404408Y-108811132D01*
X136404539Y-108812965D01*
X136408790Y-108819580D01*
X137040770Y-109451560D01*
X137053150Y-109458320D01*
X137059730Y-109453394D01*
X137141801Y-109306844D01*
X137146477Y-109296341D01*
X137213893Y-109097741D01*
X137216578Y-109086558D01*
X137246968Y-108876956D01*
X137247598Y-108869573D01*
X137249061Y-108813704D01*
X137248818Y-108806305D01*
X137229440Y-108595402D01*
X137227343Y-108584088D01*
X137170414Y-108382236D01*
X137166292Y-108371497D01*
X137073534Y-108183403D01*
X137067517Y-108173583D01*
X137064723Y-108169842D01*
X137053464Y-108161392D01*
X137041046Y-108168164D01*
X136412022Y-108797188D01*
X136404408Y-108811132D01*
X135679658Y-108811132D01*
X136561156Y-107929634D01*
X136629571Y-107894438D01*
X136637246Y-107893161D01*
X136643115Y-107892326D01*
X136680374Y-107887916D01*
X136680381Y-107887914D01*
X136690722Y-107886690D01*
X136698468Y-107882970D01*
X136706942Y-107881560D01*
X136745548Y-107860730D01*
X136749109Y-107858808D01*
X136754396Y-107856115D01*
X136790442Y-107838805D01*
X136790445Y-107838803D01*
X136797590Y-107835372D01*
X136801600Y-107832001D01*
X136803538Y-107830063D01*
X136805189Y-107828548D01*
X136805599Y-107828327D01*
X136805637Y-107828369D01*
X136805820Y-107828208D01*
X136811274Y-107825265D01*
X136820073Y-107815747D01*
X136845531Y-107788206D01*
X136848961Y-107784640D01*
X138550597Y-106083005D01*
X138612909Y-106048979D01*
X138639692Y-106046100D01*
X139284267Y-106046100D01*
X139352388Y-106066102D01*
X139398881Y-106119758D01*
X139408985Y-106190032D01*
X139379491Y-106254612D01*
X139373362Y-106261195D01*
X138666708Y-106967849D01*
X138658188Y-106984572D01*
X138656492Y-106987900D01*
X138646160Y-107004759D01*
X138632930Y-107022968D01*
X138629865Y-107032401D01*
X138629864Y-107032403D01*
X138625972Y-107044380D01*
X138618408Y-107062641D01*
X138608191Y-107082694D01*
X138606640Y-107092487D01*
X138604670Y-107104926D01*
X138600054Y-107124152D01*
X138593100Y-107145554D01*
X138593100Y-112090800D01*
X138573098Y-112158921D01*
X138519442Y-112205414D01*
X138467100Y-112216800D01*
X138408436Y-112216800D01*
X138349020Y-112228619D01*
X138281640Y-112273640D01*
X138274748Y-112283955D01*
X138265969Y-112292734D01*
X138263053Y-112289818D01*
X138226198Y-112320625D01*
X138175898Y-112331100D01*
X138087554Y-112331100D01*
X138078121Y-112334165D01*
X138066152Y-112338054D01*
X138046926Y-112342670D01*
X138024694Y-112346191D01*
X138015861Y-112350692D01*
X138015860Y-112350692D01*
X138004642Y-112356408D01*
X137986380Y-112363972D01*
X137974403Y-112367864D01*
X137974401Y-112367865D01*
X137964968Y-112370930D01*
X137956943Y-112376761D01*
X137946759Y-112384160D01*
X137929904Y-112394490D01*
X137909849Y-112404708D01*
X136957712Y-113356845D01*
X136895400Y-113390871D01*
X136824585Y-113385806D01*
X136763851Y-113337750D01*
X136733254Y-113291957D01*
X136733252Y-113291955D01*
X136726360Y-113281640D01*
X136658980Y-113236619D01*
X136599564Y-113224800D01*
X135924436Y-113224800D01*
X135865020Y-113236619D01*
X135797640Y-113281640D01*
X135752619Y-113349020D01*
X135740800Y-113408436D01*
X135740800Y-114591564D01*
X135752619Y-114650980D01*
X135797640Y-114718360D01*
X135807955Y-114725252D01*
X135807957Y-114725254D01*
X135809126Y-114726035D01*
X135811100Y-114728397D01*
X135816734Y-114734031D01*
X135816230Y-114734535D01*
X135854654Y-114780512D01*
X135863502Y-114850955D01*
X135832861Y-114914999D01*
X135772459Y-114952310D01*
X135739124Y-114956800D01*
X135260876Y-114956800D01*
X135192755Y-114936798D01*
X135146262Y-114883142D01*
X135136158Y-114812868D01*
X135165652Y-114748288D01*
X135190874Y-114726035D01*
X135192043Y-114725254D01*
X135192045Y-114725252D01*
X135202360Y-114718360D01*
X135247381Y-114650980D01*
X135259200Y-114591564D01*
X135259200Y-113408436D01*
X135247381Y-113349020D01*
X135202360Y-113281640D01*
X135134980Y-113236619D01*
X135075564Y-113224800D01*
X134400436Y-113224800D01*
X134341020Y-113236619D01*
X134273640Y-113281640D01*
X134228619Y-113349020D01*
X134216800Y-113408436D01*
X134216800Y-113467100D01*
X134196798Y-113535221D01*
X134143142Y-113581714D01*
X134090800Y-113593100D01*
X133726700Y-113593100D01*
X133658579Y-113573098D01*
X133612086Y-113519442D01*
X133600700Y-113467100D01*
X133600700Y-113281436D01*
X133596037Y-113257993D01*
X133591302Y-113234189D01*
X133591301Y-113234187D01*
X133588881Y-113222020D01*
X133581987Y-113211702D01*
X133579572Y-113205872D01*
X133571982Y-113135283D01*
X133606885Y-113068558D01*
X133833292Y-112842151D01*
X133843510Y-112822096D01*
X133853840Y-112805241D01*
X133861239Y-112795057D01*
X133867070Y-112787032D01*
X133870136Y-112777597D01*
X133874028Y-112765620D01*
X133881592Y-112747358D01*
X133887308Y-112736140D01*
X133887308Y-112736139D01*
X133891809Y-112727306D01*
X133895330Y-112705074D01*
X133899946Y-112685848D01*
X133903835Y-112673879D01*
X133906900Y-112664446D01*
X133906900Y-112518367D01*
X133926902Y-112450246D01*
X133971331Y-112408435D01*
X134156263Y-112304868D01*
X134170853Y-112292734D01*
X134314852Y-112172970D01*
X134319284Y-112169284D01*
X134368101Y-112110588D01*
X134451174Y-112010705D01*
X134451176Y-112010702D01*
X134454868Y-112006263D01*
X134558435Y-111821331D01*
X134609169Y-111771672D01*
X134668367Y-111756900D01*
X134876440Y-111756900D01*
X134944561Y-111776902D01*
X134990866Y-111830148D01*
X135036586Y-111929321D01*
X135158961Y-112102478D01*
X135310842Y-112250435D01*
X135315638Y-112253640D01*
X135315641Y-112253642D01*
X135396535Y-112307693D01*
X135487143Y-112368235D01*
X135492446Y-112370513D01*
X135492449Y-112370515D01*
X135634296Y-112431457D01*
X135681960Y-112451935D01*
X135888767Y-112498731D01*
X135894538Y-112498958D01*
X135894540Y-112498958D01*
X135965521Y-112501747D01*
X136100639Y-112507055D01*
X136190995Y-112493954D01*
X136304759Y-112477460D01*
X136304764Y-112477459D01*
X136310480Y-112476630D01*
X136315952Y-112474772D01*
X136315954Y-112474772D01*
X136446901Y-112430321D01*
X136511263Y-112408473D01*
X136696263Y-112304868D01*
X136710853Y-112292734D01*
X136854852Y-112172970D01*
X136859284Y-112169284D01*
X136908101Y-112110588D01*
X136991174Y-112010705D01*
X136991176Y-112010702D01*
X136994868Y-112006263D01*
X137098473Y-111821263D01*
X137146508Y-111679758D01*
X137164772Y-111625954D01*
X137164772Y-111625952D01*
X137166630Y-111620480D01*
X137167459Y-111614764D01*
X137167460Y-111614759D01*
X137193267Y-111436765D01*
X137197055Y-111410639D01*
X137198643Y-111350000D01*
X137179241Y-111138854D01*
X137121686Y-110934779D01*
X137027906Y-110744611D01*
X137004524Y-110713298D01*
X136904493Y-110579341D01*
X136904492Y-110579340D01*
X136901040Y-110574717D01*
X136896804Y-110570801D01*
X136749577Y-110434706D01*
X136749574Y-110434704D01*
X136745337Y-110430787D01*
X136566013Y-110317642D01*
X136369072Y-110239070D01*
X136363414Y-110237944D01*
X136363412Y-110237944D01*
X136328426Y-110230985D01*
X136265517Y-110198077D01*
X136230386Y-110136381D01*
X136234187Y-110065487D01*
X136275713Y-110007901D01*
X136323596Y-109984887D01*
X136327747Y-109983890D01*
X136526341Y-109916477D01*
X136536844Y-109911801D01*
X136678568Y-109832433D01*
X136688431Y-109822356D01*
X136685476Y-109814686D01*
X136052812Y-109182022D01*
X136038868Y-109174408D01*
X136037035Y-109174539D01*
X136030420Y-109178790D01*
X135400045Y-109809165D01*
X135393849Y-109820512D01*
X135403729Y-109832999D01*
X135458239Y-109869421D01*
X135468344Y-109874908D01*
X135661049Y-109957700D01*
X135671981Y-109961252D01*
X135760732Y-109981334D01*
X135822759Y-110015876D01*
X135856264Y-110078470D01*
X135850610Y-110149241D01*
X135807592Y-110205720D01*
X135754263Y-110228407D01*
X135740121Y-110230837D01*
X135541191Y-110304226D01*
X135536230Y-110307178D01*
X135536229Y-110307178D01*
X135363935Y-110409682D01*
X135363932Y-110409684D01*
X135358967Y-110412638D01*
X135199550Y-110552443D01*
X135195975Y-110556978D01*
X135195974Y-110556979D01*
X135075932Y-110709252D01*
X135068280Y-110718958D01*
X134985777Y-110875770D01*
X134936360Y-110926740D01*
X134874271Y-110943100D01*
X134664141Y-110943100D01*
X134596020Y-110923098D01*
X134551135Y-110872828D01*
X134535945Y-110842024D01*
X134510339Y-110790100D01*
X134490461Y-110749791D01*
X134490458Y-110749787D01*
X134487906Y-110744611D01*
X134464524Y-110713298D01*
X134364493Y-110579341D01*
X134364492Y-110579340D01*
X134361040Y-110574717D01*
X134356804Y-110570801D01*
X134209577Y-110434706D01*
X134209574Y-110434704D01*
X134205337Y-110430787D01*
X134026013Y-110317642D01*
X133829072Y-110239070D01*
X133823414Y-110237944D01*
X133823412Y-110237944D01*
X133788426Y-110230985D01*
X133725517Y-110198077D01*
X133690386Y-110136381D01*
X133694187Y-110065487D01*
X133735713Y-110007901D01*
X133783596Y-109984887D01*
X133787747Y-109983890D01*
X133986341Y-109916477D01*
X133996844Y-109911801D01*
X134138568Y-109832433D01*
X134148431Y-109822356D01*
X134145476Y-109814686D01*
X133512812Y-109182022D01*
X133498868Y-109174408D01*
X133497035Y-109174539D01*
X133490420Y-109178790D01*
X132860045Y-109809165D01*
X132853849Y-109820512D01*
X132863729Y-109832999D01*
X132918239Y-109869421D01*
X132928344Y-109874908D01*
X133121049Y-109957700D01*
X133131981Y-109961252D01*
X133220732Y-109981334D01*
X133282759Y-110015876D01*
X133316264Y-110078470D01*
X133310610Y-110149241D01*
X133267592Y-110205720D01*
X133214263Y-110228407D01*
X133200121Y-110230837D01*
X133001191Y-110304226D01*
X132996230Y-110307178D01*
X132996229Y-110307178D01*
X132823935Y-110409682D01*
X132823932Y-110409684D01*
X132818967Y-110412638D01*
X132659550Y-110552443D01*
X132655975Y-110556978D01*
X132655974Y-110556979D01*
X132535932Y-110709252D01*
X132528280Y-110718958D01*
X132525589Y-110724074D01*
X132525587Y-110724076D01*
X132455655Y-110856995D01*
X132429553Y-110906607D01*
X132366676Y-111109105D01*
X132341754Y-111319670D01*
X132355622Y-111531252D01*
X132407815Y-111736763D01*
X132496586Y-111929321D01*
X132618961Y-112102478D01*
X132770842Y-112250435D01*
X132775642Y-112253642D01*
X132775646Y-112253645D01*
X132944880Y-112366723D01*
X132990408Y-112421199D01*
X132999257Y-112491642D01*
X132963974Y-112560583D01*
X132619208Y-112905349D01*
X132614705Y-112914187D01*
X132608992Y-112925400D01*
X132598660Y-112942259D01*
X132585430Y-112960468D01*
X132582365Y-112969901D01*
X132582364Y-112969903D01*
X132578472Y-112981880D01*
X132570908Y-113000141D01*
X132560691Y-113020194D01*
X132560533Y-113021191D01*
X132523253Y-113075713D01*
X132468074Y-113101751D01*
X132428520Y-113109619D01*
X132361140Y-113154640D01*
X132354248Y-113164955D01*
X132326909Y-113205872D01*
X132316119Y-113222020D01*
X132304300Y-113281436D01*
X132304300Y-114718564D01*
X132316119Y-114777980D01*
X132320924Y-114785172D01*
X132328234Y-114853174D01*
X132296453Y-114916660D01*
X132235395Y-114952887D01*
X132204236Y-114956800D01*
X131851274Y-114956800D01*
X131783153Y-114936798D01*
X131736660Y-114883142D01*
X131726556Y-114812868D01*
X131732632Y-114790724D01*
X131744793Y-114729585D01*
X131746000Y-114717330D01*
X131746000Y-114272115D01*
X131741525Y-114256876D01*
X131740135Y-114255671D01*
X131732452Y-114254000D01*
X130367116Y-114254000D01*
X130351877Y-114258475D01*
X130350672Y-114259865D01*
X130349001Y-114267548D01*
X130349001Y-114717328D01*
X130350209Y-114729588D01*
X130363737Y-114797606D01*
X130361793Y-114797993D01*
X130367723Y-114853177D01*
X130335941Y-114916663D01*
X130274881Y-114952887D01*
X130243726Y-114956800D01*
X129779200Y-114956800D01*
X129711079Y-114936798D01*
X129664586Y-114883142D01*
X129653200Y-114830800D01*
X129653200Y-113727885D01*
X130349000Y-113727885D01*
X130353475Y-113743124D01*
X130354865Y-113744329D01*
X130362548Y-113746000D01*
X130775385Y-113746000D01*
X130790624Y-113741525D01*
X130791829Y-113740135D01*
X130793500Y-113732452D01*
X130793500Y-113727885D01*
X131301500Y-113727885D01*
X131305975Y-113743124D01*
X131307365Y-113744329D01*
X131315048Y-113746000D01*
X131727884Y-113746000D01*
X131743123Y-113741525D01*
X131744328Y-113740135D01*
X131745999Y-113732452D01*
X131745999Y-113282672D01*
X131744791Y-113270412D01*
X131733685Y-113214569D01*
X131724367Y-113192073D01*
X131682017Y-113128692D01*
X131664808Y-113111483D01*
X131601425Y-113069132D01*
X131578934Y-113059816D01*
X131523085Y-113048707D01*
X131510830Y-113047500D01*
X131319615Y-113047500D01*
X131304376Y-113051975D01*
X131303171Y-113053365D01*
X131301500Y-113061048D01*
X131301500Y-113727885D01*
X130793500Y-113727885D01*
X130793500Y-113065616D01*
X130789025Y-113050377D01*
X130787635Y-113049172D01*
X130779952Y-113047501D01*
X130584172Y-113047501D01*
X130571912Y-113048709D01*
X130516069Y-113059815D01*
X130493573Y-113069133D01*
X130430192Y-113111483D01*
X130412983Y-113128692D01*
X130370632Y-113192075D01*
X130361316Y-113214566D01*
X130350207Y-113270415D01*
X130349000Y-113282670D01*
X130349000Y-113727885D01*
X129653200Y-113727885D01*
X129653200Y-95169200D01*
X129673202Y-95101079D01*
X129726858Y-95054586D01*
X129779200Y-95043200D01*
X167220800Y-95043200D01*
X167288921Y-95063202D01*
G37*
%TD.AperFunction*%
%TA.AperFunction,Conductor*%
G36*
X145814230Y-102836102D02*
G01*
X145860723Y-102889758D01*
X145870827Y-102960032D01*
X145841333Y-103024612D01*
X145835204Y-103031195D01*
X145284567Y-103581832D01*
X145268878Y-103594504D01*
X145265778Y-103597324D01*
X145257026Y-103602975D01*
X145250579Y-103611153D01*
X145250578Y-103611154D01*
X145237797Y-103627367D01*
X145234216Y-103631397D01*
X145234314Y-103631480D01*
X145230961Y-103635437D01*
X145227280Y-103639118D01*
X145224256Y-103643350D01*
X145224254Y-103643352D01*
X145216851Y-103653711D01*
X145213288Y-103658456D01*
X145190080Y-103687895D01*
X145190079Y-103687897D01*
X145183632Y-103696075D01*
X145180786Y-103704180D01*
X145175790Y-103711171D01*
X145162151Y-103756776D01*
X145162066Y-103757062D01*
X145160232Y-103762707D01*
X145146979Y-103800447D01*
X145144352Y-103807929D01*
X145143900Y-103813148D01*
X145143900Y-103815859D01*
X145143802Y-103818136D01*
X145143667Y-103818585D01*
X145143613Y-103818583D01*
X145143598Y-103818816D01*
X145141823Y-103824752D01*
X145142232Y-103835156D01*
X145143803Y-103875150D01*
X145143900Y-103880096D01*
X145143900Y-107958572D01*
X145141766Y-107978621D01*
X145141568Y-107982811D01*
X145139376Y-107992993D01*
X145140600Y-108003334D01*
X145143027Y-108023840D01*
X145143344Y-108029215D01*
X145143472Y-108029204D01*
X145143900Y-108034382D01*
X145143900Y-108039584D01*
X145144754Y-108044714D01*
X145146839Y-108057243D01*
X145147674Y-108063115D01*
X145152084Y-108100374D01*
X145152086Y-108100381D01*
X145153310Y-108110722D01*
X145157030Y-108118468D01*
X145158440Y-108126942D01*
X145169213Y-108146907D01*
X145181192Y-108169109D01*
X145183885Y-108174396D01*
X145201195Y-108210442D01*
X145201197Y-108210445D01*
X145204628Y-108217590D01*
X145207999Y-108221600D01*
X145209937Y-108223538D01*
X145211452Y-108225189D01*
X145211673Y-108225599D01*
X145211631Y-108225637D01*
X145211792Y-108225820D01*
X145214735Y-108231274D01*
X145222382Y-108238342D01*
X145222382Y-108238343D01*
X145251794Y-108265531D01*
X145255360Y-108268961D01*
X146011832Y-109025433D01*
X146024504Y-109041122D01*
X146027324Y-109044222D01*
X146032975Y-109052974D01*
X146041153Y-109059421D01*
X146041154Y-109059422D01*
X146057367Y-109072203D01*
X146061397Y-109075784D01*
X146061480Y-109075686D01*
X146065437Y-109079039D01*
X146069118Y-109082720D01*
X146073350Y-109085744D01*
X146073352Y-109085746D01*
X146083711Y-109093149D01*
X146088456Y-109096712D01*
X146117895Y-109119920D01*
X146117897Y-109119921D01*
X146126075Y-109126368D01*
X146134180Y-109129214D01*
X146141171Y-109134210D01*
X146178355Y-109145330D01*
X146187062Y-109147934D01*
X146192707Y-109149768D01*
X146230447Y-109163021D01*
X146230450Y-109163022D01*
X146237929Y-109165648D01*
X146243148Y-109166100D01*
X146245859Y-109166100D01*
X146248136Y-109166198D01*
X146248585Y-109166333D01*
X146248583Y-109166387D01*
X146248816Y-109166402D01*
X146254752Y-109168177D01*
X146305150Y-109166197D01*
X146310096Y-109166100D01*
X146490113Y-109166100D01*
X146558234Y-109186102D01*
X146577439Y-109201579D01*
X146583640Y-109210860D01*
X146651020Y-109255881D01*
X146710436Y-109267700D01*
X147893564Y-109267700D01*
X147952980Y-109255881D01*
X148020360Y-109210860D01*
X148048480Y-109168775D01*
X148058487Y-109153798D01*
X148058487Y-109153797D01*
X148065381Y-109143480D01*
X148077200Y-109084064D01*
X148077200Y-108535936D01*
X148065381Y-108476520D01*
X148020360Y-108409140D01*
X147952980Y-108364119D01*
X147893564Y-108352300D01*
X146710436Y-108352300D01*
X146651020Y-108364119D01*
X146583640Y-108409140D01*
X146580210Y-108414273D01*
X146521686Y-108446231D01*
X146450871Y-108441166D01*
X146405808Y-108412205D01*
X145893005Y-107899402D01*
X145858979Y-107837090D01*
X145856504Y-107814064D01*
X146526800Y-107814064D01*
X146538619Y-107873480D01*
X146545513Y-107883797D01*
X146545513Y-107883798D01*
X146556303Y-107899946D01*
X146583640Y-107940860D01*
X146651020Y-107985881D01*
X146710436Y-107997700D01*
X147893564Y-107997700D01*
X147952980Y-107985881D01*
X148020360Y-107940860D01*
X148047697Y-107899946D01*
X148058487Y-107883798D01*
X148058487Y-107883797D01*
X148065381Y-107873480D01*
X148077200Y-107814064D01*
X148077200Y-107265936D01*
X148065381Y-107206520D01*
X148020360Y-107139140D01*
X147972809Y-107107368D01*
X147963298Y-107101013D01*
X147963297Y-107101013D01*
X147952980Y-107094119D01*
X147893564Y-107082300D01*
X146710436Y-107082300D01*
X146651020Y-107094119D01*
X146640703Y-107101013D01*
X146640702Y-107101013D01*
X146631191Y-107107368D01*
X146583640Y-107139140D01*
X146538619Y-107206520D01*
X146526800Y-107265936D01*
X146526800Y-107814064D01*
X145856504Y-107814064D01*
X145856100Y-107810307D01*
X145856100Y-106544064D01*
X146526800Y-106544064D01*
X146538619Y-106603480D01*
X146583640Y-106670860D01*
X146651020Y-106715881D01*
X146710436Y-106727700D01*
X147893564Y-106727700D01*
X147952980Y-106715881D01*
X148020360Y-106670860D01*
X148065381Y-106603480D01*
X148077200Y-106544064D01*
X148077200Y-105995936D01*
X148065381Y-105936520D01*
X148020360Y-105869140D01*
X147952980Y-105824119D01*
X147893564Y-105812300D01*
X146710436Y-105812300D01*
X146651020Y-105824119D01*
X146583640Y-105869140D01*
X146538619Y-105936520D01*
X146526800Y-105995936D01*
X146526800Y-106544064D01*
X145856100Y-106544064D01*
X145856100Y-104069691D01*
X145876102Y-104001570D01*
X145893005Y-103980596D01*
X146311705Y-103561896D01*
X146374017Y-103527870D01*
X146444832Y-103532935D01*
X146501668Y-103575482D01*
X146526479Y-103642002D01*
X146526800Y-103650991D01*
X146526800Y-104004064D01*
X146538619Y-104063480D01*
X146583640Y-104130860D01*
X146602966Y-104143773D01*
X146629195Y-104161298D01*
X146651020Y-104175881D01*
X146710436Y-104187700D01*
X147893564Y-104187700D01*
X147952980Y-104175881D01*
X147963298Y-104168987D01*
X147979541Y-104158134D01*
X148049542Y-104136900D01*
X148884446Y-104136900D01*
X148905848Y-104129946D01*
X148925074Y-104125330D01*
X148937513Y-104123360D01*
X148947306Y-104121809D01*
X148957210Y-104116763D01*
X148967358Y-104111592D01*
X148985620Y-104104028D01*
X148997597Y-104100136D01*
X148997599Y-104100135D01*
X149007032Y-104097070D01*
X149025241Y-104083840D01*
X149042096Y-104073510D01*
X149062151Y-104063292D01*
X149181638Y-103943805D01*
X149243950Y-103909779D01*
X149270733Y-103906900D01*
X150590800Y-103906900D01*
X150658921Y-103926902D01*
X150705414Y-103980558D01*
X150716800Y-104032900D01*
X150716800Y-104091564D01*
X150728619Y-104150980D01*
X150773640Y-104218360D01*
X150841020Y-104263381D01*
X150841956Y-104263567D01*
X150891062Y-104303138D01*
X150913484Y-104370502D01*
X150895926Y-104439293D01*
X150846203Y-104485588D01*
X150841020Y-104486619D01*
X150773640Y-104531640D01*
X150728619Y-104599020D01*
X150716800Y-104658436D01*
X150716800Y-104717100D01*
X150696798Y-104785221D01*
X150643142Y-104831714D01*
X150590800Y-104843100D01*
X149250735Y-104843100D01*
X149182614Y-104823098D01*
X149161640Y-104806196D01*
X149045077Y-104689634D01*
X149022151Y-104666708D01*
X149002096Y-104656490D01*
X148985241Y-104646160D01*
X148975057Y-104638761D01*
X148967032Y-104632930D01*
X148957599Y-104629865D01*
X148957597Y-104629864D01*
X148945620Y-104625972D01*
X148927358Y-104618408D01*
X148916140Y-104612692D01*
X148916139Y-104612692D01*
X148907306Y-104608191D01*
X148885074Y-104604670D01*
X148865848Y-104600054D01*
X148853879Y-104596165D01*
X148844446Y-104593100D01*
X148049542Y-104593100D01*
X147979541Y-104571866D01*
X147963298Y-104561013D01*
X147963297Y-104561013D01*
X147952980Y-104554119D01*
X147893564Y-104542300D01*
X146710436Y-104542300D01*
X146651020Y-104554119D01*
X146583640Y-104599140D01*
X146538619Y-104666520D01*
X146526800Y-104725936D01*
X146526800Y-105274064D01*
X146538619Y-105333480D01*
X146545513Y-105343797D01*
X146545513Y-105343798D01*
X146550183Y-105350787D01*
X146583640Y-105400860D01*
X146651020Y-105445881D01*
X146710436Y-105457700D01*
X147893564Y-105457700D01*
X147952980Y-105445881D01*
X147979540Y-105428134D01*
X148049542Y-105406900D01*
X148559266Y-105406900D01*
X148627387Y-105426902D01*
X148648361Y-105443804D01*
X148707042Y-105502486D01*
X148764921Y-105560365D01*
X148764936Y-105560379D01*
X148787849Y-105583292D01*
X148807907Y-105593512D01*
X148824759Y-105603840D01*
X148842968Y-105617069D01*
X148864368Y-105624022D01*
X148882633Y-105631587D01*
X148902694Y-105641809D01*
X148912485Y-105643360D01*
X148912489Y-105643361D01*
X148924937Y-105645333D01*
X148944157Y-105649947D01*
X148965553Y-105656899D01*
X148997972Y-105656899D01*
X148997976Y-105656900D01*
X150590800Y-105656900D01*
X150658921Y-105676902D01*
X150705414Y-105730558D01*
X150716800Y-105782900D01*
X150716800Y-105841564D01*
X150728619Y-105900980D01*
X150735513Y-105911297D01*
X150735513Y-105911298D01*
X150745471Y-105926202D01*
X150773640Y-105968360D01*
X150841020Y-106013381D01*
X150900436Y-106025200D01*
X151467100Y-106025200D01*
X151535221Y-106045202D01*
X151581714Y-106098858D01*
X151593100Y-106151200D01*
X151593100Y-108267900D01*
X151573098Y-108336021D01*
X151519442Y-108382514D01*
X151467100Y-108393900D01*
X151159200Y-108393900D01*
X151091079Y-108373898D01*
X151044586Y-108320242D01*
X151033200Y-108267900D01*
X151033200Y-108158436D01*
X151021381Y-108099020D01*
X150976360Y-108031640D01*
X150908980Y-107986619D01*
X150849564Y-107974800D01*
X150174436Y-107974800D01*
X150115020Y-107986619D01*
X150047640Y-108031640D01*
X150002619Y-108099020D01*
X149990800Y-108158436D01*
X149990800Y-109341564D01*
X150002619Y-109400980D01*
X150047640Y-109468360D01*
X150115020Y-109513381D01*
X150174436Y-109525200D01*
X150849564Y-109525200D01*
X150908980Y-109513381D01*
X150976360Y-109468360D01*
X151021381Y-109400980D01*
X151033200Y-109341564D01*
X151033200Y-109232100D01*
X151053202Y-109163979D01*
X151106858Y-109117486D01*
X151159200Y-109106100D01*
X151467100Y-109106100D01*
X151535221Y-109126102D01*
X151581714Y-109179758D01*
X151593100Y-109232100D01*
X151593100Y-110661108D01*
X151573098Y-110729229D01*
X151556195Y-110750203D01*
X150025751Y-112280647D01*
X149963439Y-112314673D01*
X149892624Y-112309608D01*
X149835788Y-112267061D01*
X149810977Y-112200541D01*
X149813077Y-112166970D01*
X149824293Y-112110583D01*
X149825500Y-112098330D01*
X149825500Y-112034115D01*
X149821025Y-112018876D01*
X149819635Y-112017671D01*
X149811952Y-112016000D01*
X148192616Y-112016000D01*
X148177377Y-112020475D01*
X148176172Y-112021865D01*
X148174501Y-112029548D01*
X148174501Y-112098328D01*
X148175709Y-112110588D01*
X148186815Y-112166431D01*
X148196134Y-112188929D01*
X148202128Y-112197900D01*
X148223342Y-112265653D01*
X148204558Y-112334120D01*
X148151740Y-112381562D01*
X148097362Y-112393900D01*
X147350027Y-112393900D01*
X147281906Y-112373898D01*
X147245261Y-112337901D01*
X147229741Y-112314673D01*
X147218360Y-112297640D01*
X147182441Y-112273640D01*
X147161298Y-112259513D01*
X147161297Y-112259513D01*
X147150980Y-112252619D01*
X147091564Y-112240800D01*
X145908436Y-112240800D01*
X145849020Y-112252619D01*
X145838703Y-112259513D01*
X145838702Y-112259513D01*
X145817559Y-112273640D01*
X145781640Y-112297640D01*
X145770259Y-112314673D01*
X145754739Y-112337901D01*
X145700262Y-112383429D01*
X145649973Y-112393900D01*
X145481255Y-112393900D01*
X145413134Y-112373898D01*
X145366641Y-112320242D01*
X145356537Y-112249968D01*
X145386031Y-112185388D01*
X145445757Y-112147004D01*
X145456673Y-112144321D01*
X145464309Y-112142802D01*
X145476480Y-112140381D01*
X145543860Y-112095360D01*
X145588881Y-112027980D01*
X145600700Y-111968564D01*
X145600700Y-111817189D01*
X145620702Y-111749068D01*
X145674358Y-111702575D01*
X145744632Y-111692471D01*
X145796700Y-111712423D01*
X145849020Y-111747381D01*
X145908436Y-111759200D01*
X147091564Y-111759200D01*
X147150980Y-111747381D01*
X147175253Y-111731163D01*
X147208045Y-111709252D01*
X147218360Y-111702360D01*
X147263381Y-111634980D01*
X147275200Y-111575564D01*
X147275200Y-111489885D01*
X148174500Y-111489885D01*
X148178975Y-111505124D01*
X148180365Y-111506329D01*
X148188048Y-111508000D01*
X148727885Y-111508000D01*
X148743124Y-111503525D01*
X148744329Y-111502135D01*
X148746000Y-111494452D01*
X148746000Y-111489885D01*
X149254000Y-111489885D01*
X149258475Y-111505124D01*
X149259865Y-111506329D01*
X149267548Y-111508000D01*
X149807384Y-111508000D01*
X149822623Y-111503525D01*
X149823828Y-111502135D01*
X149825499Y-111494452D01*
X149825499Y-111425672D01*
X149824291Y-111413412D01*
X149813185Y-111357569D01*
X149803867Y-111335073D01*
X149761517Y-111271692D01*
X149744308Y-111254483D01*
X149680925Y-111212132D01*
X149658434Y-111202816D01*
X149602585Y-111191707D01*
X149590330Y-111190500D01*
X149272115Y-111190500D01*
X149256876Y-111194975D01*
X149255671Y-111196365D01*
X149254000Y-111204048D01*
X149254000Y-111489885D01*
X148746000Y-111489885D01*
X148746000Y-111208616D01*
X148741525Y-111193377D01*
X148740135Y-111192172D01*
X148732452Y-111190501D01*
X148409672Y-111190501D01*
X148397412Y-111191709D01*
X148341569Y-111202815D01*
X148319073Y-111212133D01*
X148255692Y-111254483D01*
X148238483Y-111271692D01*
X148196132Y-111335075D01*
X148186816Y-111357566D01*
X148175707Y-111413415D01*
X148174500Y-111425670D01*
X148174500Y-111489885D01*
X147275200Y-111489885D01*
X147275200Y-110900436D01*
X147263381Y-110841020D01*
X147256488Y-110830703D01*
X147256486Y-110830699D01*
X147229359Y-110790100D01*
X147208145Y-110722347D01*
X147226929Y-110653881D01*
X147279747Y-110606438D01*
X147334125Y-110594100D01*
X148141955Y-110594100D01*
X148210076Y-110614102D01*
X148246721Y-110650099D01*
X148281640Y-110702360D01*
X148349020Y-110747381D01*
X148408436Y-110759200D01*
X149591564Y-110759200D01*
X149650980Y-110747381D01*
X149718360Y-110702360D01*
X149763381Y-110634980D01*
X149775200Y-110575564D01*
X149775200Y-109900436D01*
X149763381Y-109841020D01*
X149718360Y-109773640D01*
X149650980Y-109728619D01*
X149591564Y-109716800D01*
X149495909Y-109716800D01*
X149427788Y-109696798D01*
X149381295Y-109643142D01*
X149371191Y-109572868D01*
X149400685Y-109508288D01*
X149425909Y-109486034D01*
X149442043Y-109475254D01*
X149442045Y-109475252D01*
X149452360Y-109468360D01*
X149497381Y-109400980D01*
X149509200Y-109341564D01*
X149509200Y-108158436D01*
X149497381Y-108099020D01*
X149452360Y-108031640D01*
X149384980Y-107986619D01*
X149325564Y-107974800D01*
X148650436Y-107974800D01*
X148591020Y-107986619D01*
X148523640Y-108031640D01*
X148478619Y-108099020D01*
X148466800Y-108158436D01*
X148466800Y-109341564D01*
X148478619Y-109400980D01*
X148523640Y-109468360D01*
X148533955Y-109475252D01*
X148533957Y-109475254D01*
X148550091Y-109486034D01*
X148595620Y-109540510D01*
X148604469Y-109610953D01*
X148573829Y-109674997D01*
X148513428Y-109712310D01*
X148480091Y-109716800D01*
X148408436Y-109716800D01*
X148349020Y-109728619D01*
X148281640Y-109773640D01*
X148250322Y-109820512D01*
X148246721Y-109825901D01*
X148192244Y-109871429D01*
X148141955Y-109881900D01*
X146477692Y-109881900D01*
X146409571Y-109861898D01*
X146388597Y-109844995D01*
X144393005Y-107849403D01*
X144358979Y-107787091D01*
X144356100Y-107760308D01*
X144356100Y-102942100D01*
X144376102Y-102873979D01*
X144429758Y-102827486D01*
X144482100Y-102816100D01*
X145746109Y-102816100D01*
X145814230Y-102836102D01*
G37*
%TD.AperFunction*%
%TA.AperFunction,Conductor*%
G36*
X141935712Y-102513645D02*
G01*
X141942295Y-102519774D01*
X142097954Y-102675433D01*
X142110631Y-102691129D01*
X142113448Y-102694225D01*
X142119097Y-102702974D01*
X142127275Y-102709421D01*
X142143494Y-102722207D01*
X142147521Y-102725785D01*
X142147604Y-102725687D01*
X142151563Y-102729042D01*
X142155241Y-102732720D01*
X142159465Y-102735739D01*
X142159475Y-102735747D01*
X142169816Y-102743136D01*
X142174560Y-102746697D01*
X142212197Y-102776368D01*
X142220302Y-102779214D01*
X142227293Y-102784210D01*
X142268212Y-102796447D01*
X142273184Y-102797934D01*
X142278829Y-102799768D01*
X142316569Y-102813021D01*
X142316572Y-102813022D01*
X142324051Y-102815648D01*
X142329270Y-102816100D01*
X142331981Y-102816100D01*
X142334258Y-102816198D01*
X142334707Y-102816333D01*
X142334705Y-102816387D01*
X142334938Y-102816402D01*
X142340874Y-102818177D01*
X142391272Y-102816197D01*
X142396218Y-102816100D01*
X143517900Y-102816100D01*
X143586021Y-102836102D01*
X143632514Y-102889758D01*
X143643900Y-102942100D01*
X143643900Y-107908572D01*
X143641766Y-107928621D01*
X143641568Y-107932811D01*
X143639376Y-107942993D01*
X143640600Y-107953334D01*
X143643027Y-107973840D01*
X143643344Y-107979215D01*
X143643472Y-107979204D01*
X143643900Y-107984382D01*
X143643900Y-107989584D01*
X143644754Y-107994714D01*
X143646839Y-108007243D01*
X143647674Y-108013115D01*
X143652084Y-108050374D01*
X143652086Y-108050381D01*
X143653310Y-108060722D01*
X143657030Y-108068468D01*
X143658440Y-108076942D01*
X143679270Y-108115548D01*
X143681192Y-108119109D01*
X143683885Y-108124396D01*
X143701195Y-108160442D01*
X143701197Y-108160445D01*
X143704628Y-108167590D01*
X143707999Y-108171600D01*
X143709937Y-108173538D01*
X143711452Y-108175189D01*
X143711673Y-108175599D01*
X143711631Y-108175637D01*
X143711792Y-108175820D01*
X143714735Y-108181274D01*
X143722382Y-108188342D01*
X143722382Y-108188343D01*
X143751795Y-108215532D01*
X143755361Y-108218962D01*
X145989832Y-110453433D01*
X146002509Y-110469129D01*
X146005326Y-110472225D01*
X146010975Y-110480974D01*
X146019153Y-110487421D01*
X146024771Y-110491850D01*
X146065884Y-110549732D01*
X146069178Y-110620652D01*
X146033606Y-110682094D01*
X145970463Y-110714551D01*
X145946765Y-110716800D01*
X145908436Y-110716800D01*
X145849020Y-110728619D01*
X145803252Y-110759200D01*
X145796701Y-110763577D01*
X145728948Y-110784791D01*
X145660481Y-110766008D01*
X145613039Y-110713190D01*
X145600700Y-110658811D01*
X145600700Y-110531436D01*
X145588881Y-110472020D01*
X145543860Y-110404640D01*
X145476480Y-110359619D01*
X145417064Y-110347800D01*
X144487936Y-110347800D01*
X144428520Y-110359619D01*
X144361140Y-110404640D01*
X144316119Y-110472020D01*
X144304300Y-110531436D01*
X144304300Y-111968564D01*
X144316119Y-112027980D01*
X144361140Y-112095360D01*
X144428520Y-112140381D01*
X144440691Y-112142802D01*
X144448327Y-112144321D01*
X144511237Y-112177229D01*
X144546368Y-112238924D01*
X144542568Y-112309819D01*
X144501042Y-112367405D01*
X144434975Y-112393399D01*
X144423745Y-112393900D01*
X143576255Y-112393900D01*
X143508134Y-112373898D01*
X143461641Y-112320242D01*
X143451537Y-112249968D01*
X143481031Y-112185388D01*
X143540757Y-112147004D01*
X143551673Y-112144321D01*
X143559309Y-112142802D01*
X143571480Y-112140381D01*
X143638860Y-112095360D01*
X143683881Y-112027980D01*
X143695700Y-111968564D01*
X143695700Y-110531436D01*
X143683881Y-110472020D01*
X143638860Y-110404640D01*
X143571480Y-110359619D01*
X143512064Y-110347800D01*
X142582936Y-110347800D01*
X142523520Y-110359619D01*
X142456140Y-110404640D01*
X142411119Y-110472020D01*
X142399300Y-110531436D01*
X142399300Y-110767900D01*
X142379298Y-110836021D01*
X142325642Y-110882514D01*
X142273300Y-110893900D01*
X142109692Y-110893900D01*
X142041571Y-110873898D01*
X142020596Y-110856995D01*
X141345004Y-110181402D01*
X141310979Y-110119090D01*
X141308100Y-110092307D01*
X141308100Y-109393700D01*
X141328102Y-109325579D01*
X141381758Y-109279086D01*
X141434100Y-109267700D01*
X141543564Y-109267700D01*
X141602980Y-109255881D01*
X141670360Y-109210860D01*
X141698480Y-109168775D01*
X141708487Y-109153798D01*
X141708487Y-109153797D01*
X141715381Y-109143480D01*
X141727200Y-109084064D01*
X141727200Y-108535936D01*
X141715381Y-108476520D01*
X141670360Y-108409140D01*
X141602980Y-108364119D01*
X141543564Y-108352300D01*
X140360436Y-108352300D01*
X140301020Y-108364119D01*
X140233640Y-108409140D01*
X140188619Y-108476520D01*
X140176800Y-108535936D01*
X140176800Y-109084064D01*
X140188619Y-109143480D01*
X140195513Y-109153797D01*
X140195513Y-109153798D01*
X140205520Y-109168775D01*
X140233640Y-109210860D01*
X140301020Y-109255881D01*
X140360436Y-109267700D01*
X140469900Y-109267700D01*
X140538021Y-109287702D01*
X140584514Y-109341358D01*
X140595900Y-109393700D01*
X140595900Y-110240572D01*
X140593766Y-110260621D01*
X140593568Y-110264811D01*
X140591376Y-110274993D01*
X140592600Y-110285334D01*
X140595027Y-110305840D01*
X140595344Y-110311215D01*
X140595472Y-110311204D01*
X140595900Y-110316382D01*
X140595900Y-110321584D01*
X140596754Y-110326714D01*
X140598839Y-110339243D01*
X140599674Y-110345115D01*
X140604084Y-110382374D01*
X140604086Y-110382381D01*
X140605310Y-110392722D01*
X140609030Y-110400468D01*
X140610440Y-110408942D01*
X140622227Y-110430787D01*
X140633192Y-110451109D01*
X140635885Y-110456396D01*
X140653195Y-110492442D01*
X140653197Y-110492445D01*
X140656628Y-110499590D01*
X140659999Y-110503600D01*
X140661937Y-110505538D01*
X140663452Y-110507189D01*
X140663673Y-110507599D01*
X140663631Y-110507637D01*
X140663792Y-110507820D01*
X140666735Y-110513274D01*
X140674382Y-110520342D01*
X140674382Y-110520343D01*
X140703795Y-110547532D01*
X140707361Y-110550962D01*
X141621832Y-111465433D01*
X141634509Y-111481129D01*
X141637326Y-111484225D01*
X141642975Y-111492974D01*
X141651153Y-111499421D01*
X141667372Y-111512207D01*
X141671399Y-111515785D01*
X141671482Y-111515687D01*
X141675441Y-111519042D01*
X141679119Y-111522720D01*
X141683343Y-111525739D01*
X141683353Y-111525747D01*
X141693694Y-111533136D01*
X141698438Y-111536697D01*
X141736075Y-111566368D01*
X141744180Y-111569214D01*
X141751171Y-111574210D01*
X141775986Y-111581631D01*
X141797062Y-111587934D01*
X141802707Y-111589768D01*
X141840447Y-111603021D01*
X141840450Y-111603022D01*
X141847929Y-111605648D01*
X141853148Y-111606100D01*
X141855859Y-111606100D01*
X141858136Y-111606198D01*
X141858585Y-111606333D01*
X141858583Y-111606387D01*
X141858816Y-111606402D01*
X141864752Y-111608177D01*
X141915150Y-111606197D01*
X141920096Y-111606100D01*
X142273300Y-111606100D01*
X142341421Y-111626102D01*
X142387914Y-111679758D01*
X142399300Y-111732100D01*
X142399300Y-111968564D01*
X142411119Y-112027980D01*
X142456140Y-112095360D01*
X142523520Y-112140381D01*
X142535691Y-112142802D01*
X142543327Y-112144321D01*
X142606237Y-112177229D01*
X142641368Y-112238924D01*
X142637568Y-112309819D01*
X142596042Y-112367405D01*
X142529975Y-112393399D01*
X142518745Y-112393900D01*
X139866063Y-112393900D01*
X139797942Y-112373898D01*
X139761297Y-112337901D01*
X139729791Y-112290748D01*
X139718360Y-112273640D01*
X139650980Y-112228619D01*
X139591564Y-112216800D01*
X139532900Y-112216800D01*
X139464779Y-112196798D01*
X139418286Y-112143142D01*
X139406900Y-112090800D01*
X139406900Y-107430733D01*
X139426902Y-107362612D01*
X139443805Y-107341638D01*
X140071638Y-106713805D01*
X140133950Y-106679779D01*
X140160733Y-106676900D01*
X140204458Y-106676900D01*
X140274460Y-106698134D01*
X140301020Y-106715881D01*
X140360436Y-106727700D01*
X141543564Y-106727700D01*
X141546605Y-106727095D01*
X141615303Y-106740123D01*
X141666831Y-106788963D01*
X141683900Y-106852288D01*
X141683900Y-106957712D01*
X141663898Y-107025833D01*
X141610242Y-107072326D01*
X141546671Y-107082918D01*
X141543564Y-107082300D01*
X140360436Y-107082300D01*
X140301020Y-107094119D01*
X140290703Y-107101013D01*
X140290702Y-107101013D01*
X140281191Y-107107368D01*
X140233640Y-107139140D01*
X140188619Y-107206520D01*
X140176800Y-107265936D01*
X140176800Y-107814064D01*
X140188619Y-107873480D01*
X140195513Y-107883797D01*
X140195513Y-107883798D01*
X140206303Y-107899946D01*
X140233640Y-107940860D01*
X140301020Y-107985881D01*
X140360436Y-107997700D01*
X141543564Y-107997700D01*
X141602980Y-107985881D01*
X141670360Y-107940860D01*
X141675772Y-107932760D01*
X141736465Y-107899618D01*
X141748441Y-107897612D01*
X141753848Y-107896972D01*
X141759215Y-107896656D01*
X141759204Y-107896528D01*
X141764382Y-107896100D01*
X141769584Y-107896100D01*
X141780919Y-107894213D01*
X141787243Y-107893161D01*
X141793115Y-107892326D01*
X141830374Y-107887916D01*
X141830381Y-107887914D01*
X141840722Y-107886690D01*
X141848468Y-107882970D01*
X141856942Y-107881560D01*
X141895548Y-107860730D01*
X141899109Y-107858808D01*
X141904396Y-107856115D01*
X141940442Y-107838805D01*
X141940445Y-107838803D01*
X141947590Y-107835372D01*
X141951600Y-107832001D01*
X141953538Y-107830063D01*
X141955189Y-107828548D01*
X141955599Y-107828327D01*
X141955637Y-107828369D01*
X141955820Y-107828208D01*
X141961274Y-107825265D01*
X141970073Y-107815747D01*
X141995518Y-107788220D01*
X141998948Y-107784653D01*
X142255436Y-107528166D01*
X142271129Y-107515492D01*
X142274227Y-107512673D01*
X142282974Y-107507025D01*
X142302203Y-107482633D01*
X142305784Y-107478603D01*
X142305686Y-107478520D01*
X142309039Y-107474563D01*
X142312720Y-107470882D01*
X142323149Y-107456289D01*
X142326712Y-107451544D01*
X142349920Y-107422105D01*
X142349921Y-107422103D01*
X142356368Y-107413925D01*
X142359214Y-107405820D01*
X142364210Y-107398829D01*
X142375041Y-107362612D01*
X142377937Y-107352929D01*
X142379771Y-107347285D01*
X142393021Y-107309553D01*
X142393022Y-107309550D01*
X142395648Y-107302071D01*
X142396100Y-107296852D01*
X142396100Y-107294141D01*
X142396198Y-107291865D01*
X142396333Y-107291415D01*
X142396387Y-107291417D01*
X142396402Y-107291186D01*
X142398177Y-107285249D01*
X142396197Y-107234851D01*
X142396100Y-107229905D01*
X142396100Y-106131427D01*
X142398234Y-106111378D01*
X142398432Y-106107188D01*
X142400624Y-106097006D01*
X142396973Y-106066160D01*
X142396656Y-106060783D01*
X142396528Y-106060794D01*
X142396100Y-106055616D01*
X142396100Y-106050416D01*
X142395232Y-106045202D01*
X142393158Y-106032739D01*
X142392321Y-106026861D01*
X142389726Y-106004936D01*
X142386689Y-105979277D01*
X142382971Y-105971534D01*
X142381560Y-105963058D01*
X142372097Y-105945520D01*
X142358806Y-105920886D01*
X142356113Y-105915600D01*
X142338805Y-105879558D01*
X142338803Y-105879555D01*
X142335372Y-105872410D01*
X142332001Y-105868400D01*
X142330063Y-105866462D01*
X142328548Y-105864811D01*
X142328327Y-105864401D01*
X142328369Y-105864363D01*
X142328208Y-105864180D01*
X142325265Y-105858726D01*
X142313263Y-105847631D01*
X142288220Y-105824482D01*
X142284653Y-105821052D01*
X141938166Y-105474564D01*
X141925492Y-105458871D01*
X141922673Y-105455773D01*
X141917025Y-105447026D01*
X141892633Y-105427797D01*
X141888603Y-105424216D01*
X141888520Y-105424314D01*
X141884563Y-105420961D01*
X141880882Y-105417280D01*
X141876648Y-105414254D01*
X141866289Y-105406851D01*
X141861568Y-105403307D01*
X141825493Y-105374868D01*
X141784381Y-105316990D01*
X141777500Y-105275920D01*
X141777500Y-105272115D01*
X141773025Y-105256876D01*
X141771635Y-105255671D01*
X141763952Y-105254000D01*
X140144616Y-105254000D01*
X140129377Y-105258475D01*
X140107112Y-105284170D01*
X140106783Y-105283885D01*
X140099623Y-105296997D01*
X140037310Y-105331021D01*
X140010529Y-105333900D01*
X138491428Y-105333900D01*
X138471379Y-105331766D01*
X138467189Y-105331568D01*
X138457007Y-105329376D01*
X138446666Y-105330600D01*
X138426162Y-105333027D01*
X138420785Y-105333344D01*
X138420796Y-105333472D01*
X138415620Y-105333900D01*
X138410416Y-105333900D01*
X138399048Y-105335792D01*
X138392750Y-105336840D01*
X138386875Y-105337676D01*
X138349624Y-105342085D01*
X138349616Y-105342087D01*
X138339278Y-105343311D01*
X138331535Y-105347029D01*
X138323058Y-105348440D01*
X138280855Y-105371212D01*
X138275610Y-105373884D01*
X138232410Y-105394628D01*
X138228400Y-105397999D01*
X138226462Y-105399937D01*
X138224810Y-105401452D01*
X138224401Y-105401673D01*
X138224363Y-105401631D01*
X138224180Y-105401792D01*
X138218726Y-105404735D01*
X138211658Y-105412382D01*
X138211657Y-105412382D01*
X138184469Y-105441794D01*
X138181039Y-105445360D01*
X137401900Y-106224499D01*
X137339588Y-106258525D01*
X137268773Y-106253460D01*
X137211937Y-106210913D01*
X137187334Y-106146933D01*
X137187139Y-106144803D01*
X137179241Y-106058854D01*
X137165780Y-106011123D01*
X137125736Y-105869140D01*
X137121686Y-105854779D01*
X137027906Y-105664611D01*
X137013511Y-105645333D01*
X136947914Y-105557489D01*
X136923182Y-105490939D01*
X136938356Y-105421583D01*
X136988618Y-105371441D01*
X137048872Y-105356100D01*
X137488572Y-105356100D01*
X137508621Y-105358234D01*
X137512811Y-105358432D01*
X137522993Y-105360624D01*
X137553840Y-105356973D01*
X137559215Y-105356656D01*
X137559204Y-105356528D01*
X137564382Y-105356100D01*
X137569584Y-105356100D01*
X137580919Y-105354213D01*
X137587243Y-105353161D01*
X137593115Y-105352326D01*
X137630374Y-105347916D01*
X137630381Y-105347914D01*
X137640722Y-105346690D01*
X137648468Y-105342970D01*
X137656942Y-105341560D01*
X137697671Y-105319584D01*
X137699109Y-105318808D01*
X137704396Y-105316115D01*
X137740442Y-105298805D01*
X137740445Y-105298803D01*
X137747590Y-105295372D01*
X137751600Y-105292001D01*
X137753538Y-105290063D01*
X137755189Y-105288548D01*
X137755599Y-105288327D01*
X137755637Y-105288369D01*
X137755820Y-105288208D01*
X137761274Y-105285265D01*
X137769913Y-105275920D01*
X137795531Y-105248206D01*
X137798961Y-105244640D01*
X138315716Y-104727885D01*
X140126500Y-104727885D01*
X140130975Y-104743124D01*
X140132365Y-104744329D01*
X140140048Y-104746000D01*
X140679885Y-104746000D01*
X140695124Y-104741525D01*
X140696329Y-104740135D01*
X140698000Y-104732452D01*
X140698000Y-104727885D01*
X141206000Y-104727885D01*
X141210475Y-104743124D01*
X141211865Y-104744329D01*
X141219548Y-104746000D01*
X141759384Y-104746000D01*
X141774623Y-104741525D01*
X141775828Y-104740135D01*
X141777499Y-104732452D01*
X141777499Y-104727172D01*
X141776291Y-104714912D01*
X141765185Y-104659069D01*
X141755867Y-104636573D01*
X141713517Y-104573192D01*
X141696308Y-104555983D01*
X141632925Y-104513632D01*
X141610434Y-104504316D01*
X141554585Y-104493207D01*
X141542330Y-104492000D01*
X141224115Y-104492000D01*
X141208876Y-104496475D01*
X141207671Y-104497865D01*
X141206000Y-104505548D01*
X141206000Y-104727885D01*
X140698000Y-104727885D01*
X140698000Y-104510116D01*
X140693525Y-104494877D01*
X140692135Y-104493672D01*
X140684452Y-104492001D01*
X140361672Y-104492001D01*
X140349412Y-104493209D01*
X140293569Y-104504315D01*
X140271073Y-104513633D01*
X140207692Y-104555983D01*
X140190483Y-104573192D01*
X140148132Y-104636575D01*
X140138816Y-104659066D01*
X140127707Y-104714915D01*
X140126500Y-104727170D01*
X140126500Y-104727885D01*
X138315716Y-104727885D01*
X138920597Y-104123005D01*
X138982909Y-104088979D01*
X139009692Y-104086100D01*
X140140113Y-104086100D01*
X140208234Y-104106102D01*
X140227439Y-104121579D01*
X140233640Y-104130860D01*
X140252966Y-104143773D01*
X140279195Y-104161298D01*
X140301020Y-104175881D01*
X140360436Y-104187700D01*
X141543564Y-104187700D01*
X141602980Y-104175881D01*
X141624806Y-104161298D01*
X141651034Y-104143773D01*
X141670360Y-104130860D01*
X141715381Y-104063480D01*
X141727200Y-104004064D01*
X141727200Y-103455936D01*
X141715381Y-103396520D01*
X141670360Y-103329140D01*
X141602980Y-103284119D01*
X141543564Y-103272300D01*
X140360436Y-103272300D01*
X140301020Y-103284119D01*
X140233640Y-103329140D01*
X140227923Y-103337697D01*
X140166896Y-103371021D01*
X140140113Y-103373900D01*
X138861427Y-103373900D01*
X138841378Y-103371766D01*
X138837188Y-103371568D01*
X138827006Y-103369376D01*
X138816665Y-103370600D01*
X138796161Y-103373027D01*
X138790783Y-103373344D01*
X138790794Y-103373472D01*
X138785616Y-103373900D01*
X138780416Y-103373900D01*
X138775288Y-103374754D01*
X138775284Y-103374754D01*
X138762739Y-103376842D01*
X138756861Y-103377679D01*
X138738582Y-103379843D01*
X138709277Y-103383311D01*
X138701534Y-103387029D01*
X138693058Y-103388440D01*
X138683897Y-103393383D01*
X138650886Y-103411194D01*
X138645600Y-103413887D01*
X138609558Y-103431195D01*
X138609555Y-103431197D01*
X138602410Y-103434628D01*
X138598400Y-103437999D01*
X138596462Y-103439937D01*
X138594811Y-103441452D01*
X138594401Y-103441673D01*
X138594363Y-103441631D01*
X138594180Y-103441792D01*
X138588726Y-103444735D01*
X138581658Y-103452382D01*
X138581657Y-103452382D01*
X138554469Y-103481794D01*
X138551039Y-103485360D01*
X137429403Y-104606995D01*
X137367091Y-104641021D01*
X137340308Y-104643900D01*
X137049270Y-104643900D01*
X136981149Y-104623898D01*
X136934656Y-104570242D01*
X136924552Y-104499968D01*
X136952396Y-104437331D01*
X136991170Y-104390711D01*
X136991177Y-104390701D01*
X136994868Y-104386263D01*
X137098473Y-104201263D01*
X137135821Y-104091239D01*
X137164772Y-104005954D01*
X137164772Y-104005952D01*
X137166630Y-104000480D01*
X137167459Y-103994764D01*
X137167460Y-103994759D01*
X137196522Y-103794313D01*
X137197055Y-103790639D01*
X137198643Y-103730000D01*
X137179241Y-103518854D01*
X137169297Y-103483593D01*
X137143051Y-103390534D01*
X137121686Y-103314779D01*
X137107830Y-103286681D01*
X137095641Y-103216740D01*
X137123201Y-103151310D01*
X137131742Y-103141860D01*
X137420597Y-102853005D01*
X137482909Y-102818979D01*
X137509692Y-102816100D01*
X140140113Y-102816100D01*
X140208234Y-102836102D01*
X140227439Y-102851579D01*
X140233640Y-102860860D01*
X140301020Y-102905881D01*
X140360436Y-102917700D01*
X141543564Y-102917700D01*
X141602980Y-102905881D01*
X141670360Y-102860860D01*
X141715381Y-102793480D01*
X141727200Y-102734064D01*
X141727200Y-102608869D01*
X141747202Y-102540748D01*
X141800858Y-102494255D01*
X141871132Y-102484151D01*
X141935712Y-102513645D01*
G37*
%TD.AperFunction*%
%TA.AperFunction,Conductor*%
G36*
X162525282Y-102926902D02*
G01*
X162571775Y-102980558D01*
X162580740Y-103057481D01*
X162571300Y-103104936D01*
X162571300Y-103995064D01*
X162572506Y-104001128D01*
X162572507Y-104001136D01*
X162577324Y-104025352D01*
X162570996Y-104096066D01*
X162569628Y-104098682D01*
X162569762Y-104098737D01*
X162565013Y-104110202D01*
X162558119Y-104120520D01*
X162546300Y-104179936D01*
X162546300Y-105820064D01*
X162558119Y-105879480D01*
X162565013Y-105889798D01*
X162569762Y-105901263D01*
X162565680Y-105902954D01*
X162579726Y-105947852D01*
X162577324Y-105974648D01*
X162572507Y-105998864D01*
X162572506Y-105998872D01*
X162571300Y-106004936D01*
X162571300Y-106895064D01*
X162580740Y-106942519D01*
X162574413Y-107013231D01*
X162530859Y-107069299D01*
X162457161Y-107093100D01*
X161220733Y-107093100D01*
X161152612Y-107073098D01*
X161131638Y-107056195D01*
X160826465Y-106751022D01*
X160792439Y-106688710D01*
X160790786Y-106644391D01*
X160807356Y-106526490D01*
X160807356Y-106526485D01*
X160807907Y-106522567D01*
X160808222Y-106500000D01*
X160788137Y-106320940D01*
X160728881Y-106150779D01*
X160716789Y-106131427D01*
X160637131Y-106003949D01*
X160633398Y-105997975D01*
X160625349Y-105989869D01*
X160511397Y-105875119D01*
X160506435Y-105870122D01*
X160497542Y-105864478D01*
X160427556Y-105820064D01*
X160354301Y-105773575D01*
X160233496Y-105730558D01*
X160191192Y-105715494D01*
X160191190Y-105715493D01*
X160184558Y-105713132D01*
X160177572Y-105712299D01*
X160177568Y-105712298D01*
X160050586Y-105697157D01*
X160005642Y-105691798D01*
X159998639Y-105692534D01*
X159998638Y-105692534D01*
X159951468Y-105697492D01*
X159826446Y-105710632D01*
X159819778Y-105712902D01*
X159662543Y-105766429D01*
X159662540Y-105766430D01*
X159655876Y-105768699D01*
X159502409Y-105863112D01*
X159461724Y-105902954D01*
X159383786Y-105979277D01*
X159373673Y-105989180D01*
X159344246Y-106034842D01*
X159343915Y-106035356D01*
X159290200Y-106081780D01*
X159238004Y-106093100D01*
X156332120Y-106093100D01*
X156263999Y-106073098D01*
X156227354Y-106037100D01*
X156225254Y-106033957D01*
X156225252Y-106033955D01*
X156218360Y-106023640D01*
X156167817Y-105989869D01*
X156161298Y-105985513D01*
X156161297Y-105985513D01*
X156150980Y-105978619D01*
X156091564Y-105966800D01*
X154908436Y-105966800D01*
X154860894Y-105976257D01*
X154790180Y-105969929D01*
X154747217Y-105941773D01*
X153745077Y-104939634D01*
X153722151Y-104916708D01*
X153702096Y-104906490D01*
X153685241Y-104896160D01*
X153675057Y-104888761D01*
X153667032Y-104882930D01*
X153657599Y-104879865D01*
X153657597Y-104879864D01*
X153645620Y-104875972D01*
X153627358Y-104868408D01*
X153616140Y-104862692D01*
X153616139Y-104862692D01*
X153607306Y-104858191D01*
X153585074Y-104854670D01*
X153565848Y-104850054D01*
X153553879Y-104846165D01*
X153544446Y-104843100D01*
X153409200Y-104843100D01*
X153341079Y-104823098D01*
X153294586Y-104769442D01*
X153283200Y-104717100D01*
X153283200Y-104658436D01*
X153271381Y-104599020D01*
X153226360Y-104531640D01*
X153158980Y-104486619D01*
X153158044Y-104486433D01*
X153108938Y-104446862D01*
X153086516Y-104379498D01*
X153104074Y-104310707D01*
X153153797Y-104264412D01*
X153158980Y-104263381D01*
X153226360Y-104218360D01*
X153271381Y-104150980D01*
X153283200Y-104091564D01*
X153283200Y-104044900D01*
X153303202Y-103976779D01*
X153356858Y-103930286D01*
X153409200Y-103918900D01*
X154675898Y-103918900D01*
X154744019Y-103938902D01*
X154764355Y-103958880D01*
X154765969Y-103957266D01*
X154774746Y-103966043D01*
X154781640Y-103976360D01*
X154806743Y-103993133D01*
X154837450Y-104013650D01*
X154849020Y-104021381D01*
X154908436Y-104033200D01*
X156091564Y-104033200D01*
X156150980Y-104021381D01*
X156162551Y-104013650D01*
X156193257Y-103993133D01*
X156218360Y-103976360D01*
X156225252Y-103966045D01*
X156225254Y-103966043D01*
X156227354Y-103962900D01*
X156233705Y-103957592D01*
X156234031Y-103957266D01*
X156234060Y-103957295D01*
X156281830Y-103917371D01*
X156332120Y-103906900D01*
X159236432Y-103906900D01*
X159304553Y-103926902D01*
X159344207Y-103967628D01*
X159356004Y-103987107D01*
X159356007Y-103987110D01*
X159359654Y-103993133D01*
X159484820Y-104122746D01*
X159635591Y-104221407D01*
X159642195Y-104223863D01*
X159797863Y-104281756D01*
X159797865Y-104281757D01*
X159804473Y-104284214D01*
X159887040Y-104295231D01*
X159976093Y-104307114D01*
X159976097Y-104307114D01*
X159983074Y-104308045D01*
X159990085Y-104307407D01*
X159990089Y-104307407D01*
X160132100Y-104294482D01*
X160162516Y-104291714D01*
X160169216Y-104289537D01*
X160169221Y-104289536D01*
X160327181Y-104238212D01*
X160327184Y-104238211D01*
X160333880Y-104236035D01*
X160488650Y-104143773D01*
X160493744Y-104138922D01*
X160493748Y-104138919D01*
X160614034Y-104024372D01*
X160614035Y-104024370D01*
X160619134Y-104019515D01*
X160633511Y-103997877D01*
X160685983Y-103918900D01*
X160718846Y-103869437D01*
X160782830Y-103700997D01*
X160807907Y-103522567D01*
X160808222Y-103500000D01*
X160791504Y-103350958D01*
X160803788Y-103281034D01*
X160827624Y-103247819D01*
X161131638Y-102943805D01*
X161193950Y-102909779D01*
X161220733Y-102906900D01*
X162457161Y-102906900D01*
X162525282Y-102926902D01*
G37*
%TD.AperFunction*%
%TA.AperFunction,Conductor*%
G36*
X137452212Y-97706267D02*
G01*
X137458794Y-97712395D01*
X138882550Y-99136152D01*
X140306052Y-100559654D01*
X140340078Y-100621966D01*
X140335013Y-100692782D01*
X140286958Y-100753514D01*
X140233640Y-100789140D01*
X140188619Y-100856520D01*
X140176800Y-100915936D01*
X140176800Y-101337900D01*
X140156798Y-101406021D01*
X140103142Y-101452514D01*
X140050800Y-101463900D01*
X139709691Y-101463900D01*
X139641570Y-101443898D01*
X139620596Y-101426995D01*
X138778660Y-100585058D01*
X137913856Y-99720254D01*
X137901184Y-99704564D01*
X137898362Y-99701463D01*
X137892714Y-99692715D01*
X137868322Y-99673486D01*
X137864292Y-99669905D01*
X137864209Y-99670003D01*
X137860252Y-99666650D01*
X137856571Y-99662969D01*
X137852337Y-99659943D01*
X137841978Y-99652540D01*
X137837233Y-99648977D01*
X137807794Y-99625769D01*
X137807792Y-99625768D01*
X137799614Y-99619321D01*
X137791509Y-99616475D01*
X137784518Y-99611479D01*
X137738627Y-99597755D01*
X137732982Y-99595921D01*
X137695242Y-99582668D01*
X137695239Y-99582667D01*
X137687760Y-99580041D01*
X137682541Y-99579589D01*
X137679830Y-99579589D01*
X137677553Y-99579491D01*
X137677104Y-99579356D01*
X137677106Y-99579302D01*
X137676873Y-99579287D01*
X137670937Y-99577512D01*
X137621074Y-99579471D01*
X137620539Y-99579492D01*
X137615593Y-99579589D01*
X137369700Y-99579589D01*
X137301579Y-99559587D01*
X137255086Y-99505931D01*
X137243700Y-99453589D01*
X137243700Y-97801491D01*
X137263702Y-97733370D01*
X137317358Y-97686877D01*
X137387632Y-97676773D01*
X137452212Y-97706267D01*
G37*
%TD.AperFunction*%
%TD*%
M02*
