%TF.GenerationSoftware,KiCad,Pcbnew,6.0.0*%
%TF.CreationDate,2022-08-14T07:42:52+02:00*%
%TF.ProjectId,pmod-trh,706d6f64-2d74-4726-982e-6b696361645f,2*%
%TF.SameCoordinates,Original*%
%TF.FileFunction,Legend,Top*%
%TF.FilePolarity,Positive*%
%FSLAX46Y46*%
G04 Gerber Fmt 4.6, Leading zero omitted, Abs format (unit mm)*
G04 Created by KiCad (PCBNEW 6.0.0) date 2022-08-14 07:42:52*
%MOMM*%
%LPD*%
G01*
G04 APERTURE LIST*
%ADD10C,0.101600*%
%ADD11C,0.150000*%
%ADD12C,0.127000*%
%ADD13C,0.027940*%
%ADD14C,0.100000*%
G04 APERTURE END LIST*
D10*
%TO.C,R1*%
X157344714Y-107377000D02*
X156981857Y-107631000D01*
X157344714Y-107812428D02*
X156582714Y-107812428D01*
X156582714Y-107522142D01*
X156619000Y-107449571D01*
X156655285Y-107413285D01*
X156727857Y-107377000D01*
X156836714Y-107377000D01*
X156909285Y-107413285D01*
X156945571Y-107449571D01*
X156981857Y-107522142D01*
X156981857Y-107812428D01*
X157344714Y-106651285D02*
X157344714Y-107086714D01*
X157344714Y-106869000D02*
X156582714Y-106869000D01*
X156691571Y-106941571D01*
X156764142Y-107014142D01*
X156800428Y-107086714D01*
%TO.C,D1*%
X140937571Y-111594714D02*
X140937571Y-110832714D01*
X141119000Y-110832714D01*
X141227857Y-110869000D01*
X141300428Y-110941571D01*
X141336714Y-111014142D01*
X141373000Y-111159285D01*
X141373000Y-111268142D01*
X141336714Y-111413285D01*
X141300428Y-111485857D01*
X141227857Y-111558428D01*
X141119000Y-111594714D01*
X140937571Y-111594714D01*
X142098714Y-111594714D02*
X141663285Y-111594714D01*
X141881000Y-111594714D02*
X141881000Y-110832714D01*
X141808428Y-110941571D01*
X141735857Y-111014142D01*
X141663285Y-111050428D01*
D11*
%TO.C,U1*%
X138612380Y-108951904D02*
X139421904Y-108951904D01*
X139517142Y-108904285D01*
X139564761Y-108856666D01*
X139612380Y-108761428D01*
X139612380Y-108570952D01*
X139564761Y-108475714D01*
X139517142Y-108428095D01*
X139421904Y-108380476D01*
X138612380Y-108380476D01*
X139612380Y-107380476D02*
X139612380Y-107951904D01*
X139612380Y-107666190D02*
X138612380Y-107666190D01*
X138755238Y-107761428D01*
X138850476Y-107856666D01*
X138898095Y-107951904D01*
%TO.C,P1*%
X131761904Y-96852380D02*
X131761904Y-95852380D01*
X132142857Y-95852380D01*
X132238095Y-95900000D01*
X132285714Y-95947619D01*
X132333333Y-96042857D01*
X132333333Y-96185714D01*
X132285714Y-96280952D01*
X132238095Y-96328571D01*
X132142857Y-96376190D01*
X131761904Y-96376190D01*
X133285714Y-96852380D02*
X132714285Y-96852380D01*
X133000000Y-96852380D02*
X133000000Y-95852380D01*
X132904761Y-95995238D01*
X132809523Y-96090476D01*
X132714285Y-96138095D01*
D10*
%TO.C,R4*%
X151873000Y-102594714D02*
X151619000Y-102231857D01*
X151437571Y-102594714D02*
X151437571Y-101832714D01*
X151727857Y-101832714D01*
X151800428Y-101869000D01*
X151836714Y-101905285D01*
X151873000Y-101977857D01*
X151873000Y-102086714D01*
X151836714Y-102159285D01*
X151800428Y-102195571D01*
X151727857Y-102231857D01*
X151437571Y-102231857D01*
X152526142Y-102086714D02*
X152526142Y-102594714D01*
X152344714Y-101796428D02*
X152163285Y-102340714D01*
X152635000Y-102340714D01*
%TO.C,U2*%
X161332714Y-105580571D02*
X161949571Y-105580571D01*
X162022142Y-105544285D01*
X162058428Y-105508000D01*
X162094714Y-105435428D01*
X162094714Y-105290285D01*
X162058428Y-105217714D01*
X162022142Y-105181428D01*
X161949571Y-105145142D01*
X161332714Y-105145142D01*
X161405285Y-104818571D02*
X161369000Y-104782285D01*
X161332714Y-104709714D01*
X161332714Y-104528285D01*
X161369000Y-104455714D01*
X161405285Y-104419428D01*
X161477857Y-104383142D01*
X161550428Y-104383142D01*
X161659285Y-104419428D01*
X162094714Y-104854857D01*
X162094714Y-104383142D01*
%TO.C,R2*%
X157344714Y-102877000D02*
X156981857Y-103131000D01*
X157344714Y-103312428D02*
X156582714Y-103312428D01*
X156582714Y-103022142D01*
X156619000Y-102949571D01*
X156655285Y-102913285D01*
X156727857Y-102877000D01*
X156836714Y-102877000D01*
X156909285Y-102913285D01*
X156945571Y-102949571D01*
X156981857Y-103022142D01*
X156981857Y-103312428D01*
X156655285Y-102586714D02*
X156619000Y-102550428D01*
X156582714Y-102477857D01*
X156582714Y-102296428D01*
X156619000Y-102223857D01*
X156655285Y-102187571D01*
X156727857Y-102151285D01*
X156800428Y-102151285D01*
X156909285Y-102187571D01*
X157344714Y-102623000D01*
X157344714Y-102151285D01*
%TO.C,R3*%
X151873000Y-106944714D02*
X151619000Y-106581857D01*
X151437571Y-106944714D02*
X151437571Y-106182714D01*
X151727857Y-106182714D01*
X151800428Y-106219000D01*
X151836714Y-106255285D01*
X151873000Y-106327857D01*
X151873000Y-106436714D01*
X151836714Y-106509285D01*
X151800428Y-106545571D01*
X151727857Y-106581857D01*
X151437571Y-106581857D01*
X152127000Y-106182714D02*
X152598714Y-106182714D01*
X152344714Y-106473000D01*
X152453571Y-106473000D01*
X152526142Y-106509285D01*
X152562428Y-106545571D01*
X152598714Y-106618142D01*
X152598714Y-106799571D01*
X152562428Y-106872142D01*
X152526142Y-106908428D01*
X152453571Y-106944714D01*
X152235857Y-106944714D01*
X152163285Y-106908428D01*
X152127000Y-106872142D01*
%TO.C,Q1*%
X157877428Y-97027285D02*
X157804857Y-96991000D01*
X157732285Y-96918428D01*
X157623428Y-96809571D01*
X157550857Y-96773285D01*
X157478285Y-96773285D01*
X157514571Y-96954714D02*
X157442000Y-96918428D01*
X157369428Y-96845857D01*
X157333142Y-96700714D01*
X157333142Y-96446714D01*
X157369428Y-96301571D01*
X157442000Y-96229000D01*
X157514571Y-96192714D01*
X157659714Y-96192714D01*
X157732285Y-96229000D01*
X157804857Y-96301571D01*
X157841142Y-96446714D01*
X157841142Y-96700714D01*
X157804857Y-96845857D01*
X157732285Y-96918428D01*
X157659714Y-96954714D01*
X157514571Y-96954714D01*
X158566857Y-96954714D02*
X158131428Y-96954714D01*
X158349142Y-96954714D02*
X158349142Y-96192714D01*
X158276571Y-96301571D01*
X158204000Y-96374142D01*
X158131428Y-96410428D01*
D12*
%TO.C,R1*%
X156135000Y-108393000D02*
X154865000Y-108393000D01*
X154865000Y-106107000D02*
X156135000Y-106107000D01*
X156135000Y-106107000D02*
X156135000Y-108393000D01*
X154865000Y-108393000D02*
X154865000Y-106107000D01*
%TO.C,R6*%
X157643000Y-99865000D02*
X157643000Y-101135000D01*
X155357000Y-101135000D02*
X155357000Y-99865000D01*
X157643000Y-101135000D02*
X155357000Y-101135000D01*
X155357000Y-99865000D02*
X157643000Y-99865000D01*
D13*
%TO.C,agilack-11.5*%
X143729240Y-96902720D02*
X143805440Y-96902720D01*
X144567440Y-98045720D02*
X144846840Y-98045720D01*
X139761000Y-97252600D02*
X139952560Y-97252600D01*
X150917440Y-97309120D02*
X151273040Y-97309120D01*
X146142240Y-97893320D02*
X146396240Y-97893320D01*
X146574040Y-97588520D02*
X146828040Y-97588520D01*
X148631440Y-98121920D02*
X148936240Y-98121920D01*
X148631440Y-97893320D02*
X148910840Y-97893320D01*
X141925840Y-97715520D02*
X142179840Y-97715520D01*
X146142240Y-97359920D02*
X146396240Y-97359920D01*
X141240040Y-97588520D02*
X141570240Y-97588520D01*
X140249440Y-98807720D02*
X141925840Y-98807720D01*
X140122440Y-98909320D02*
X141824240Y-98909320D01*
X150434840Y-97867920D02*
X150739640Y-97867920D01*
X145558040Y-98401320D02*
X145837440Y-98401320D01*
X139862600Y-97024000D02*
X140167400Y-97024000D01*
X143119640Y-98147320D02*
X143500640Y-98147320D01*
X146574040Y-97334520D02*
X146828040Y-97334520D01*
X144516640Y-99036320D02*
X144897640Y-99036320D01*
X140122440Y-98198120D02*
X140351040Y-98198120D01*
X146142240Y-98579120D02*
X146396240Y-98579120D01*
X144567440Y-98147320D02*
X144872240Y-98147320D01*
X146142240Y-97994920D02*
X146396240Y-97994920D01*
X140122440Y-98604520D02*
X140300240Y-98604520D01*
X145583440Y-98299720D02*
X145837440Y-98299720D01*
X150714240Y-98375920D02*
X151069840Y-98375920D01*
X146574040Y-97461520D02*
X146828040Y-97461520D01*
X146574040Y-97690120D02*
X146828040Y-97690120D01*
X139761000Y-97735200D02*
X139938800Y-97735200D01*
X141697240Y-97944120D02*
X142179840Y-97944120D01*
X148631440Y-98147320D02*
X148936240Y-98147320D01*
X150638040Y-98274320D02*
X150993640Y-98274320D01*
X141621040Y-97690120D02*
X141824240Y-97690120D01*
X144237240Y-98502920D02*
X144618240Y-98502920D01*
X150612640Y-97639320D02*
X150968240Y-97639320D01*
X139761000Y-98319400D02*
X139938800Y-98319400D01*
X143373640Y-97613920D02*
X143729240Y-97613920D01*
X140224040Y-97258320D02*
X141900440Y-97258320D01*
X143602240Y-97182120D02*
X143932440Y-97182120D01*
X146574040Y-98401320D02*
X146828040Y-98401320D01*
X146574040Y-98375920D02*
X146828040Y-98375920D01*
X146142240Y-97639320D02*
X146396240Y-97639320D01*
X141494040Y-98147320D02*
X142179840Y-98147320D01*
X140122440Y-97359920D02*
X141798840Y-97359920D01*
X140249440Y-98477520D02*
X140427240Y-98477520D01*
X139761000Y-97455800D02*
X139938800Y-97455800D01*
X144059440Y-98121920D02*
X144415040Y-98121920D01*
X148910840Y-98579120D02*
X149825240Y-98579120D01*
X139837200Y-97049400D02*
X140142000Y-97049400D01*
X140579640Y-98147320D02*
X140757440Y-98147320D01*
X147513840Y-98147320D02*
X148428240Y-98147320D01*
X150866640Y-98553720D02*
X151222240Y-98553720D01*
X146574040Y-97969520D02*
X146828040Y-97969520D01*
X144161040Y-98325120D02*
X144516640Y-98325120D01*
X149139440Y-97283720D02*
X149596640Y-97283720D01*
X150155440Y-97334520D02*
X150409440Y-97334520D01*
X144288040Y-98579120D02*
X144643640Y-98579120D01*
X143094240Y-98172720D02*
X143475240Y-98172720D01*
X141544840Y-97918720D02*
X141570240Y-97918720D01*
X148631440Y-97867920D02*
X148910840Y-97867920D01*
X139761000Y-97887600D02*
X139938800Y-97887600D01*
X147412240Y-98426720D02*
X147691640Y-98426720D01*
X144364240Y-98756920D02*
X144745240Y-98756920D01*
X143932440Y-97867920D02*
X144288040Y-97867920D01*
X146574040Y-98477520D02*
X147666240Y-98477520D01*
X150155440Y-98452120D02*
X150409440Y-98452120D01*
X145202440Y-98045720D02*
X145837440Y-98045720D01*
X150561840Y-97715520D02*
X150892040Y-97715520D01*
X146142240Y-98299720D02*
X146396240Y-98299720D01*
X140554240Y-98172720D02*
X140732040Y-98172720D01*
X141722640Y-97918720D02*
X142179840Y-97918720D01*
X144796040Y-97436120D02*
X145786640Y-97436120D01*
X147666240Y-97766320D02*
X147920240Y-97766320D01*
X144592840Y-98248920D02*
X144923040Y-98248920D01*
X143576840Y-97232920D02*
X143957840Y-97232920D01*
X139761000Y-98065400D02*
X139938800Y-98065400D01*
X139761000Y-98294000D02*
X139938800Y-98294000D01*
X141036840Y-98198120D02*
X141265440Y-98198120D01*
X144618240Y-98299720D02*
X144948440Y-98299720D01*
X143830840Y-97690120D02*
X144186440Y-97690120D01*
X142967240Y-98426720D02*
X144059440Y-98426720D01*
X146142240Y-97410720D02*
X146396240Y-97410720D01*
X148809240Y-97461520D02*
X149774440Y-97461520D01*
X144211840Y-98452120D02*
X144592840Y-98452120D01*
X142637040Y-98756920D02*
X144110240Y-98756920D01*
X141849640Y-97461520D02*
X142052840Y-97461520D01*
X148631440Y-98096520D02*
X148910840Y-98096520D01*
X140274840Y-98452120D02*
X140452640Y-98452120D01*
X148021840Y-97766320D02*
X148301240Y-97766320D01*
X140122440Y-97436120D02*
X141722640Y-97436120D01*
X148275840Y-98477520D02*
X148555240Y-98477520D01*
X148733040Y-98375920D02*
X149114040Y-98375920D01*
X147590040Y-97994920D02*
X147844040Y-97994920D01*
X148885440Y-97410720D02*
X149799840Y-97410720D01*
X148656840Y-98198120D02*
X148961640Y-98198120D01*
X144440440Y-98909320D02*
X144821440Y-98909320D01*
X148783840Y-97512320D02*
X149749040Y-97512320D01*
X150688840Y-97563120D02*
X151019040Y-97563120D01*
X140681240Y-98375920D02*
X142179840Y-98375920D01*
X146574040Y-98350520D02*
X146828040Y-98350520D01*
X148834640Y-97436120D02*
X149774440Y-97436120D01*
X150155440Y-97664720D02*
X150409440Y-97664720D01*
X150155440Y-98020320D02*
X150765040Y-98020320D01*
X139761000Y-97506600D02*
X139938800Y-97506600D01*
X141570240Y-98071120D02*
X142179840Y-98071120D01*
X150612640Y-97664720D02*
X150942840Y-97664720D01*
X148098040Y-97944120D02*
X148377440Y-97944120D01*
X140630440Y-98096520D02*
X140757440Y-98096520D01*
X143703840Y-96953520D02*
X143830840Y-96953520D01*
X148682240Y-98299720D02*
X149037840Y-98299720D01*
X139989600Y-96897000D02*
X140294400Y-96897000D01*
X148275840Y-98502920D02*
X148580640Y-98502920D01*
X145075440Y-97309120D02*
X145507240Y-97309120D01*
X140351040Y-97131320D02*
X142027440Y-97131320D01*
X144567440Y-99137920D02*
X144948440Y-99137920D01*
X148961640Y-98604520D02*
X149825240Y-98604520D01*
X140757440Y-98299720D02*
X140935240Y-98299720D01*
X139761000Y-97760600D02*
X139938800Y-97760600D01*
X146142240Y-97334520D02*
X146396240Y-97334520D01*
X147513840Y-98172720D02*
X148453640Y-98172720D01*
X140935240Y-97817120D02*
X141367040Y-97817120D01*
X140015000Y-96871600D02*
X140319800Y-96871600D01*
X140935240Y-97842520D02*
X141367040Y-97842520D01*
X140091200Y-96795400D02*
X140396000Y-96795400D01*
X150155440Y-98325120D02*
X150409440Y-98325120D01*
X146574040Y-98528320D02*
X147666240Y-98528320D01*
X140040400Y-96846200D02*
X140345200Y-96846200D01*
X139761000Y-98040000D02*
X139938800Y-98040000D01*
X146142240Y-97715520D02*
X146396240Y-97715520D01*
X143653040Y-97055120D02*
X143881640Y-97055120D01*
X139761000Y-98522600D02*
X139837200Y-98522600D01*
X143399040Y-97588520D02*
X143754640Y-97588520D01*
X144542040Y-99112520D02*
X144923040Y-99112520D01*
X139761000Y-97582800D02*
X139938800Y-97582800D01*
X149139440Y-98680720D02*
X149571240Y-98680720D01*
X144465840Y-98934720D02*
X144846840Y-98934720D01*
X146142240Y-98325120D02*
X146396240Y-98325120D01*
X144973840Y-97334520D02*
X145583440Y-97334520D01*
X143627640Y-97131320D02*
X143907040Y-97131320D01*
X143576840Y-97207520D02*
X143957840Y-97207520D01*
X148047240Y-97817120D02*
X148326640Y-97817120D01*
X139761000Y-97608200D02*
X139938800Y-97608200D01*
X146574040Y-98172720D02*
X146828040Y-98172720D01*
X139964200Y-96922400D02*
X140269000Y-96922400D01*
X141773440Y-97537720D02*
X141976640Y-97537720D01*
X144084840Y-98198120D02*
X144465840Y-98198120D01*
X141468640Y-98172720D02*
X142179840Y-98172720D01*
X141392440Y-97664720D02*
X141494040Y-97664720D01*
X142052840Y-97258320D02*
X142179840Y-97258320D01*
X140986040Y-98172720D02*
X141290840Y-98172720D01*
X144567440Y-97893320D02*
X144846840Y-97893320D01*
X146574040Y-97715520D02*
X146828040Y-97715520D01*
X146574040Y-98147320D02*
X146828040Y-98147320D01*
X140122440Y-97842520D02*
X140706640Y-97842520D01*
X147437640Y-98350520D02*
X147717040Y-98350520D01*
X140249440Y-97232920D02*
X141925840Y-97232920D01*
X147539240Y-98096520D02*
X148428240Y-98096520D01*
X148656840Y-97766320D02*
X148961640Y-97766320D01*
X148834640Y-98528320D02*
X149799840Y-98528320D01*
X150155440Y-97791720D02*
X150409440Y-97791720D01*
X143246640Y-97867920D02*
X143627640Y-97867920D01*
X142027440Y-97613920D02*
X142179840Y-97613920D01*
X148072640Y-97893320D02*
X148352040Y-97893320D01*
X141544840Y-98096520D02*
X142179840Y-98096520D01*
X143830840Y-97664720D02*
X144186440Y-97664720D01*
X143068840Y-98223520D02*
X143449840Y-98223520D01*
X146574040Y-98452120D02*
X147691640Y-98452120D01*
X147666240Y-97740920D02*
X147920240Y-97740920D01*
X139761000Y-98014600D02*
X139938800Y-98014600D01*
X150155440Y-97359920D02*
X150409440Y-97359920D01*
X146574040Y-97766320D02*
X146828040Y-97766320D01*
X145075440Y-98706120D02*
X145507240Y-98706120D01*
X140909840Y-97994920D02*
X141392440Y-97994920D01*
X148783840Y-98477520D02*
X149774440Y-98477520D01*
X140122440Y-98706120D02*
X140198640Y-98706120D01*
X150587240Y-98223520D02*
X150942840Y-98223520D01*
X143703840Y-96978920D02*
X143830840Y-96978920D01*
X149063240Y-97309120D02*
X149698240Y-97309120D01*
X143500640Y-97385320D02*
X144034040Y-97385320D01*
X142027440Y-97283720D02*
X142179840Y-97283720D01*
X147691640Y-97715520D02*
X147945640Y-97715520D01*
X141316240Y-97613920D02*
X141544840Y-97613920D01*
X148250440Y-98426720D02*
X148555240Y-98426720D01*
X150460240Y-98071120D02*
X150790440Y-98071120D01*
X144542040Y-99087120D02*
X144923040Y-99087120D01*
X144592840Y-97740920D02*
X144897640Y-97740920D01*
X146574040Y-98553720D02*
X147640840Y-98553720D01*
X143754640Y-96877320D02*
X143780040Y-96877320D01*
X148631440Y-97817120D02*
X148936240Y-97817120D01*
X144262640Y-98528320D02*
X144618240Y-98528320D01*
X140401840Y-97080520D02*
X142078240Y-97080520D01*
X146142240Y-97283720D02*
X146396240Y-97283720D01*
X143780040Y-97563120D02*
X144135640Y-97563120D01*
X150155440Y-97461520D02*
X150409440Y-97461520D01*
X140122440Y-97664720D02*
X140884440Y-97664720D01*
X140706640Y-98020320D02*
X140757440Y-98020320D01*
X145202440Y-98121920D02*
X145837440Y-98121920D01*
X140122440Y-98223520D02*
X140351040Y-98223520D01*
X149647440Y-97563120D02*
X149723640Y-97563120D01*
X139761000Y-98141600D02*
X139938800Y-98141600D01*
X139761000Y-98471800D02*
X139888000Y-98471800D01*
X144643640Y-97639320D02*
X144999240Y-97639320D01*
X146142240Y-98147320D02*
X146396240Y-98147320D01*
X146142240Y-97944120D02*
X146396240Y-97944120D01*
X146142240Y-98172720D02*
X146396240Y-98172720D01*
X142916440Y-98528320D02*
X144110240Y-98528320D01*
X148047240Y-97842520D02*
X148326640Y-97842520D01*
X146142240Y-98223520D02*
X146396240Y-98223520D01*
X144694440Y-97537720D02*
X145735840Y-97537720D01*
X146142240Y-98426720D02*
X146396240Y-98426720D01*
X142637040Y-98883920D02*
X144110240Y-98883920D01*
X141748040Y-97563120D02*
X141951240Y-97563120D01*
X148301240Y-98553720D02*
X148580640Y-98553720D01*
X141976640Y-97334520D02*
X142179840Y-97334520D01*
X142002040Y-97639320D02*
X142179840Y-97639320D01*
X139761000Y-97354200D02*
X139938800Y-97354200D01*
X145583440Y-98223520D02*
X145837440Y-98223520D01*
X141798840Y-97842520D02*
X142179840Y-97842520D01*
X146142240Y-97918720D02*
X146396240Y-97918720D01*
X144567440Y-97817120D02*
X144872240Y-97817120D01*
X148047240Y-97791720D02*
X148301240Y-97791720D01*
X140122440Y-98071120D02*
X140478040Y-98071120D01*
X140122440Y-98655320D02*
X140249440Y-98655320D01*
X140655840Y-98071120D02*
X140757440Y-98071120D01*
X150688840Y-98350520D02*
X151044440Y-98350520D01*
X139761000Y-97303400D02*
X139938800Y-97303400D01*
X141671840Y-97969520D02*
X142179840Y-97969520D01*
X141544840Y-97817120D02*
X141697240Y-97817120D01*
X145558040Y-97588520D02*
X145710440Y-97588520D01*
X150155440Y-98375920D02*
X150409440Y-98375920D01*
X144491240Y-99010920D02*
X144872240Y-99010920D01*
X144262640Y-98553720D02*
X144643640Y-98553720D01*
X146142240Y-98121920D02*
X146396240Y-98121920D01*
X150155440Y-97690120D02*
X150409440Y-97690120D01*
X148631440Y-97918720D02*
X148910840Y-97918720D01*
X147717040Y-97613920D02*
X148250440Y-97613920D01*
X150485640Y-98096520D02*
X150815840Y-98096520D01*
X139761000Y-97659000D02*
X139938800Y-97659000D01*
X141062240Y-97715520D02*
X141240040Y-97715520D01*
X139761000Y-98421000D02*
X139938800Y-98421000D01*
X144338840Y-98706120D02*
X144719840Y-98706120D01*
X143170440Y-98045720D02*
X143551440Y-98045720D01*
X146142240Y-98604520D02*
X146396240Y-98604520D01*
X144415040Y-98833120D02*
X144770640Y-98833120D01*
X142637040Y-98934720D02*
X144110240Y-98934720D01*
X140122440Y-97791720D02*
X140757440Y-97791720D01*
X143322840Y-97740920D02*
X143678440Y-97740920D01*
X144592840Y-98274320D02*
X144923040Y-98274320D01*
X146142240Y-98071120D02*
X146396240Y-98071120D01*
X146574040Y-98198120D02*
X146828040Y-98198120D01*
X143424440Y-97537720D02*
X144110240Y-97537720D01*
X144821440Y-98579120D02*
X145786640Y-98579120D01*
X150536440Y-97740920D02*
X150866640Y-97740920D01*
X148631440Y-97969520D02*
X148910840Y-97969520D01*
X141544840Y-97766320D02*
X141748040Y-97766320D01*
X144618240Y-98325120D02*
X144973840Y-98325120D01*
X140218200Y-96668400D02*
X141920000Y-96668400D01*
X140122440Y-98579120D02*
X140325640Y-98579120D01*
X150155440Y-98629920D02*
X150409440Y-98629920D01*
X143983240Y-97969520D02*
X144338840Y-97969520D01*
X148123440Y-98020320D02*
X148402840Y-98020320D01*
X144008640Y-98045720D02*
X144389640Y-98045720D01*
X143957840Y-97944120D02*
X144338840Y-97944120D01*
X141443240Y-98198120D02*
X142179840Y-98198120D01*
X144161040Y-98350520D02*
X144542040Y-98350520D01*
X144567440Y-97918720D02*
X144846840Y-97918720D01*
X139786400Y-97100200D02*
X140091200Y-97100200D01*
X144618240Y-97690120D02*
X144948440Y-97690120D01*
X143526040Y-97309120D02*
X144008640Y-97309120D01*
X139761000Y-97151000D02*
X140042560Y-97151000D01*
X146574040Y-97740920D02*
X146828040Y-97740920D01*
X146574040Y-97410720D02*
X146828040Y-97410720D01*
X146574040Y-97842520D02*
X146828040Y-97842520D01*
X140122440Y-97994920D02*
X140554240Y-97994920D01*
X140909840Y-97969520D02*
X141392440Y-97969520D01*
X141875040Y-97766320D02*
X142179840Y-97766320D01*
X143678440Y-97004320D02*
X143856240Y-97004320D01*
X144313440Y-98629920D02*
X144669040Y-98629920D01*
X145456440Y-98452120D02*
X145837440Y-98452120D01*
X144567440Y-98096520D02*
X144846840Y-98096520D01*
X150155440Y-98604520D02*
X150409440Y-98604520D01*
X146574040Y-97918720D02*
X146828040Y-97918720D01*
X144592840Y-99188720D02*
X144973840Y-99188720D01*
X150739640Y-97512320D02*
X151069840Y-97512320D01*
X139761000Y-97709800D02*
X139938800Y-97709800D01*
X150155440Y-98401320D02*
X150409440Y-98401320D01*
X143322840Y-97715520D02*
X143703840Y-97715520D01*
X145659640Y-97639320D02*
X145685040Y-97639320D01*
X150155440Y-97486920D02*
X150409440Y-97486920D01*
X139761000Y-97176400D02*
X140012560Y-97176400D01*
X146142240Y-97512320D02*
X146396240Y-97512320D01*
X144567440Y-97994920D02*
X144846840Y-97994920D01*
X146574040Y-97436120D02*
X146828040Y-97436120D01*
X141011440Y-97740920D02*
X141290840Y-97740920D01*
X143348240Y-97690120D02*
X143703840Y-97690120D01*
X149012440Y-97334520D02*
X149749040Y-97334520D01*
X147488440Y-98223520D02*
X148479040Y-98223520D01*
X142637040Y-98807720D02*
X144110240Y-98807720D01*
X150841240Y-98502920D02*
X151196840Y-98502920D01*
X140630440Y-98426720D02*
X142179840Y-98426720D01*
X147767840Y-97461520D02*
X148199640Y-97461520D01*
X146574040Y-98426720D02*
X146828040Y-98426720D01*
X146574040Y-98045720D02*
X146828040Y-98045720D01*
X150155440Y-97817120D02*
X150409440Y-97817120D01*
X143526040Y-97334520D02*
X144008640Y-97334520D01*
X150155440Y-98223520D02*
X150409440Y-98223520D01*
X147615440Y-97918720D02*
X147869440Y-97918720D01*
X142129040Y-97512320D02*
X142179840Y-97512320D01*
X146142240Y-97969520D02*
X146396240Y-97969520D01*
X143627640Y-97105920D02*
X143907040Y-97105920D01*
X141113040Y-98223520D02*
X141163840Y-98223520D01*
X144567440Y-99163320D02*
X144948440Y-99163320D01*
X147488440Y-98274320D02*
X148479040Y-98274320D01*
X144745240Y-97486920D02*
X145786640Y-97486920D01*
X139761000Y-97532000D02*
X139938800Y-97532000D01*
X148301240Y-98579120D02*
X148606040Y-98579120D01*
X140198640Y-97283720D02*
X141875040Y-97283720D01*
X140376440Y-98350520D02*
X140554240Y-98350520D01*
X144516640Y-99061720D02*
X144897640Y-99061720D01*
X144567440Y-98121920D02*
X144846840Y-98121920D01*
X142103640Y-97232920D02*
X142179840Y-97232920D01*
X146574040Y-97613920D02*
X146828040Y-97613920D01*
X140503440Y-98223520D02*
X140681240Y-98223520D01*
X148250440Y-98401320D02*
X148529840Y-98401320D01*
X140732040Y-98325120D02*
X141011440Y-98325120D01*
X142967240Y-98452120D02*
X144059440Y-98452120D01*
X148656840Y-97715520D02*
X148987040Y-97715520D01*
X139811800Y-97074800D02*
X140116600Y-97074800D01*
X150460240Y-97817120D02*
X150790440Y-97817120D01*
X139938800Y-96947800D02*
X140243600Y-96947800D01*
X140376440Y-98680720D02*
X142052840Y-98680720D01*
X140122440Y-98172720D02*
X140376440Y-98172720D01*
X139761000Y-97227200D02*
X139972560Y-97227200D01*
X150765040Y-98426720D02*
X151120640Y-98426720D01*
X143500640Y-97359920D02*
X144034040Y-97359920D01*
X144872240Y-98629920D02*
X145710440Y-98629920D01*
X140300240Y-98756920D02*
X141976640Y-98756920D01*
X141976640Y-97664720D02*
X142179840Y-97664720D01*
X143221240Y-97944120D02*
X143576840Y-97944120D01*
X144567440Y-97944120D02*
X144846840Y-97944120D01*
X143297440Y-97766320D02*
X143678440Y-97766320D01*
X150511040Y-97766320D02*
X150841240Y-97766320D01*
X139761000Y-97938400D02*
X139938800Y-97938400D01*
X146574040Y-97385320D02*
X146828040Y-97385320D01*
X150155440Y-97740920D02*
X150409440Y-97740920D01*
X142992640Y-98375920D02*
X144034040Y-98375920D01*
X148656840Y-98248920D02*
X148987040Y-98248920D01*
X144694440Y-98452120D02*
X145177040Y-98452120D01*
X150155440Y-97537720D02*
X150409440Y-97537720D01*
X140401840Y-98325120D02*
X140579640Y-98325120D01*
X140122440Y-98401320D02*
X140173240Y-98401320D01*
X146574040Y-98121920D02*
X146828040Y-98121920D01*
X146574040Y-98274320D02*
X146828040Y-98274320D01*
X148656840Y-97740920D02*
X148961640Y-97740920D01*
X144034040Y-98071120D02*
X144389640Y-98071120D01*
X150434840Y-97842520D02*
X150765040Y-97842520D01*
X144643640Y-98375920D02*
X145024640Y-98375920D01*
X139761000Y-97201800D02*
X139989600Y-97201800D01*
X142941840Y-98502920D02*
X144084840Y-98502920D01*
X140655840Y-98401320D02*
X142179840Y-98401320D01*
X140300240Y-98426720D02*
X140478040Y-98426720D01*
X140935240Y-98121920D02*
X141341640Y-98121920D01*
X144567440Y-98020320D02*
X144846840Y-98020320D01*
X144338840Y-98680720D02*
X144694440Y-98680720D01*
X148783840Y-98452120D02*
X149774440Y-98452120D01*
X141748040Y-97893320D02*
X142179840Y-97893320D01*
X146142240Y-98477520D02*
X146396240Y-98477520D01*
X140782840Y-98274320D02*
X140909840Y-98274320D01*
X140808240Y-98248920D02*
X140884440Y-98248920D01*
X139761000Y-97786000D02*
X139938800Y-97786000D01*
X143119640Y-98121920D02*
X143500640Y-98121920D01*
X143221240Y-97918720D02*
X143602240Y-97918720D01*
X150815840Y-97410720D02*
X151171440Y-97410720D01*
X148225040Y-98325120D02*
X148504440Y-98325120D01*
X143246640Y-97893320D02*
X143602240Y-97893320D01*
X150866640Y-97359920D02*
X151222240Y-97359920D01*
X150968240Y-98655320D02*
X151323840Y-98655320D01*
X141900440Y-97410720D02*
X142103640Y-97410720D01*
X142916440Y-98553720D02*
X144110240Y-98553720D01*
X150841240Y-97385320D02*
X151196840Y-97385320D01*
X150942840Y-97283720D02*
X151298440Y-97283720D01*
X140122440Y-98325120D02*
X140249440Y-98325120D01*
X141849640Y-97791720D02*
X142179840Y-97791720D01*
X146574040Y-98629920D02*
X147615440Y-98629920D01*
X150790440Y-97436120D02*
X151146040Y-97436120D01*
X140427240Y-97055120D02*
X142103640Y-97055120D01*
X150155440Y-97842520D02*
X150409440Y-97842520D01*
X144846840Y-97410720D02*
X145761240Y-97410720D01*
X139761000Y-97379600D02*
X139938800Y-97379600D01*
X139761000Y-97125600D02*
X140065800Y-97125600D01*
X148631440Y-98045720D02*
X148910840Y-98045720D01*
X140122440Y-97639320D02*
X140935240Y-97639320D01*
X148682240Y-98325120D02*
X149063240Y-98325120D01*
X139761000Y-97633600D02*
X139938800Y-97633600D01*
X150155440Y-98553720D02*
X150409440Y-98553720D01*
X145202440Y-98096520D02*
X145837440Y-98096520D01*
X140122440Y-97817120D02*
X140732040Y-97817120D01*
X142637040Y-98782320D02*
X144110240Y-98782320D01*
X145532640Y-98426720D02*
X145837440Y-98426720D01*
X146574040Y-98223520D02*
X146828040Y-98223520D01*
X150790440Y-97461520D02*
X151120640Y-97461520D01*
X140554240Y-98502920D02*
X142179840Y-98502920D01*
X149571240Y-98426720D02*
X149749040Y-98426720D01*
X143272040Y-97817120D02*
X143653040Y-97817120D01*
X146142240Y-97740920D02*
X146396240Y-97740920D01*
X147793240Y-97385320D02*
X148148840Y-97385320D01*
X148123440Y-98045720D02*
X148402840Y-98045720D01*
X148707640Y-97613920D02*
X149063240Y-97613920D01*
X150485640Y-97791720D02*
X150815840Y-97791720D01*
X146142240Y-98375920D02*
X146396240Y-98375920D01*
X140122440Y-98731520D02*
X140173240Y-98731520D01*
X144719840Y-97512320D02*
X145761240Y-97512320D01*
X140325640Y-97156720D02*
X142002040Y-97156720D01*
X140909840Y-98071120D02*
X141367040Y-98071120D01*
X147818640Y-97309120D02*
X148123440Y-97309120D01*
X150790440Y-98452120D02*
X151146040Y-98452120D01*
X144745240Y-98502920D02*
X145837440Y-98502920D01*
X148225040Y-98375920D02*
X148529840Y-98375920D01*
X150155440Y-98579120D02*
X150409440Y-98579120D01*
X144669040Y-98401320D02*
X145050040Y-98401320D01*
X140122440Y-97740920D02*
X140808240Y-97740920D01*
X143653040Y-97080520D02*
X143881640Y-97080520D01*
X150155440Y-98502920D02*
X150409440Y-98502920D01*
X150155440Y-98274320D02*
X150409440Y-98274320D01*
X140065800Y-96820800D02*
X140370600Y-96820800D01*
X150561840Y-98198120D02*
X150917440Y-98198120D01*
X146574040Y-97537720D02*
X146828040Y-97537720D01*
X148225040Y-98350520D02*
X148504440Y-98350520D01*
X140909840Y-98020320D02*
X141392440Y-98020320D01*
X147793240Y-97436120D02*
X148174240Y-97436120D01*
X143678440Y-97029720D02*
X143856240Y-97029720D01*
X140122440Y-97918720D02*
X140630440Y-97918720D01*
X150155440Y-97639320D02*
X150409440Y-97639320D01*
X148072640Y-97918720D02*
X148352040Y-97918720D01*
X150739640Y-98401320D02*
X151095240Y-98401320D01*
X146574040Y-98248920D02*
X146828040Y-98248920D01*
X140503440Y-98553720D02*
X142179840Y-98553720D01*
X148656840Y-97690120D02*
X148987040Y-97690120D01*
X140269000Y-96617600D02*
X141920000Y-96617600D01*
X142078240Y-97563120D02*
X142179840Y-97563120D01*
X143957840Y-97918720D02*
X144313440Y-97918720D01*
X148631440Y-97994920D02*
X148910840Y-97994920D01*
X140478040Y-98248920D02*
X140655840Y-98248920D01*
X140122440Y-97690120D02*
X140859040Y-97690120D01*
X144669040Y-97588520D02*
X145075440Y-97588520D01*
X144592840Y-98198120D02*
X144872240Y-98198120D01*
X141519440Y-98121920D02*
X142179840Y-98121920D01*
X142637040Y-98858520D02*
X144110240Y-98858520D01*
X150536440Y-98172720D02*
X150892040Y-98172720D01*
X140376440Y-97105920D02*
X142052840Y-97105920D01*
X147539240Y-98071120D02*
X147818640Y-98071120D01*
X148910840Y-97385320D02*
X149799840Y-97385320D01*
X146142240Y-98020320D02*
X146396240Y-98020320D01*
X139761000Y-97328800D02*
X139938800Y-97328800D01*
X146142240Y-97537720D02*
X146396240Y-97537720D01*
X146142240Y-97563120D02*
X146396240Y-97563120D01*
X150155440Y-97283720D02*
X150409440Y-97283720D01*
X148631440Y-98020320D02*
X148910840Y-98020320D01*
X146574040Y-97664720D02*
X146828040Y-97664720D01*
X146142240Y-97690120D02*
X146396240Y-97690120D01*
X141595640Y-97715520D02*
X141798840Y-97715520D01*
X146142240Y-97842520D02*
X146396240Y-97842520D01*
X143348240Y-97664720D02*
X143703840Y-97664720D01*
X143145040Y-98096520D02*
X143526040Y-98096520D01*
X143551440Y-97258320D02*
X143983240Y-97258320D01*
X139761000Y-97836800D02*
X139938800Y-97836800D01*
X144364240Y-98731520D02*
X144719840Y-98731520D01*
X140122440Y-97766320D02*
X140782840Y-97766320D01*
X150511040Y-98121920D02*
X150841240Y-98121920D01*
X140173240Y-98883920D02*
X141849640Y-98883920D01*
X150155440Y-98172720D02*
X150409440Y-98172720D01*
X146574040Y-98325120D02*
X146828040Y-98325120D01*
X146142240Y-97385320D02*
X146396240Y-97385320D01*
X144034040Y-98096520D02*
X144415040Y-98096520D01*
X140173240Y-98553720D02*
X140351040Y-98553720D01*
X139761000Y-97989200D02*
X139938800Y-97989200D01*
X140122440Y-97410720D02*
X141748040Y-97410720D01*
X144592840Y-97791720D02*
X144872240Y-97791720D01*
X141544840Y-97791720D02*
X141722640Y-97791720D01*
X150155440Y-97918720D02*
X150688840Y-97918720D01*
X141189240Y-98350520D02*
X142179840Y-98350520D01*
X142941840Y-98477520D02*
X144084840Y-98477520D01*
X143094240Y-98198120D02*
X143475240Y-98198120D01*
X149063240Y-98655320D02*
X149672840Y-98655320D01*
X140909840Y-97893320D02*
X141392440Y-97893320D01*
X148250440Y-98452120D02*
X148555240Y-98452120D01*
X144770640Y-98528320D02*
X145837440Y-98528320D01*
X150155440Y-97969520D02*
X150714240Y-97969520D01*
X149647440Y-98401320D02*
X149749040Y-98401320D01*
X140173240Y-97309120D02*
X141849640Y-97309120D01*
X144110240Y-98223520D02*
X144465840Y-98223520D01*
X143983240Y-97994920D02*
X144364240Y-97994920D01*
X140452640Y-98274320D02*
X140630440Y-98274320D01*
X147767840Y-97512320D02*
X148199640Y-97512320D01*
X139761000Y-98243200D02*
X139938800Y-98243200D01*
X139913400Y-96973200D02*
X140218200Y-96973200D01*
X140122440Y-98375920D02*
X140198640Y-98375920D01*
X140142000Y-96744600D02*
X141920000Y-96744600D01*
X144389640Y-98807720D02*
X144770640Y-98807720D01*
X150155440Y-97994920D02*
X150739640Y-97994920D01*
X141417840Y-97690120D02*
X141468640Y-97690120D01*
X150155440Y-98045720D02*
X150409440Y-98045720D01*
X140122440Y-97512320D02*
X141646440Y-97512320D01*
X145202440Y-97969520D02*
X145837440Y-97969520D01*
X148682240Y-97664720D02*
X149012440Y-97664720D01*
X141621040Y-98020320D02*
X142179840Y-98020320D01*
X141722640Y-97588520D02*
X141925840Y-97588520D01*
X145583440Y-98274320D02*
X145837440Y-98274320D01*
X141824240Y-97486920D02*
X142027440Y-97486920D01*
X144389640Y-98782320D02*
X144745240Y-98782320D01*
X150638040Y-97613920D02*
X150993640Y-97613920D01*
X141875040Y-97436120D02*
X142078240Y-97436120D01*
X143729240Y-96928120D02*
X143805440Y-96928120D01*
X143881640Y-97766320D02*
X144237240Y-97766320D01*
X146574040Y-97486920D02*
X146828040Y-97486920D01*
X143195840Y-97969520D02*
X143576840Y-97969520D01*
X147818640Y-97334520D02*
X148148840Y-97334520D01*
X141773440Y-97867920D02*
X142179840Y-97867920D01*
X146142240Y-98096520D02*
X146396240Y-98096520D01*
X139761000Y-98268600D02*
X139938800Y-98268600D01*
X146142240Y-97309120D02*
X146396240Y-97309120D01*
X150155440Y-97944120D02*
X150688840Y-97944120D01*
X148707640Y-97588520D02*
X149114040Y-97588520D01*
X147996440Y-97690120D02*
X148275840Y-97690120D01*
X147615440Y-97893320D02*
X147869440Y-97893320D01*
X140579640Y-98477520D02*
X142179840Y-98477520D01*
X140452640Y-97029720D02*
X142129040Y-97029720D01*
X150155440Y-97436120D02*
X150409440Y-97436120D01*
X147793240Y-97410720D02*
X148174240Y-97410720D01*
X143932440Y-97893320D02*
X144313440Y-97893320D01*
X143373640Y-97639320D02*
X143729240Y-97639320D01*
X148733040Y-98401320D02*
X149164840Y-98401320D01*
X144135640Y-98299720D02*
X144516640Y-98299720D01*
X148326640Y-98629920D02*
X148606040Y-98629920D01*
X144694440Y-97563120D02*
X145151640Y-97563120D01*
X143856240Y-97715520D02*
X144211840Y-97715520D01*
X140224040Y-98502920D02*
X140401840Y-98502920D01*
X146574040Y-97944120D02*
X146828040Y-97944120D01*
X139761000Y-97481200D02*
X139938800Y-97481200D01*
X150155440Y-98198120D02*
X150409440Y-98198120D01*
X146574040Y-98071120D02*
X146828040Y-98071120D01*
X146142240Y-98045720D02*
X146396240Y-98045720D01*
X146142240Y-97766320D02*
X146396240Y-97766320D01*
X139888000Y-96998600D02*
X140192800Y-96998600D01*
X150511040Y-98147320D02*
X150866640Y-98147320D01*
X150155440Y-97613920D02*
X150409440Y-97613920D01*
X150155440Y-97588520D02*
X150409440Y-97588520D01*
X148072640Y-97867920D02*
X148326640Y-97867920D01*
X144770640Y-97461520D02*
X145786640Y-97461520D01*
X150155440Y-97512320D02*
X150409440Y-97512320D01*
X144059440Y-98147320D02*
X144440440Y-98147320D01*
X144999240Y-98680720D02*
X145583440Y-98680720D01*
X140122440Y-98121920D02*
X140427240Y-98121920D01*
X146574040Y-98655320D02*
X147615440Y-98655320D01*
X140325640Y-98401320D02*
X140503440Y-98401320D01*
X145583440Y-98375920D02*
X145837440Y-98375920D01*
X144719840Y-98477520D02*
X145837440Y-98477520D01*
X144567440Y-98071120D02*
X144846840Y-98071120D01*
X140401840Y-98655320D02*
X142078240Y-98655320D01*
X140122440Y-97385320D02*
X141773440Y-97385320D01*
X144135640Y-98274320D02*
X144491240Y-98274320D01*
X141367040Y-97639320D02*
X141519440Y-97639320D01*
X148682240Y-97639320D02*
X149037840Y-97639320D01*
X146142240Y-98655320D02*
X146396240Y-98655320D01*
X140122440Y-97537720D02*
X141621040Y-97537720D01*
X140122440Y-97563120D02*
X141595640Y-97563120D01*
X144923040Y-97359920D02*
X145659640Y-97359920D01*
X140122440Y-97715520D02*
X140833640Y-97715520D01*
X150892040Y-98579120D02*
X151247640Y-98579120D01*
X140427240Y-98629920D02*
X142103640Y-98629920D01*
X143551440Y-97283720D02*
X143983240Y-97283720D01*
X146574040Y-97994920D02*
X146828040Y-97994920D01*
X150892040Y-97334520D02*
X151247640Y-97334520D01*
X144491240Y-98985520D02*
X144872240Y-98985520D01*
X140909840Y-98045720D02*
X141392440Y-98045720D01*
X143907040Y-97817120D02*
X144262640Y-97817120D01*
X144643640Y-97613920D02*
X145050040Y-97613920D01*
X150765040Y-97486920D02*
X151095240Y-97486920D01*
X150155440Y-98528320D02*
X150409440Y-98528320D01*
X147767840Y-97486920D02*
X148199640Y-97486920D01*
X142992640Y-98401320D02*
X144034040Y-98401320D01*
X143068840Y-98248920D02*
X143449840Y-98248920D01*
X143805440Y-97639320D02*
X144161040Y-97639320D01*
X141443240Y-98223520D02*
X142179840Y-98223520D01*
X148707640Y-98350520D02*
X149088640Y-98350520D01*
X141417840Y-98248920D02*
X142179840Y-98248920D01*
X146574040Y-98020320D02*
X146828040Y-98020320D01*
X141367040Y-98274320D02*
X142179840Y-98274320D01*
X142637040Y-98833120D02*
X144110240Y-98833120D01*
X142002040Y-97309120D02*
X142179840Y-97309120D01*
X146574040Y-97639320D02*
X146828040Y-97639320D01*
X150155440Y-97563120D02*
X150409440Y-97563120D01*
X140986040Y-97766320D02*
X141316240Y-97766320D01*
X150917440Y-98604520D02*
X151273040Y-98604520D01*
X148656840Y-98223520D02*
X148961640Y-98223520D01*
X139761000Y-98446400D02*
X139913400Y-98446400D01*
X141951240Y-97690120D02*
X142179840Y-97690120D01*
X146574040Y-98096520D02*
X146828040Y-98096520D01*
X140122440Y-97944120D02*
X140605040Y-97944120D01*
X139761000Y-97278000D02*
X139938800Y-97278000D01*
X150155440Y-97410720D02*
X150409440Y-97410720D01*
X148987040Y-98629920D02*
X149749040Y-98629920D01*
X139761000Y-97811400D02*
X139938800Y-97811400D01*
X146142240Y-97436120D02*
X146396240Y-97436120D01*
X139761000Y-97684400D02*
X139938800Y-97684400D01*
X144186440Y-98401320D02*
X144567440Y-98401320D01*
X143170440Y-98020320D02*
X143551440Y-98020320D01*
X140909840Y-97918720D02*
X141392440Y-97918720D01*
X146142240Y-98528320D02*
X146396240Y-98528320D01*
X146142240Y-98248920D02*
X146396240Y-98248920D01*
X140122440Y-98680720D02*
X140224040Y-98680720D01*
X140122440Y-97613920D02*
X140960640Y-97613920D01*
X140122440Y-98274320D02*
X140300240Y-98274320D01*
X143475240Y-97410720D02*
X144059440Y-97410720D01*
X147717040Y-97639320D02*
X147971040Y-97639320D01*
X144618240Y-97664720D02*
X144973840Y-97664720D01*
X143449840Y-97486920D02*
X144084840Y-97486920D01*
X146142240Y-97486920D02*
X146396240Y-97486920D01*
X150841240Y-98528320D02*
X151222240Y-98528320D01*
X147640840Y-97842520D02*
X147894840Y-97842520D01*
X150155440Y-97867920D02*
X150409440Y-97867920D01*
X140122440Y-98350520D02*
X140224040Y-98350520D01*
X148885440Y-98553720D02*
X149799840Y-98553720D01*
X147691640Y-97690120D02*
X147945640Y-97690120D01*
X150815840Y-98477520D02*
X151171440Y-98477520D01*
X139761000Y-97557400D02*
X139938800Y-97557400D01*
X147691640Y-97664720D02*
X147945640Y-97664720D01*
X150155440Y-98350520D02*
X150409440Y-98350520D01*
X140605040Y-98452120D02*
X142179840Y-98452120D01*
X140325640Y-98731520D02*
X142002040Y-98731520D01*
X146142240Y-97791720D02*
X146396240Y-97791720D01*
X150155440Y-98147320D02*
X150409440Y-98147320D01*
X148326640Y-98604520D02*
X148606040Y-98604520D01*
X139761000Y-98344800D02*
X139938800Y-98344800D01*
X150434840Y-98045720D02*
X150765040Y-98045720D01*
X146574040Y-97512320D02*
X146828040Y-97512320D01*
X145456440Y-97563120D02*
X145735840Y-97563120D01*
X140122440Y-98096520D02*
X140452640Y-98096520D01*
X144923040Y-98655320D02*
X145659640Y-98655320D01*
X140122440Y-97588520D02*
X141036840Y-97588520D01*
X140351040Y-98706120D02*
X142027440Y-98706120D01*
X141697240Y-97613920D02*
X141900440Y-97613920D01*
X144186440Y-98375920D02*
X144542040Y-98375920D01*
X146574040Y-97359920D02*
X146828040Y-97359920D01*
X141900440Y-97740920D02*
X142179840Y-97740920D01*
X141544840Y-97893320D02*
X141595640Y-97893320D01*
X143602240Y-97156720D02*
X143932440Y-97156720D01*
X140935240Y-98096520D02*
X141367040Y-98096520D01*
X139761000Y-97862200D02*
X139938800Y-97862200D01*
X148301240Y-98528320D02*
X148580640Y-98528320D01*
X139761000Y-98395600D02*
X139938800Y-98395600D01*
X146142240Y-98502920D02*
X146396240Y-98502920D01*
X140122440Y-98045720D02*
X140503440Y-98045720D01*
X144592840Y-97766320D02*
X144897640Y-97766320D01*
X150942840Y-98629920D02*
X151298440Y-98629920D01*
X148021840Y-97740920D02*
X148301240Y-97740920D01*
X148758440Y-97537720D02*
X149215640Y-97537720D01*
X140909840Y-97867920D02*
X141367040Y-97867920D01*
X144110240Y-98248920D02*
X144491240Y-98248920D01*
X141824240Y-97817120D02*
X142179840Y-97817120D01*
X150155440Y-97385320D02*
X150409440Y-97385320D01*
X140351040Y-98375920D02*
X140528840Y-98375920D01*
X150587240Y-97690120D02*
X150917440Y-97690120D01*
X144567440Y-97842520D02*
X144872240Y-97842520D01*
X146142240Y-97664720D02*
X146396240Y-97664720D01*
X140122440Y-98299720D02*
X140274840Y-98299720D01*
X148758440Y-98426720D02*
X149241040Y-98426720D01*
X145583440Y-98248920D02*
X145837440Y-98248920D01*
X150155440Y-98426720D02*
X150409440Y-98426720D01*
X146142240Y-98553720D02*
X146396240Y-98553720D01*
X140122440Y-98020320D02*
X140528840Y-98020320D01*
X141544840Y-97867920D02*
X141621040Y-97867920D01*
X144643640Y-98350520D02*
X144999240Y-98350520D01*
X140452640Y-98604520D02*
X142129040Y-98604520D01*
X147539240Y-98121920D02*
X148428240Y-98121920D01*
X146142240Y-98629920D02*
X146396240Y-98629920D01*
X148961640Y-97359920D02*
X149799840Y-97359920D01*
X144567440Y-97867920D02*
X144846840Y-97867920D01*
X144567440Y-97969520D02*
X144846840Y-97969520D01*
X141290840Y-98325120D02*
X142179840Y-98325120D01*
X140274840Y-98782320D02*
X141951240Y-98782320D01*
X147513840Y-98198120D02*
X148453640Y-98198120D01*
X140503440Y-96978920D02*
X142179840Y-96978920D01*
X147742440Y-97537720D02*
X148225040Y-97537720D01*
X140909840Y-97944120D02*
X141392440Y-97944120D01*
X146574040Y-97867920D02*
X146828040Y-97867920D01*
X139761000Y-98192400D02*
X139938800Y-98192400D01*
X146142240Y-98401320D02*
X146396240Y-98401320D01*
X145202440Y-97944120D02*
X145837440Y-97944120D01*
X143018040Y-98350520D02*
X144008640Y-98350520D01*
X140528840Y-98528320D02*
X142179840Y-98528320D01*
X141570240Y-97740920D02*
X141773440Y-97740920D01*
X143145040Y-98071120D02*
X143526040Y-98071120D01*
X142637040Y-98909320D02*
X144110240Y-98909320D01*
X141951240Y-97359920D02*
X142179840Y-97359920D01*
X146574040Y-97563120D02*
X146828040Y-97563120D01*
X140681240Y-98045720D02*
X140757440Y-98045720D01*
X148682240Y-98274320D02*
X149012440Y-98274320D01*
X150663440Y-97588520D02*
X151019040Y-97588520D01*
X147640840Y-97817120D02*
X147894840Y-97817120D01*
X150155440Y-98121920D02*
X150409440Y-98121920D01*
X146142240Y-97588520D02*
X146396240Y-97588520D01*
X140427240Y-98299720D02*
X140605040Y-98299720D01*
X139761000Y-97913000D02*
X139938800Y-97913000D01*
X140122440Y-97461520D02*
X141697240Y-97461520D01*
X149571240Y-97537720D02*
X149749040Y-97537720D01*
X150155440Y-98071120D02*
X150409440Y-98071120D01*
X140122440Y-97893320D02*
X140655840Y-97893320D01*
X139761000Y-98497200D02*
X139862600Y-98497200D01*
X150155440Y-98655320D02*
X150409440Y-98655320D01*
X143856240Y-97740920D02*
X144211840Y-97740920D01*
X143018040Y-98325120D02*
X144008640Y-98325120D01*
X146574040Y-97817120D02*
X146828040Y-97817120D01*
X145583440Y-98350520D02*
X145837440Y-98350520D01*
X145583440Y-98172720D02*
X145837440Y-98172720D01*
X146142240Y-97817120D02*
X146396240Y-97817120D01*
X140243600Y-96643000D02*
X141920000Y-96643000D01*
X147640840Y-97791720D02*
X147920240Y-97791720D01*
X143907040Y-97842520D02*
X144288040Y-97842520D01*
X143424440Y-97512320D02*
X144110240Y-97512320D01*
X140167400Y-96719200D02*
X141920000Y-96719200D01*
X147590040Y-97944120D02*
X147869440Y-97944120D01*
X144567440Y-98172720D02*
X144872240Y-98172720D01*
X147488440Y-98248920D02*
X148479040Y-98248920D01*
X140122440Y-98756920D02*
X140147840Y-98756920D01*
X145202440Y-98020320D02*
X145837440Y-98020320D01*
X150155440Y-98248920D02*
X150409440Y-98248920D01*
X145202440Y-97918720D02*
X145837440Y-97918720D01*
X144084840Y-98172720D02*
X144440440Y-98172720D01*
X144440440Y-98883920D02*
X144821440Y-98883920D01*
X141646440Y-97994920D02*
X142179840Y-97994920D01*
X148098040Y-97994920D02*
X148377440Y-97994920D01*
X148631440Y-97944120D02*
X148910840Y-97944120D01*
X144008640Y-98020320D02*
X144364240Y-98020320D01*
X139761000Y-97430400D02*
X139938800Y-97430400D01*
X146142240Y-98198120D02*
X146396240Y-98198120D01*
X139761000Y-97405000D02*
X139938800Y-97405000D01*
X140122440Y-98248920D02*
X140325640Y-98248920D01*
X146574040Y-98299720D02*
X146828040Y-98299720D01*
X148123440Y-98071120D02*
X148402840Y-98071120D01*
X140116600Y-96770000D02*
X141920000Y-96770000D01*
X144669040Y-98426720D02*
X145100840Y-98426720D01*
X145583440Y-98325120D02*
X145837440Y-98325120D01*
X147590040Y-97969520D02*
X147844040Y-97969520D01*
X150663440Y-98299720D02*
X150993640Y-98299720D01*
X139761000Y-98370200D02*
X139938800Y-98370200D01*
X147437640Y-98375920D02*
X147717040Y-98375920D01*
X141443240Y-97715520D02*
X141468640Y-97715520D01*
X142637040Y-98985520D02*
X144110240Y-98985520D01*
X146142240Y-98452120D02*
X146396240Y-98452120D01*
X144846840Y-98604520D02*
X145735840Y-98604520D01*
X144415040Y-98858520D02*
X144796040Y-98858520D01*
X146574040Y-98502920D02*
X147666240Y-98502920D01*
X147564640Y-98045720D02*
X147818640Y-98045720D01*
X150714240Y-97537720D02*
X151044440Y-97537720D01*
X141595640Y-98045720D02*
X142179840Y-98045720D01*
X143297440Y-97791720D02*
X143653040Y-97791720D01*
X144313440Y-98655320D02*
X144694440Y-98655320D01*
X139761000Y-98217800D02*
X139938800Y-98217800D01*
X147818640Y-97359920D02*
X148148840Y-97359920D01*
X145202440Y-97994920D02*
X145837440Y-97994920D01*
X150155440Y-98299720D02*
X150409440Y-98299720D01*
X144592840Y-97715520D02*
X144923040Y-97715520D01*
X147437640Y-98401320D02*
X147717040Y-98401320D01*
X142103640Y-97207520D02*
X142179840Y-97207520D01*
X143043440Y-98274320D02*
X143983240Y-98274320D01*
X146142240Y-97613920D02*
X146396240Y-97613920D01*
X142103640Y-97537720D02*
X142179840Y-97537720D01*
X146574040Y-97791720D02*
X146828040Y-97791720D01*
X140122440Y-97867920D02*
X140681240Y-97867920D01*
X142916440Y-98579120D02*
X144110240Y-98579120D01*
X147844040Y-97283720D02*
X148123440Y-97283720D01*
X150155440Y-98477520D02*
X150409440Y-98477520D01*
X144288040Y-98604520D02*
X144669040Y-98604520D01*
X140198640Y-98858520D02*
X141875040Y-98858520D01*
X140478040Y-97004320D02*
X142179840Y-97004320D01*
X140706640Y-98350520D02*
X141087640Y-98350520D01*
X148733040Y-97563120D02*
X149164840Y-97563120D01*
X147996440Y-97664720D02*
X148275840Y-97664720D01*
X142637040Y-98960120D02*
X144110240Y-98960120D01*
X146574040Y-97309120D02*
X146828040Y-97309120D01*
X143475240Y-97436120D02*
X144059440Y-97436120D01*
X147564640Y-98020320D02*
X147844040Y-98020320D01*
X143805440Y-97613920D02*
X144161040Y-97613920D01*
X145202440Y-98071120D02*
X145837440Y-98071120D01*
X140122440Y-98960120D02*
X141773440Y-98960120D01*
X140122440Y-97486920D02*
X141671840Y-97486920D01*
X147615440Y-97867920D02*
X147894840Y-97867920D01*
X148631440Y-98172720D02*
X148936240Y-98172720D01*
X147996440Y-97639320D02*
X148250440Y-97639320D01*
X148631440Y-97842520D02*
X148910840Y-97842520D01*
X146574040Y-98604520D02*
X147640840Y-98604520D01*
X140192800Y-96693800D02*
X141920000Y-96693800D01*
X141646440Y-97664720D02*
X141849640Y-97664720D01*
X148098040Y-97969520D02*
X148377440Y-97969520D01*
X142052840Y-97588520D02*
X142179840Y-97588520D01*
X150155440Y-97715520D02*
X150409440Y-97715520D01*
X150155440Y-97309120D02*
X150409440Y-97309120D01*
X150612640Y-98248920D02*
X150968240Y-98248920D01*
X148352040Y-98655320D02*
X148631440Y-98655320D01*
X146142240Y-98350520D02*
X146396240Y-98350520D01*
X143780040Y-97588520D02*
X144135640Y-97588520D01*
X148631440Y-98071120D02*
X148910840Y-98071120D01*
X141798840Y-97512320D02*
X142002040Y-97512320D01*
X150155440Y-97893320D02*
X150714240Y-97893320D01*
X144465840Y-98960120D02*
X144846840Y-98960120D01*
X146574040Y-97283720D02*
X146828040Y-97283720D01*
X140122440Y-98147320D02*
X140401840Y-98147320D01*
X143272040Y-97842520D02*
X143627640Y-97842520D01*
X139761000Y-97963800D02*
X139938800Y-97963800D01*
X140198640Y-98528320D02*
X140376440Y-98528320D01*
X148021840Y-97715520D02*
X148275840Y-97715520D01*
X143881640Y-97791720D02*
X144262640Y-97791720D01*
X147463040Y-98299720D02*
X148504440Y-98299720D01*
X145608840Y-97613920D02*
X145710440Y-97613920D01*
X144237240Y-98477520D02*
X144592840Y-98477520D01*
X146574040Y-97893320D02*
X146828040Y-97893320D01*
X148783840Y-97486920D02*
X149749040Y-97486920D01*
X144770640Y-98553720D02*
X145812040Y-98553720D01*
X140122440Y-97969520D02*
X140579640Y-97969520D01*
X145583440Y-98198120D02*
X145837440Y-98198120D01*
X143399040Y-97563120D02*
X143754640Y-97563120D01*
X146142240Y-97867920D02*
X146396240Y-97867920D01*
X141925840Y-97385320D02*
X142129040Y-97385320D01*
X146574040Y-98579120D02*
X147640840Y-98579120D01*
X143195840Y-97994920D02*
X143551440Y-97994920D01*
X140833640Y-98223520D02*
X140859040Y-98223520D01*
X143449840Y-97461520D02*
X144084840Y-97461520D01*
X144211840Y-98426720D02*
X144567440Y-98426720D01*
X140478040Y-98579120D02*
X142154440Y-98579120D01*
X140960640Y-97791720D02*
X141341640Y-97791720D01*
X140122440Y-98934720D02*
X141798840Y-98934720D01*
X150663440Y-98325120D02*
X151019040Y-98325120D01*
X141671840Y-97639320D02*
X141875040Y-97639320D01*
X140300240Y-97182120D02*
X141976640Y-97182120D01*
X140147840Y-97334520D02*
X141824240Y-97334520D01*
X144592840Y-98223520D02*
X144897640Y-98223520D01*
X144872240Y-97385320D02*
X145710440Y-97385320D01*
X141544840Y-97842520D02*
X141646440Y-97842520D01*
X147742440Y-97563120D02*
X148225040Y-97563120D01*
X145583440Y-98147320D02*
X145837440Y-98147320D01*
X150155440Y-97766320D02*
X150409440Y-97766320D01*
X140732040Y-97994920D02*
X140757440Y-97994920D01*
X140605040Y-98121920D02*
X140757440Y-98121920D01*
X148631440Y-97791720D02*
X148936240Y-97791720D01*
X139761000Y-98090800D02*
X139938800Y-98090800D01*
X140274840Y-97207520D02*
X141951240Y-97207520D01*
X148809240Y-98502920D02*
X149799840Y-98502920D01*
X150155440Y-98096520D02*
X150409440Y-98096520D01*
X140960640Y-98147320D02*
X141341640Y-98147320D01*
X141341640Y-98299720D02*
X142179840Y-98299720D01*
X147717040Y-97588520D02*
X148225040Y-97588520D01*
X140528840Y-98198120D02*
X140706640Y-98198120D01*
X140122440Y-98629920D02*
X140274840Y-98629920D01*
X147463040Y-98325120D02*
X147742440Y-98325120D01*
X143043440Y-98299720D02*
X143983240Y-98299720D01*
X140224040Y-98833120D02*
X141900440Y-98833120D01*
X139761000Y-98167000D02*
X139938800Y-98167000D01*
X146142240Y-97461520D02*
X146396240Y-97461520D01*
X146142240Y-98274320D02*
X146396240Y-98274320D01*
X139761000Y-98116200D02*
X139938800Y-98116200D01*
D12*
%TO.C,C1*%
X132508000Y-113238000D02*
X133524000Y-113238000D01*
X133524000Y-113238000D02*
X133524000Y-114762000D01*
X131492000Y-114762000D02*
X130476000Y-114762000D01*
X130476000Y-113238000D02*
X131492000Y-113238000D01*
X130476000Y-114762000D02*
X130476000Y-113238000D01*
X133524000Y-114762000D02*
X132508000Y-114762000D01*
%TO.C,R7*%
X152357000Y-99865000D02*
X154643000Y-99865000D01*
X154643000Y-99865000D02*
X154643000Y-101135000D01*
X152357000Y-101135000D02*
X152357000Y-99865000D01*
X154643000Y-101135000D02*
X152357000Y-101135000D01*
%TO.C,R8*%
X145865000Y-110857000D02*
X147135000Y-110857000D01*
X147135000Y-110857000D02*
X147135000Y-113143000D01*
X147135000Y-113143000D02*
X145865000Y-113143000D01*
X145865000Y-113143000D02*
X145865000Y-110857000D01*
%TO.C,C3*%
X163365000Y-101643000D02*
X163365000Y-99357000D01*
X164635000Y-101643000D02*
X163365000Y-101643000D01*
X164635000Y-99357000D02*
X164635000Y-101643000D01*
X163365000Y-99357000D02*
X164635000Y-99357000D01*
%TO.C,R5*%
X150893000Y-108115000D02*
X150893000Y-109385000D01*
X148607000Y-109385000D02*
X148607000Y-108115000D01*
X150893000Y-109385000D02*
X148607000Y-109385000D01*
X148607000Y-108115000D02*
X150893000Y-108115000D01*
%TO.C,C2*%
X139635000Y-114643000D02*
X138365000Y-114643000D01*
X138365000Y-114643000D02*
X138365000Y-112357000D01*
X138365000Y-112357000D02*
X139635000Y-112357000D01*
X139635000Y-112357000D02*
X139635000Y-114643000D01*
%TO.C,D1*%
X142476000Y-112012000D02*
X142476000Y-110488000D01*
X142476000Y-110488000D02*
X143492000Y-110488000D01*
X145524000Y-110488000D02*
X145524000Y-112012000D01*
X143492000Y-112012000D02*
X142476000Y-112012000D01*
X145524000Y-112012000D02*
X144508000Y-112012000D01*
X144508000Y-110488000D02*
X145524000Y-110488000D01*
%TO.C,L1*%
X134357000Y-113365000D02*
X136643000Y-113365000D01*
X136643000Y-114635000D02*
X134357000Y-114635000D01*
X136643000Y-113365000D02*
X136643000Y-114635000D01*
X134357000Y-114635000D02*
X134357000Y-113365000D01*
D11*
%TO.C,U1*%
X143492000Y-109445000D02*
X144762000Y-109445000D01*
X141714000Y-110080000D02*
X141714000Y-99920000D01*
X146540000Y-99920000D02*
X146540000Y-110080000D01*
X146540000Y-110080000D02*
X141714000Y-110080000D01*
X143492000Y-110080000D02*
X143492000Y-109445000D01*
X144762000Y-109445000D02*
X144762000Y-110080000D01*
X141714000Y-99920000D02*
X146540000Y-99920000D01*
%TO.C,P1*%
X132000000Y-97380000D02*
X129460000Y-97380000D01*
X132000000Y-112620000D02*
X129460000Y-112620000D01*
X132000000Y-112620000D02*
X132000000Y-97380000D01*
X129460000Y-97380000D02*
X129460000Y-112620000D01*
D12*
%TO.C,C4*%
X149635000Y-109857000D02*
X149635000Y-112143000D01*
X148365000Y-112143000D02*
X148365000Y-109857000D01*
X148365000Y-109857000D02*
X149635000Y-109857000D01*
X149635000Y-112143000D02*
X148365000Y-112143000D01*
%TO.C,R4*%
X153143000Y-104135000D02*
X150857000Y-104135000D01*
X150857000Y-104135000D02*
X150857000Y-102865000D01*
X153143000Y-102865000D02*
X153143000Y-104135000D01*
X150857000Y-102865000D02*
X153143000Y-102865000D01*
%TO.C,L2*%
X158357000Y-99865000D02*
X160643000Y-99865000D01*
X160643000Y-99865000D02*
X160643000Y-101135000D01*
X158357000Y-101135000D02*
X158357000Y-99865000D01*
X160643000Y-101135000D02*
X158357000Y-101135000D01*
D14*
%TO.C,U2*%
X162500000Y-106500000D02*
X162500000Y-103500000D01*
X165500000Y-106500000D02*
X165500000Y-103500000D01*
D13*
%TO.C,logo_ohw*%
X151412500Y-112604900D02*
X152631700Y-112604900D01*
X153571500Y-111284100D02*
X155324100Y-111284100D01*
X154155700Y-113189100D02*
X154714500Y-113189100D01*
X153647700Y-113189100D02*
X153723900Y-113189100D01*
X152555500Y-109836300D02*
X153419100Y-109836300D01*
X152606300Y-109607700D02*
X153393700Y-109607700D01*
X151387100Y-109836300D02*
X151844300Y-109836300D01*
X153495300Y-111131700D02*
X155197100Y-111131700D01*
X154003300Y-113087500D02*
X154765300Y-113087500D01*
X153292100Y-112274700D02*
X154587500Y-112274700D01*
X154130300Y-109810900D02*
X154587500Y-109810900D01*
X151488700Y-110623700D02*
X154485900Y-110623700D01*
X151387100Y-112630300D02*
X152606300Y-112630300D01*
X151336300Y-112096900D02*
X152758700Y-112096900D01*
X151285500Y-111944500D02*
X152555500Y-111944500D01*
X153571500Y-113011300D02*
X154816100Y-113011300D01*
X151310900Y-111995300D02*
X152606300Y-111995300D01*
X153317500Y-110979300D02*
X154663700Y-110979300D01*
X153622300Y-113163700D02*
X153774700Y-113163700D01*
X152580900Y-109734700D02*
X153393700Y-109734700D01*
X151463300Y-109760100D02*
X151742700Y-109760100D01*
X153520700Y-112884300D02*
X154892300Y-112884300D01*
X153266700Y-110953900D02*
X154663700Y-110953900D01*
X150675900Y-111411100D02*
X152377700Y-111411100D01*
X151234700Y-112833500D02*
X152530100Y-112833500D01*
X153393700Y-112579500D02*
X154689100Y-112579500D01*
X154257300Y-113290700D02*
X154714500Y-113290700D01*
X150701300Y-111207900D02*
X152453900Y-111207900D01*
X151285500Y-111106300D02*
X152530100Y-111106300D01*
X153495300Y-111893700D02*
X154714500Y-111893700D01*
X151158500Y-113011300D02*
X152479300Y-113011300D01*
X154460500Y-113417700D02*
X154663700Y-113417700D01*
X150650500Y-111665100D02*
X152403100Y-111665100D01*
X153444500Y-112706500D02*
X154765300Y-112706500D01*
X150675900Y-111715900D02*
X152403100Y-111715900D01*
X151564900Y-109683900D02*
X151641100Y-109683900D01*
X150675900Y-111233300D02*
X152453900Y-111233300D01*
X151336300Y-111004700D02*
X152657100Y-111004700D01*
X151412500Y-112300100D02*
X152733300Y-112300100D01*
X151412500Y-112274700D02*
X152733300Y-112274700D01*
X153393700Y-111995300D02*
X154689100Y-111995300D01*
X151209300Y-112884300D02*
X152530100Y-112884300D01*
X153469900Y-112757300D02*
X154790700Y-112757300D01*
X152301500Y-113189100D02*
X152403100Y-113189100D01*
X153647700Y-113214500D02*
X153673100Y-113214500D01*
X153114300Y-110903100D02*
X154638300Y-110903100D01*
X151412500Y-110496700D02*
X154562100Y-110496700D01*
X151463300Y-113417700D02*
X151691900Y-113417700D01*
X154206500Y-113239900D02*
X154714500Y-113239900D01*
X153317500Y-112325500D02*
X154562100Y-112325500D01*
X151361700Y-113214500D02*
X151920500Y-113214500D01*
X150980700Y-111157100D02*
X152504700Y-111157100D01*
X150675900Y-111690500D02*
X152403100Y-111690500D01*
X152580900Y-109785500D02*
X153419100Y-109785500D01*
X153571500Y-111792100D02*
X155298700Y-111792100D01*
X153546100Y-111842900D02*
X154993900Y-111842900D01*
X153546100Y-112960500D02*
X154866900Y-112960500D01*
X153952500Y-109937900D02*
X154714500Y-109937900D01*
X150675900Y-111741300D02*
X152428500Y-111741300D01*
X151412500Y-109810900D02*
X151818900Y-109810900D01*
X152174500Y-113138300D02*
X152428500Y-113138300D01*
X151158500Y-112985900D02*
X152479300Y-112985900D01*
X153546100Y-111207900D02*
X155324100Y-111207900D01*
X152631700Y-109531500D02*
X153368300Y-109531500D01*
X151183900Y-110064900D02*
X154816100Y-110064900D01*
X150675900Y-111258700D02*
X152428500Y-111258700D01*
X153368300Y-112020700D02*
X154689100Y-112020700D01*
X152631700Y-109506100D02*
X153368300Y-109506100D01*
X151437900Y-112350900D02*
X152707900Y-112350900D01*
X153266700Y-112249300D02*
X154612900Y-112249300D01*
X151234700Y-113087500D02*
X152453900Y-113087500D01*
X152276100Y-109937900D02*
X153723900Y-109937900D01*
X153469900Y-111106300D02*
X155044700Y-111106300D01*
X150650500Y-111512700D02*
X152377700Y-111512700D01*
X153596900Y-111741300D02*
X155324100Y-111741300D01*
X153495300Y-112782700D02*
X154816100Y-112782700D01*
X151412500Y-112579500D02*
X152631700Y-112579500D01*
X151158500Y-110090300D02*
X154816100Y-110090300D01*
X150650500Y-111639700D02*
X152377700Y-111639700D01*
X151437900Y-110725300D02*
X154562100Y-110725300D01*
X150675900Y-111792100D02*
X152428500Y-111792100D01*
X153444500Y-112681100D02*
X154739900Y-112681100D01*
X153342900Y-112401700D02*
X154562100Y-112401700D01*
X152326900Y-109912500D02*
X153647700Y-109912500D01*
X152352300Y-113214500D02*
X152403100Y-113214500D01*
X153393700Y-112528700D02*
X154638300Y-112528700D01*
X153393700Y-111030100D02*
X154689100Y-111030100D01*
X153596900Y-111360300D02*
X155324100Y-111360300D01*
X154409700Y-113366900D02*
X154689100Y-113366900D01*
X153342900Y-112046100D02*
X154689100Y-112046100D01*
X153520700Y-111182500D02*
X155298700Y-111182500D01*
X151412500Y-113341500D02*
X151742700Y-113341500D01*
X151488700Y-112503300D02*
X152657100Y-112503300D01*
X153368300Y-112452500D02*
X154587500Y-112452500D01*
X152250700Y-113163700D02*
X152428500Y-113163700D01*
X151183900Y-110039500D02*
X154790700Y-110039500D01*
X152631700Y-109455300D02*
X153368300Y-109455300D01*
X154104900Y-109836300D02*
X154612900Y-109836300D01*
X151437900Y-110522100D02*
X154536700Y-110522100D01*
X153622300Y-111665100D02*
X155349500Y-111665100D01*
X150777500Y-111842900D02*
X152479300Y-111842900D01*
X153190500Y-110928500D02*
X154638300Y-110928500D01*
X152606300Y-109658500D02*
X153393700Y-109658500D01*
X153292100Y-112071500D02*
X154663700Y-112071500D01*
X153419100Y-112604900D02*
X154689100Y-112604900D01*
X150675900Y-111436500D02*
X152377700Y-111436500D01*
X151539500Y-109709300D02*
X151666500Y-109709300D01*
X153546100Y-112935100D02*
X154892300Y-112935100D01*
X151310900Y-110344300D02*
X154663700Y-110344300D01*
X154028700Y-109887100D02*
X154663700Y-109887100D01*
X151387100Y-112223900D02*
X152758700Y-112223900D01*
X152606300Y-109683900D02*
X153393700Y-109683900D01*
X153469900Y-112731900D02*
X154790700Y-112731900D01*
X153495300Y-112808100D02*
X154841500Y-112808100D01*
X151387100Y-110852300D02*
X154612900Y-110852300D01*
X151285500Y-112757300D02*
X152555500Y-112757300D01*
X151310900Y-111030100D02*
X152606300Y-111030100D01*
X150650500Y-111538100D02*
X152377700Y-111538100D01*
X151463300Y-112376300D02*
X152707900Y-112376300D01*
X153241300Y-112122300D02*
X154663700Y-112122300D01*
X153622300Y-113138300D02*
X153825500Y-113138300D01*
X151285500Y-112782700D02*
X152555500Y-112782700D01*
X151183900Y-112909700D02*
X152504700Y-112909700D01*
X151260100Y-113112900D02*
X152453900Y-113112900D01*
X150675900Y-111284100D02*
X152428500Y-111284100D01*
X151437900Y-109785500D02*
X151793500Y-109785500D01*
X151488700Y-112477900D02*
X152657100Y-112477900D01*
X152580900Y-109760100D02*
X153419100Y-109760100D01*
X153419100Y-112630300D02*
X154714500Y-112630300D01*
X153596900Y-113087500D02*
X153952500Y-113087500D01*
X151437900Y-113366900D02*
X151717300Y-113366900D01*
X153622300Y-113112900D02*
X153876300Y-113112900D01*
X151361700Y-110877700D02*
X154612900Y-110877700D01*
X152580900Y-109709300D02*
X153393700Y-109709300D01*
X154511300Y-113468500D02*
X154612900Y-113468500D01*
X154257300Y-109734700D02*
X154485900Y-109734700D01*
X154333500Y-109683900D02*
X154435100Y-109683900D01*
X153571500Y-113036700D02*
X154790700Y-113036700D01*
X152682500Y-109226700D02*
X153317500Y-109226700D01*
X151412500Y-113265300D02*
X151844300Y-113265300D01*
X153977900Y-109912500D02*
X154689100Y-109912500D01*
X153622300Y-111411100D02*
X155324100Y-111411100D01*
X151539500Y-113493900D02*
X151641100Y-113493900D01*
X151488700Y-112452500D02*
X152682500Y-112452500D01*
X151310900Y-113163700D02*
X151996700Y-113163700D01*
X151437900Y-113392300D02*
X151691900Y-113392300D01*
X154079500Y-113112900D02*
X154739900Y-113112900D01*
X153393700Y-112554100D02*
X154663700Y-112554100D01*
X153622300Y-111436500D02*
X155349500Y-111436500D01*
X151361700Y-109861700D02*
X151895100Y-109861700D01*
X154231900Y-113265300D02*
X154714500Y-113265300D01*
X151133100Y-111131700D02*
X152504700Y-111131700D01*
X153571500Y-111258700D02*
X155324100Y-111258700D01*
X152657100Y-109353700D02*
X153342900Y-109353700D01*
X151412500Y-110471300D02*
X154587500Y-110471300D01*
X150675900Y-111385700D02*
X152403100Y-111385700D01*
X151463300Y-110699900D02*
X154536700Y-110699900D01*
X151183900Y-110166500D02*
X154790700Y-110166500D01*
X151412500Y-110776100D02*
X154587500Y-110776100D01*
X150828300Y-111182500D02*
X152479300Y-111182500D01*
X153622300Y-111538100D02*
X155349500Y-111538100D01*
X151336300Y-112706500D02*
X152580900Y-112706500D01*
X153444500Y-111969900D02*
X154689100Y-111969900D01*
X151260100Y-109963300D02*
X152022100Y-109963300D01*
X152606300Y-109582300D02*
X153393700Y-109582300D01*
X151437900Y-112325500D02*
X152707900Y-112325500D01*
X150650500Y-111614300D02*
X152377700Y-111614300D01*
X154054100Y-109861700D02*
X154638300Y-109861700D01*
X151564900Y-113519300D02*
X151641100Y-113519300D01*
X153368300Y-112503300D02*
X154638300Y-112503300D01*
X151387100Y-113239900D02*
X151869700Y-113239900D01*
X150650500Y-111588900D02*
X152377700Y-111588900D01*
X151310900Y-112046100D02*
X152657100Y-112046100D01*
X151412500Y-113290700D02*
X151793500Y-113290700D01*
X151336300Y-110979300D02*
X152682500Y-110979300D01*
X151514100Y-109734700D02*
X151717300Y-109734700D01*
X153520700Y-111868300D02*
X154816100Y-111868300D01*
X151463300Y-110674500D02*
X154536700Y-110674500D01*
X151514100Y-113468500D02*
X151666500Y-113468500D01*
X153495300Y-112833500D02*
X154866900Y-112833500D01*
X151336300Y-109887100D02*
X151920500Y-109887100D01*
X154536700Y-113493900D02*
X154587500Y-113493900D01*
X151209300Y-110014100D02*
X152098300Y-110014100D01*
X151209300Y-112858900D02*
X152530100Y-112858900D01*
X153419100Y-111055500D02*
X154765300Y-111055500D01*
X153317500Y-112350900D02*
X154562100Y-112350900D01*
X151336300Y-112071500D02*
X152707900Y-112071500D01*
X150650500Y-111487300D02*
X152377700Y-111487300D01*
X151260100Y-110268100D02*
X154714500Y-110268100D01*
X153571500Y-112985900D02*
X154841500Y-112985900D01*
X152631700Y-109429900D02*
X153368300Y-109429900D01*
X154485900Y-113443100D02*
X154638300Y-113443100D01*
X153622300Y-111588900D02*
X155349500Y-111588900D01*
X152580900Y-109810900D02*
X153419100Y-109810900D01*
X153444500Y-112655700D02*
X154739900Y-112655700D01*
X154282700Y-109709300D02*
X154460500Y-109709300D01*
X150675900Y-111817500D02*
X152453900Y-111817500D01*
X151336300Y-112681100D02*
X152606300Y-112681100D01*
X151234700Y-110242700D02*
X154739900Y-110242700D01*
X151056900Y-111893700D02*
X152504700Y-111893700D01*
X151488700Y-112427100D02*
X152682500Y-112427100D01*
X153342900Y-111004700D02*
X154663700Y-111004700D01*
X153241300Y-112147700D02*
X154638300Y-112147700D01*
X153622300Y-111639700D02*
X155349500Y-111639700D01*
X152403100Y-109887100D02*
X153596900Y-109887100D01*
X154308100Y-113316100D02*
X154714500Y-113316100D01*
X151310900Y-111080900D02*
X152555500Y-111080900D01*
X150675900Y-111309500D02*
X152403100Y-111309500D01*
X151463300Y-112401700D02*
X152682500Y-112401700D01*
X150675900Y-111766700D02*
X152428500Y-111766700D01*
X154130300Y-113163700D02*
X154689100Y-113163700D01*
X153292100Y-112300100D02*
X154587500Y-112300100D01*
X153368300Y-112477900D02*
X154612900Y-112477900D01*
X152479300Y-109861700D02*
X153520700Y-109861700D01*
X153927100Y-109963300D02*
X154739900Y-109963300D01*
X151387100Y-110826900D02*
X154612900Y-110826900D01*
X151361700Y-112198500D02*
X152758700Y-112198500D01*
X151183900Y-110141100D02*
X154816100Y-110141100D01*
X151209300Y-110191900D02*
X154790700Y-110191900D01*
X151463300Y-110572900D02*
X154511300Y-110572900D01*
X150675900Y-111334900D02*
X152403100Y-111334900D01*
X151310900Y-112731900D02*
X152580900Y-112731900D01*
X151361700Y-112147700D02*
X152784100Y-112147700D01*
X153622300Y-111385700D02*
X155324100Y-111385700D01*
X150904500Y-111868300D02*
X152479300Y-111868300D01*
X152123700Y-110014100D02*
X154790700Y-110014100D01*
X151412500Y-110801500D02*
X154587500Y-110801500D01*
X150650500Y-111461900D02*
X152377700Y-111461900D01*
X151310900Y-110318900D02*
X154689100Y-110318900D01*
X151387100Y-112249300D02*
X152758700Y-112249300D01*
X154435100Y-113392300D02*
X154663700Y-113392300D01*
X151336300Y-110369700D02*
X154663700Y-110369700D01*
X151412500Y-113316100D02*
X151768100Y-113316100D01*
X152657100Y-109379100D02*
X153342900Y-109379100D01*
X153876300Y-109988700D02*
X154765300Y-109988700D01*
X152834900Y-109201300D02*
X153088900Y-109201300D01*
X152657100Y-109302900D02*
X153342900Y-109302900D01*
X153596900Y-111334900D02*
X155324100Y-111334900D01*
X151158500Y-112960500D02*
X152504700Y-112960500D01*
X151310900Y-111969900D02*
X152555500Y-111969900D01*
X151336300Y-112122300D02*
X152784100Y-112122300D01*
X151488700Y-113443100D02*
X151666500Y-113443100D01*
X151285500Y-109937900D02*
X151996700Y-109937900D01*
X151310900Y-109912500D02*
X151971300Y-109912500D01*
X154104900Y-113138300D02*
X154714500Y-113138300D01*
X151361700Y-112655700D02*
X152606300Y-112655700D01*
X153546100Y-112909700D02*
X154892300Y-112909700D01*
X151361700Y-110395100D02*
X154638300Y-110395100D01*
X152606300Y-109556900D02*
X153368300Y-109556900D01*
X152631700Y-109480700D02*
X153368300Y-109480700D01*
X151361700Y-110903100D02*
X152885700Y-110903100D01*
X151361700Y-110928500D02*
X152809500Y-110928500D01*
X151336300Y-113189100D02*
X151945900Y-113189100D01*
X151463300Y-110547500D02*
X154511300Y-110547500D01*
X152225300Y-109963300D02*
X153774700Y-109963300D01*
X151310900Y-112020700D02*
X152631700Y-112020700D01*
X152174500Y-109988700D02*
X153825500Y-109988700D01*
X153266700Y-112223900D02*
X154612900Y-112223900D01*
X153266700Y-112198500D02*
X154612900Y-112198500D01*
X152657100Y-109277500D02*
X153342900Y-109277500D01*
X153622300Y-111614300D02*
X155349500Y-111614300D01*
X153317500Y-112376300D02*
X154536700Y-112376300D01*
X153622300Y-111461900D02*
X155349500Y-111461900D01*
X151361700Y-112173100D02*
X152784100Y-112173100D01*
X153622300Y-111487300D02*
X155349500Y-111487300D01*
X153546100Y-111233300D02*
X155324100Y-111233300D01*
X154358900Y-113341500D02*
X154689100Y-113341500D01*
X152682500Y-109252100D02*
X153317500Y-109252100D01*
X152657100Y-109404500D02*
X153342900Y-109404500D01*
X151488700Y-110649100D02*
X154511300Y-110649100D01*
X152657100Y-109328300D02*
X153342900Y-109328300D01*
X151310900Y-111055500D02*
X152580900Y-111055500D01*
X151183900Y-113036700D02*
X152479300Y-113036700D01*
X151463300Y-112528700D02*
X152657100Y-112528700D01*
X151285500Y-110293500D02*
X154714500Y-110293500D01*
X153571500Y-111766700D02*
X155324100Y-111766700D01*
X153241300Y-112096900D02*
X154663700Y-112096900D01*
X153596900Y-113062100D02*
X154790700Y-113062100D01*
X153444500Y-111080900D02*
X154917700Y-111080900D01*
X151285500Y-113138300D02*
X152047500Y-113138300D01*
X153596900Y-111309500D02*
X155324100Y-111309500D01*
X151158500Y-112935100D02*
X152504700Y-112935100D01*
X152606300Y-109633100D02*
X153393700Y-109633100D01*
X151488700Y-110598300D02*
X154485900Y-110598300D01*
X153342900Y-112427100D02*
X154562100Y-112427100D01*
X151387100Y-110445900D02*
X154587500Y-110445900D01*
X153596900Y-111715900D02*
X155324100Y-111715900D01*
X151336300Y-110953900D02*
X152733300Y-110953900D01*
X151437900Y-110750700D02*
X154562100Y-110750700D01*
X151234700Y-109988700D02*
X152072900Y-109988700D01*
X154155700Y-113214500D02*
X154714500Y-113214500D01*
X153520700Y-112858900D02*
X154866900Y-112858900D01*
X151361700Y-110420500D02*
X154612900Y-110420500D01*
X153469900Y-111919100D02*
X154714500Y-111919100D01*
X151234700Y-110217300D02*
X154765300Y-110217300D01*
X153596900Y-111690500D02*
X155349500Y-111690500D01*
X154206500Y-109760100D02*
X154536700Y-109760100D01*
X153495300Y-111157100D02*
X155298700Y-111157100D01*
X150675900Y-111360300D02*
X152403100Y-111360300D01*
X151437900Y-112554100D02*
X152631700Y-112554100D01*
X153622300Y-111512700D02*
X155349500Y-111512700D01*
X151260100Y-112808100D02*
X152555500Y-112808100D01*
X151158500Y-110115700D02*
X154816100Y-110115700D01*
X150650500Y-111563500D02*
X152377700Y-111563500D01*
X151183900Y-111919100D02*
X152530100Y-111919100D01*
X154181100Y-109785500D02*
X154562100Y-109785500D01*
X153241300Y-112173100D02*
X154638300Y-112173100D01*
X151209300Y-113062100D02*
X152453900Y-113062100D01*
X153469900Y-111944500D02*
X154714500Y-111944500D01*
X153546100Y-111817500D02*
X155146300Y-111817500D01*
X153622300Y-111563500D02*
X155349500Y-111563500D01*
D12*
%TO.C,R2*%
X156135000Y-101607000D02*
X156135000Y-103893000D01*
X154865000Y-101607000D02*
X156135000Y-101607000D01*
X154865000Y-103893000D02*
X154865000Y-101607000D01*
X156135000Y-103893000D02*
X154865000Y-103893000D01*
%TO.C,R3*%
X150857000Y-104615000D02*
X153143000Y-104615000D01*
X153143000Y-105885000D02*
X150857000Y-105885000D01*
X150857000Y-105885000D02*
X150857000Y-104615000D01*
X153143000Y-104615000D02*
X153143000Y-105885000D01*
%TO.C,Q1*%
X156119000Y-96476000D02*
X156881000Y-96476000D01*
X156881000Y-96476000D02*
X156881000Y-99524000D01*
X156119000Y-99524000D02*
X156119000Y-96476000D01*
X156881000Y-99524000D02*
X156119000Y-99524000D01*
%TD*%
M02*
