%TF.GenerationSoftware,KiCad,Pcbnew,6.0.0*%
%TF.CreationDate,2022-08-14T07:42:52+02:00*%
%TF.ProjectId,pmod-trh,706d6f64-2d74-4726-982e-6b696361645f,2*%
%TF.SameCoordinates,Original*%
%TF.FileFunction,Copper,L2,Bot*%
%TF.FilePolarity,Positive*%
%FSLAX46Y46*%
G04 Gerber Fmt 4.6, Leading zero omitted, Abs format (unit mm)*
G04 Created by KiCad (PCBNEW 6.0.0) date 2022-08-14 07:42:52*
%MOMM*%
%LPD*%
G01*
G04 APERTURE LIST*
%TA.AperFunction,ComponentPad*%
%ADD10R,2.000000X1.900000*%
%TD*%
%TA.AperFunction,ComponentPad*%
%ADD11C,1.900000*%
%TD*%
%TA.AperFunction,ViaPad*%
%ADD12C,0.711200*%
%TD*%
%TA.AperFunction,Conductor*%
%ADD13C,0.406400*%
%TD*%
%TA.AperFunction,Conductor*%
%ADD14C,0.304800*%
%TD*%
G04 APERTURE END LIST*
D10*
%TO.P,P1,1,IO1*%
%TO.N,unconnected-(P1-Pad1)*%
X136040000Y-98650000D03*
D11*
%TO.P,P1,2,IO2*%
%TO.N,PMOD_TXD*%
X136040000Y-101190000D03*
%TO.P,P1,3,IO3*%
%TO.N,PMOD_RXD*%
X136040000Y-103730000D03*
%TO.P,P1,4,IO4*%
%TO.N,unconnected-(P1-Pad4)*%
X136040000Y-106270000D03*
%TO.P,P1,5*%
%TO.N,GND*%
X136040000Y-108810000D03*
%TO.P,P1,6*%
%TO.N,+VPMOD*%
X136040000Y-111350000D03*
%TO.P,P1,7,IO5*%
%TO.N,IRQ*%
X133500000Y-98650000D03*
%TO.P,P1,8,IO6*%
%TO.N,RST*%
X133500000Y-101190000D03*
%TO.P,P1,9,IO7*%
%TO.N,SWDIO*%
X133500000Y-103730000D03*
%TO.P,P1,10,IO8*%
%TO.N,SWCLK*%
X133500000Y-106270000D03*
%TO.P,P1,11*%
%TO.N,GND*%
X133500000Y-108810000D03*
%TO.P,P1,12*%
%TO.N,+VPMOD*%
X133500000Y-111350000D03*
%TD*%
D12*
%TO.N,GND*%
X164000000Y-98750000D03*
X137500000Y-114600000D03*
X144000000Y-95400000D03*
X130500000Y-95400000D03*
X131050000Y-112750000D03*
X148500000Y-114600000D03*
X166500000Y-109800000D03*
X137750000Y-98650000D03*
X157500000Y-109800000D03*
X164000000Y-107500000D03*
X140500000Y-114600000D03*
X166500000Y-100200000D03*
X147750000Y-111760000D03*
X153000000Y-114600000D03*
X166500000Y-95400000D03*
X162000000Y-95400000D03*
X162000000Y-109800000D03*
X157500000Y-95400000D03*
X139500000Y-95400000D03*
X139750000Y-105000000D03*
X144000000Y-114600000D03*
X166500000Y-105000000D03*
X135000000Y-95400000D03*
X148500000Y-95400000D03*
X153000000Y-95400000D03*
X155500000Y-105000000D03*
%TO.N,IRQ*%
X130500000Y-98650000D03*
%TO.N,/SDA*%
X160000000Y-106500000D03*
%TO.N,/SCL*%
X160000000Y-103500000D03*
%TD*%
D13*
%TO.N,GND*%
X164000000Y-107500000D02*
X164000000Y-98750000D01*
X139750000Y-105000000D02*
X138530000Y-105000000D01*
X139750000Y-100650000D02*
X139750000Y-105000000D01*
X144000000Y-95400000D02*
X139500000Y-95400000D01*
X138530000Y-105000000D02*
X138050000Y-105480000D01*
X153000000Y-114600000D02*
X155500000Y-112100000D01*
X133500000Y-108810000D02*
X134770000Y-107540000D01*
X148500000Y-95400000D02*
X144000000Y-95400000D01*
X166500000Y-109800000D02*
X162000000Y-109800000D01*
X138060000Y-106580000D02*
X138060000Y-106790000D01*
X153000000Y-114600000D02*
X148500000Y-114600000D01*
X138060000Y-106790000D02*
X136040000Y-108810000D01*
X137750000Y-98650000D02*
X139750000Y-100650000D01*
X135000000Y-95400000D02*
X130500000Y-95400000D01*
X166500000Y-95400000D02*
X162000000Y-95400000D01*
X131050000Y-111260000D02*
X133500000Y-108810000D01*
X136040000Y-108810000D02*
X134770000Y-107540000D01*
X155500000Y-111800000D02*
X157500000Y-109800000D01*
X139500000Y-95400000D02*
X135000000Y-95400000D01*
X162000000Y-109800000D02*
X157500000Y-109800000D01*
X166500000Y-105000000D02*
X166500000Y-95400000D01*
X166500000Y-105000000D02*
X166500000Y-109800000D01*
X138050000Y-106570000D02*
X138060000Y-106580000D01*
X162000000Y-95400000D02*
X157500000Y-95400000D01*
X155500000Y-107500000D02*
X164000000Y-107500000D01*
X157500000Y-95400000D02*
X153000000Y-95400000D01*
X140500000Y-114600000D02*
X137500000Y-114600000D01*
X140500000Y-114600000D02*
X148500000Y-114600000D01*
X153000000Y-95400000D02*
X148500000Y-95400000D01*
X131050000Y-112750000D02*
X131050000Y-111260000D01*
X138050000Y-105480000D02*
X138050000Y-106570000D01*
X155500000Y-112100000D02*
X155500000Y-111800000D01*
X131050000Y-112750000D02*
X138650000Y-112750000D01*
X138650000Y-112750000D02*
X140500000Y-114600000D01*
X155500000Y-107500000D02*
X155500000Y-105000000D01*
D14*
%TO.N,IRQ*%
X130500000Y-98650000D02*
X133500000Y-98650000D01*
%TD*%
%TA.AperFunction,Conductor*%
%TO.N,GND*%
G36*
X167288921Y-95063202D02*
G01*
X167335414Y-95116858D01*
X167346800Y-95169200D01*
X167346800Y-114830800D01*
X167326798Y-114898921D01*
X167273142Y-114945414D01*
X167220800Y-114956800D01*
X129779200Y-114956800D01*
X129711079Y-114936798D01*
X129664586Y-114883142D01*
X129653200Y-114830800D01*
X129653200Y-111319670D01*
X132341754Y-111319670D01*
X132355622Y-111531252D01*
X132407815Y-111736763D01*
X132496586Y-111929321D01*
X132618961Y-112102478D01*
X132770842Y-112250435D01*
X132775638Y-112253640D01*
X132775641Y-112253642D01*
X132852307Y-112304868D01*
X132947143Y-112368235D01*
X132952446Y-112370513D01*
X132952449Y-112370515D01*
X133040799Y-112408473D01*
X133141960Y-112451935D01*
X133348767Y-112498731D01*
X133354538Y-112498958D01*
X133354540Y-112498958D01*
X133425521Y-112501747D01*
X133560639Y-112507055D01*
X133650995Y-112493954D01*
X133764759Y-112477460D01*
X133764764Y-112477459D01*
X133770480Y-112476630D01*
X133775952Y-112474772D01*
X133775954Y-112474772D01*
X133965795Y-112410329D01*
X133971263Y-112408473D01*
X134156263Y-112304868D01*
X134319284Y-112169284D01*
X134454868Y-112006263D01*
X134558473Y-111821263D01*
X134626630Y-111620480D01*
X134627459Y-111614762D01*
X134627460Y-111614758D01*
X134643888Y-111501453D01*
X134673458Y-111436907D01*
X134733229Y-111398595D01*
X134804226Y-111398679D01*
X134863907Y-111437134D01*
X134893323Y-111501750D01*
X134894314Y-111511291D01*
X134895622Y-111531252D01*
X134947815Y-111736763D01*
X135036586Y-111929321D01*
X135158961Y-112102478D01*
X135310842Y-112250435D01*
X135315638Y-112253640D01*
X135315641Y-112253642D01*
X135392307Y-112304868D01*
X135487143Y-112368235D01*
X135492446Y-112370513D01*
X135492449Y-112370515D01*
X135580799Y-112408473D01*
X135681960Y-112451935D01*
X135888767Y-112498731D01*
X135894538Y-112498958D01*
X135894540Y-112498958D01*
X135965521Y-112501747D01*
X136100639Y-112507055D01*
X136190995Y-112493954D01*
X136304759Y-112477460D01*
X136304764Y-112477459D01*
X136310480Y-112476630D01*
X136315952Y-112474772D01*
X136315954Y-112474772D01*
X136505795Y-112410329D01*
X136511263Y-112408473D01*
X136696263Y-112304868D01*
X136859284Y-112169284D01*
X136994868Y-112006263D01*
X137098473Y-111821263D01*
X137166630Y-111620480D01*
X137167459Y-111614764D01*
X137167460Y-111614759D01*
X137196522Y-111414313D01*
X137197055Y-111410639D01*
X137198643Y-111350000D01*
X137179241Y-111138854D01*
X137121686Y-110934779D01*
X137027906Y-110744611D01*
X136901040Y-110574717D01*
X136745337Y-110430787D01*
X136566013Y-110317642D01*
X136369072Y-110239070D01*
X136363414Y-110237944D01*
X136363412Y-110237944D01*
X136328426Y-110230985D01*
X136265517Y-110198077D01*
X136230386Y-110136381D01*
X136234187Y-110065487D01*
X136275713Y-110007901D01*
X136323596Y-109984887D01*
X136327747Y-109983890D01*
X136526341Y-109916477D01*
X136536844Y-109911801D01*
X136678568Y-109832433D01*
X136688431Y-109822356D01*
X136685476Y-109814686D01*
X136052812Y-109182022D01*
X136038868Y-109174408D01*
X136037035Y-109174539D01*
X136030420Y-109178790D01*
X135400045Y-109809165D01*
X135393849Y-109820512D01*
X135403729Y-109832999D01*
X135458239Y-109869421D01*
X135468344Y-109874908D01*
X135661049Y-109957700D01*
X135671981Y-109961252D01*
X135760732Y-109981334D01*
X135822759Y-110015876D01*
X135856264Y-110078470D01*
X135850610Y-110149241D01*
X135807592Y-110205720D01*
X135754263Y-110228407D01*
X135740121Y-110230837D01*
X135541191Y-110304226D01*
X135536230Y-110307178D01*
X135536229Y-110307178D01*
X135363935Y-110409682D01*
X135363932Y-110409684D01*
X135358967Y-110412638D01*
X135199550Y-110552443D01*
X135195975Y-110556978D01*
X135195974Y-110556979D01*
X135181991Y-110574717D01*
X135068280Y-110718958D01*
X135065589Y-110724074D01*
X135065587Y-110724076D01*
X135054783Y-110744611D01*
X134969553Y-110906607D01*
X134906676Y-111109105D01*
X134905997Y-111114842D01*
X134895489Y-111203623D01*
X134867618Y-111268920D01*
X134808870Y-111308784D01*
X134737896Y-111310558D01*
X134677229Y-111273679D01*
X134646131Y-111209855D01*
X134644891Y-111200342D01*
X134639770Y-111144611D01*
X134639241Y-111138854D01*
X134581686Y-110934779D01*
X134487906Y-110744611D01*
X134361040Y-110574717D01*
X134205337Y-110430787D01*
X134026013Y-110317642D01*
X133829072Y-110239070D01*
X133823414Y-110237944D01*
X133823412Y-110237944D01*
X133788426Y-110230985D01*
X133725517Y-110198077D01*
X133690386Y-110136381D01*
X133694187Y-110065487D01*
X133735713Y-110007901D01*
X133783596Y-109984887D01*
X133787747Y-109983890D01*
X133986341Y-109916477D01*
X133996844Y-109911801D01*
X134138568Y-109832433D01*
X134148431Y-109822356D01*
X134145476Y-109814686D01*
X133512812Y-109182022D01*
X133498868Y-109174408D01*
X133497035Y-109174539D01*
X133490420Y-109178790D01*
X132860045Y-109809165D01*
X132853849Y-109820512D01*
X132863729Y-109832999D01*
X132918239Y-109869421D01*
X132928344Y-109874908D01*
X133121049Y-109957700D01*
X133131981Y-109961252D01*
X133220732Y-109981334D01*
X133282759Y-110015876D01*
X133316264Y-110078470D01*
X133310610Y-110149241D01*
X133267592Y-110205720D01*
X133214263Y-110228407D01*
X133200121Y-110230837D01*
X133001191Y-110304226D01*
X132996230Y-110307178D01*
X132996229Y-110307178D01*
X132823935Y-110409682D01*
X132823932Y-110409684D01*
X132818967Y-110412638D01*
X132659550Y-110552443D01*
X132655975Y-110556978D01*
X132655974Y-110556979D01*
X132641991Y-110574717D01*
X132528280Y-110718958D01*
X132525589Y-110724074D01*
X132525587Y-110724076D01*
X132514783Y-110744611D01*
X132429553Y-110906607D01*
X132366676Y-111109105D01*
X132341754Y-111319670D01*
X129653200Y-111319670D01*
X129653200Y-108784114D01*
X132291634Y-108784114D01*
X132305351Y-108993386D01*
X132307152Y-109004756D01*
X132358775Y-109208025D01*
X132362616Y-109218872D01*
X132450418Y-109409331D01*
X132456172Y-109419297D01*
X132476906Y-109448634D01*
X132487495Y-109457022D01*
X132500796Y-109449994D01*
X133127978Y-108822812D01*
X133134356Y-108811132D01*
X133864408Y-108811132D01*
X133864539Y-108812965D01*
X133868790Y-108819580D01*
X134500770Y-109451560D01*
X134513150Y-109458320D01*
X134519730Y-109453394D01*
X134601801Y-109306844D01*
X134606477Y-109296341D01*
X134649780Y-109168775D01*
X134690617Y-109110698D01*
X134756370Y-109083920D01*
X134826162Y-109096941D01*
X134877835Y-109145628D01*
X134891216Y-109178262D01*
X134898774Y-109208023D01*
X134902616Y-109218872D01*
X134990418Y-109409331D01*
X134996172Y-109419297D01*
X135016906Y-109448634D01*
X135027495Y-109457022D01*
X135040796Y-109449994D01*
X135667978Y-108822812D01*
X135674356Y-108811132D01*
X136404408Y-108811132D01*
X136404539Y-108812965D01*
X136408790Y-108819580D01*
X137040770Y-109451560D01*
X137053150Y-109458320D01*
X137059730Y-109453394D01*
X137141801Y-109306844D01*
X137146477Y-109296341D01*
X137213893Y-109097741D01*
X137216578Y-109086558D01*
X137246968Y-108876956D01*
X137247598Y-108869573D01*
X137249061Y-108813704D01*
X137248818Y-108806305D01*
X137229440Y-108595402D01*
X137227343Y-108584088D01*
X137170414Y-108382236D01*
X137166292Y-108371497D01*
X137073534Y-108183403D01*
X137067517Y-108173583D01*
X137064723Y-108169842D01*
X137053464Y-108161392D01*
X137041046Y-108168164D01*
X136412022Y-108797188D01*
X136404408Y-108811132D01*
X135674356Y-108811132D01*
X135675592Y-108808868D01*
X135675461Y-108807035D01*
X135671210Y-108800420D01*
X135037458Y-108166668D01*
X135025078Y-108159908D01*
X135019112Y-108164374D01*
X134925573Y-108342163D01*
X134921174Y-108352786D01*
X134890594Y-108451269D01*
X134851291Y-108510394D01*
X134786261Y-108538885D01*
X134716152Y-108527695D01*
X134663222Y-108480378D01*
X134648992Y-108448108D01*
X134630413Y-108382233D01*
X134626292Y-108371497D01*
X134533534Y-108183403D01*
X134527517Y-108173583D01*
X134524723Y-108169842D01*
X134513464Y-108161392D01*
X134501046Y-108168164D01*
X133872022Y-108797188D01*
X133864408Y-108811132D01*
X133134356Y-108811132D01*
X133135592Y-108808868D01*
X133135461Y-108807035D01*
X133131210Y-108800420D01*
X132497458Y-108166668D01*
X132485078Y-108159908D01*
X132479112Y-108164374D01*
X132385573Y-108342163D01*
X132381170Y-108352796D01*
X132318977Y-108553087D01*
X132316587Y-108564331D01*
X132291935Y-108772613D01*
X132291634Y-108784114D01*
X129653200Y-108784114D01*
X129653200Y-98650000D01*
X129935874Y-98650000D01*
X129955096Y-98796007D01*
X130011453Y-98932063D01*
X130101103Y-99048897D01*
X130217937Y-99138547D01*
X130353993Y-99194904D01*
X130362177Y-99195981D01*
X130362179Y-99195982D01*
X130491812Y-99213048D01*
X130500000Y-99214126D01*
X130508188Y-99213048D01*
X130637821Y-99195982D01*
X130637823Y-99195981D01*
X130646007Y-99194904D01*
X130782063Y-99138547D01*
X130898897Y-99048897D01*
X130903530Y-99042859D01*
X130965581Y-99008979D01*
X130992361Y-99006100D01*
X132313022Y-99006100D01*
X132381143Y-99026102D01*
X132427447Y-99079348D01*
X132496586Y-99229321D01*
X132618961Y-99402478D01*
X132770842Y-99550435D01*
X132775638Y-99553640D01*
X132775641Y-99553642D01*
X132914574Y-99646473D01*
X132947143Y-99668235D01*
X132952446Y-99670513D01*
X132952449Y-99670515D01*
X133136653Y-99749655D01*
X133141960Y-99751935D01*
X133288028Y-99784987D01*
X133348767Y-99798731D01*
X133348276Y-99800900D01*
X133404296Y-99825667D01*
X133443402Y-99884923D01*
X133444263Y-99955914D01*
X133406606Y-100016102D01*
X133344283Y-100046065D01*
X133205818Y-100069858D01*
X133200121Y-100070837D01*
X133001191Y-100144226D01*
X132996230Y-100147178D01*
X132996229Y-100147178D01*
X132823935Y-100249682D01*
X132823932Y-100249684D01*
X132818967Y-100252638D01*
X132659550Y-100392443D01*
X132655975Y-100396978D01*
X132655974Y-100396979D01*
X132641991Y-100414717D01*
X132528280Y-100558958D01*
X132525589Y-100564074D01*
X132525587Y-100564076D01*
X132514783Y-100584611D01*
X132429553Y-100746607D01*
X132366676Y-100949105D01*
X132341754Y-101159670D01*
X132355622Y-101371252D01*
X132407815Y-101576763D01*
X132496586Y-101769321D01*
X132618961Y-101942478D01*
X132770842Y-102090435D01*
X132775638Y-102093640D01*
X132775641Y-102093642D01*
X132852307Y-102144868D01*
X132947143Y-102208235D01*
X132952446Y-102210513D01*
X132952449Y-102210515D01*
X133040799Y-102248473D01*
X133141960Y-102291935D01*
X133327890Y-102334007D01*
X133348767Y-102338731D01*
X133348276Y-102340900D01*
X133404296Y-102365667D01*
X133443402Y-102424923D01*
X133444263Y-102495914D01*
X133406606Y-102556102D01*
X133344283Y-102586065D01*
X133205818Y-102609858D01*
X133200121Y-102610837D01*
X133001191Y-102684226D01*
X132996230Y-102687178D01*
X132996229Y-102687178D01*
X132823935Y-102789682D01*
X132823932Y-102789684D01*
X132818967Y-102792638D01*
X132659550Y-102932443D01*
X132655975Y-102936978D01*
X132655974Y-102936979D01*
X132641991Y-102954717D01*
X132528280Y-103098958D01*
X132525589Y-103104074D01*
X132525587Y-103104076D01*
X132514783Y-103124611D01*
X132429553Y-103286607D01*
X132366676Y-103489105D01*
X132341754Y-103699670D01*
X132355622Y-103911252D01*
X132407815Y-104116763D01*
X132496586Y-104309321D01*
X132618961Y-104482478D01*
X132770842Y-104630435D01*
X132775638Y-104633640D01*
X132775641Y-104633642D01*
X132852307Y-104684868D01*
X132947143Y-104748235D01*
X132952446Y-104750513D01*
X132952449Y-104750515D01*
X133040799Y-104788473D01*
X133141960Y-104831935D01*
X133327890Y-104874007D01*
X133348767Y-104878731D01*
X133348276Y-104880900D01*
X133404296Y-104905667D01*
X133443402Y-104964923D01*
X133444263Y-105035914D01*
X133406606Y-105096102D01*
X133344283Y-105126065D01*
X133205818Y-105149858D01*
X133200121Y-105150837D01*
X133001191Y-105224226D01*
X132996230Y-105227178D01*
X132996229Y-105227178D01*
X132823935Y-105329682D01*
X132823932Y-105329684D01*
X132818967Y-105332638D01*
X132659550Y-105472443D01*
X132655975Y-105476978D01*
X132655974Y-105476979D01*
X132641991Y-105494717D01*
X132528280Y-105638958D01*
X132525589Y-105644074D01*
X132525587Y-105644076D01*
X132514783Y-105664611D01*
X132429553Y-105826607D01*
X132366676Y-106029105D01*
X132341754Y-106239670D01*
X132355622Y-106451252D01*
X132407815Y-106656763D01*
X132496586Y-106849321D01*
X132618961Y-107022478D01*
X132770842Y-107170435D01*
X132775638Y-107173640D01*
X132775641Y-107173642D01*
X132852307Y-107224868D01*
X132947143Y-107288235D01*
X132952446Y-107290513D01*
X132952449Y-107290515D01*
X133040799Y-107328473D01*
X133141960Y-107371935D01*
X133222074Y-107390063D01*
X133284101Y-107424606D01*
X133317605Y-107487199D01*
X133311951Y-107557970D01*
X133268932Y-107614450D01*
X133215604Y-107637136D01*
X133192744Y-107641064D01*
X133181624Y-107644044D01*
X132984860Y-107716634D01*
X132974482Y-107721584D01*
X132862343Y-107788300D01*
X132852745Y-107798633D01*
X132856231Y-107807021D01*
X133487188Y-108437978D01*
X133501132Y-108445592D01*
X133502965Y-108445461D01*
X133509580Y-108441210D01*
X134139885Y-107810905D01*
X134146645Y-107798525D01*
X134140615Y-107790470D01*
X134053830Y-107735713D01*
X134043582Y-107730492D01*
X133848783Y-107652775D01*
X133837756Y-107649509D01*
X133786825Y-107639378D01*
X133723915Y-107606471D01*
X133688783Y-107544776D01*
X133692583Y-107473881D01*
X133734108Y-107416295D01*
X133770904Y-107396486D01*
X133971263Y-107328473D01*
X134156263Y-107224868D01*
X134319284Y-107089284D01*
X134454868Y-106926263D01*
X134558473Y-106741263D01*
X134626630Y-106540480D01*
X134627459Y-106534762D01*
X134627460Y-106534758D01*
X134643888Y-106421453D01*
X134673458Y-106356907D01*
X134733229Y-106318595D01*
X134804226Y-106318679D01*
X134863907Y-106357134D01*
X134893323Y-106421750D01*
X134894314Y-106431291D01*
X134895622Y-106451252D01*
X134947815Y-106656763D01*
X135036586Y-106849321D01*
X135158961Y-107022478D01*
X135310842Y-107170435D01*
X135315638Y-107173640D01*
X135315641Y-107173642D01*
X135392307Y-107224868D01*
X135487143Y-107288235D01*
X135492446Y-107290513D01*
X135492449Y-107290515D01*
X135580799Y-107328473D01*
X135681960Y-107371935D01*
X135762074Y-107390063D01*
X135824101Y-107424606D01*
X135857605Y-107487199D01*
X135851951Y-107557970D01*
X135808932Y-107614450D01*
X135755604Y-107637136D01*
X135732744Y-107641064D01*
X135721624Y-107644044D01*
X135524860Y-107716634D01*
X135514482Y-107721584D01*
X135402343Y-107788300D01*
X135392745Y-107798633D01*
X135396231Y-107807021D01*
X136027188Y-108437978D01*
X136041132Y-108445592D01*
X136042965Y-108445461D01*
X136049580Y-108441210D01*
X136679885Y-107810905D01*
X136686645Y-107798525D01*
X136680615Y-107790470D01*
X136593830Y-107735713D01*
X136583582Y-107730492D01*
X136388783Y-107652775D01*
X136377756Y-107649509D01*
X136326825Y-107639378D01*
X136263915Y-107606471D01*
X136228783Y-107544776D01*
X136232583Y-107473881D01*
X136274108Y-107416295D01*
X136310904Y-107396486D01*
X136511263Y-107328473D01*
X136696263Y-107224868D01*
X136859284Y-107089284D01*
X136994868Y-106926263D01*
X137098473Y-106741263D01*
X137166630Y-106540480D01*
X137167459Y-106534764D01*
X137167460Y-106534759D01*
X137172500Y-106500000D01*
X159435874Y-106500000D01*
X159455096Y-106646007D01*
X159511453Y-106782063D01*
X159601103Y-106898897D01*
X159717937Y-106988547D01*
X159853993Y-107044904D01*
X159862177Y-107045981D01*
X159862179Y-107045982D01*
X159991812Y-107063048D01*
X160000000Y-107064126D01*
X160008188Y-107063048D01*
X160137821Y-107045982D01*
X160137823Y-107045981D01*
X160146007Y-107044904D01*
X160282063Y-106988547D01*
X160398897Y-106898897D01*
X160488547Y-106782063D01*
X160544904Y-106646007D01*
X160564126Y-106500000D01*
X160544904Y-106353993D01*
X160488547Y-106217937D01*
X160398897Y-106101103D01*
X160282063Y-106011453D01*
X160146007Y-105955096D01*
X160137823Y-105954019D01*
X160137821Y-105954018D01*
X160008188Y-105936952D01*
X160000000Y-105935874D01*
X159991812Y-105936952D01*
X159862179Y-105954018D01*
X159862177Y-105954019D01*
X159853993Y-105955096D01*
X159717937Y-106011453D01*
X159601103Y-106101103D01*
X159511453Y-106217937D01*
X159455096Y-106353993D01*
X159435874Y-106500000D01*
X137172500Y-106500000D01*
X137193669Y-106353993D01*
X137197055Y-106330639D01*
X137198643Y-106270000D01*
X137179241Y-106058854D01*
X137121686Y-105854779D01*
X137027906Y-105664611D01*
X136901040Y-105494717D01*
X136745337Y-105350787D01*
X136566013Y-105237642D01*
X136369072Y-105159070D01*
X136203145Y-105126065D01*
X136184127Y-105122282D01*
X136121218Y-105089374D01*
X136086086Y-105027679D01*
X136089886Y-104956784D01*
X136131412Y-104899198D01*
X136190630Y-104874007D01*
X136235084Y-104867562D01*
X136304757Y-104857460D01*
X136304759Y-104857459D01*
X136310480Y-104856630D01*
X136315952Y-104854772D01*
X136315954Y-104854772D01*
X136505795Y-104790329D01*
X136511263Y-104788473D01*
X136696263Y-104684868D01*
X136859284Y-104549284D01*
X136994868Y-104386263D01*
X137098473Y-104201263D01*
X137166630Y-104000480D01*
X137167459Y-103994764D01*
X137167460Y-103994759D01*
X137196522Y-103794313D01*
X137197055Y-103790639D01*
X137198643Y-103730000D01*
X137179241Y-103518854D01*
X137173924Y-103500000D01*
X159435874Y-103500000D01*
X159436952Y-103508188D01*
X159447704Y-103589855D01*
X159455096Y-103646007D01*
X159511453Y-103782063D01*
X159601103Y-103898897D01*
X159717937Y-103988547D01*
X159853993Y-104044904D01*
X159862177Y-104045981D01*
X159862179Y-104045982D01*
X159991812Y-104063048D01*
X160000000Y-104064126D01*
X160008188Y-104063048D01*
X160137821Y-104045982D01*
X160137823Y-104045981D01*
X160146007Y-104044904D01*
X160282063Y-103988547D01*
X160398897Y-103898897D01*
X160488547Y-103782063D01*
X160544904Y-103646007D01*
X160552297Y-103589855D01*
X160563048Y-103508188D01*
X160564126Y-103500000D01*
X160544904Y-103353993D01*
X160488547Y-103217937D01*
X160398897Y-103101103D01*
X160282063Y-103011453D01*
X160146007Y-102955096D01*
X160137823Y-102954019D01*
X160137821Y-102954018D01*
X160008188Y-102936952D01*
X160000000Y-102935874D01*
X159991812Y-102936952D01*
X159862179Y-102954018D01*
X159862177Y-102954019D01*
X159853993Y-102955096D01*
X159717937Y-103011453D01*
X159601103Y-103101103D01*
X159511453Y-103217937D01*
X159455096Y-103353993D01*
X159435874Y-103500000D01*
X137173924Y-103500000D01*
X137171615Y-103491812D01*
X137123255Y-103320343D01*
X137121686Y-103314779D01*
X137027906Y-103124611D01*
X136901040Y-102954717D01*
X136745337Y-102810787D01*
X136566013Y-102697642D01*
X136369072Y-102619070D01*
X136203145Y-102586065D01*
X136184127Y-102582282D01*
X136121218Y-102549374D01*
X136086086Y-102487679D01*
X136089886Y-102416784D01*
X136131412Y-102359198D01*
X136190630Y-102334007D01*
X136235084Y-102327562D01*
X136304757Y-102317460D01*
X136304759Y-102317459D01*
X136310480Y-102316630D01*
X136315952Y-102314772D01*
X136315954Y-102314772D01*
X136505795Y-102250329D01*
X136511263Y-102248473D01*
X136696263Y-102144868D01*
X136859284Y-102009284D01*
X136994868Y-101846263D01*
X137098473Y-101661263D01*
X137166630Y-101460480D01*
X137167459Y-101454764D01*
X137167460Y-101454759D01*
X137196522Y-101254313D01*
X137197055Y-101250639D01*
X137198643Y-101190000D01*
X137179241Y-100978854D01*
X137121686Y-100774779D01*
X137027906Y-100584611D01*
X136901040Y-100414717D01*
X136745337Y-100270787D01*
X136566013Y-100157642D01*
X136369072Y-100079070D01*
X136363412Y-100077944D01*
X136363408Y-100077943D01*
X136239412Y-100053279D01*
X136176502Y-100020372D01*
X136141370Y-99958677D01*
X136145170Y-99887782D01*
X136186696Y-99830196D01*
X136252762Y-99804201D01*
X136263993Y-99803700D01*
X137060064Y-99803700D01*
X137119480Y-99791881D01*
X137186860Y-99746860D01*
X137231881Y-99679480D01*
X137243700Y-99620064D01*
X137243700Y-97679936D01*
X137231881Y-97620520D01*
X137186860Y-97553140D01*
X137119480Y-97508119D01*
X137060064Y-97496300D01*
X135019936Y-97496300D01*
X134960520Y-97508119D01*
X134893140Y-97553140D01*
X134848119Y-97620520D01*
X134836300Y-97679936D01*
X134836300Y-98226621D01*
X134816298Y-98294742D01*
X134762642Y-98341235D01*
X134692368Y-98351339D01*
X134627788Y-98321845D01*
X134589031Y-98260823D01*
X134584872Y-98246077D01*
X134581686Y-98234779D01*
X134487906Y-98044611D01*
X134361040Y-97874717D01*
X134205337Y-97730787D01*
X134026013Y-97617642D01*
X133829072Y-97539070D01*
X133823412Y-97537944D01*
X133823408Y-97537943D01*
X133626778Y-97498831D01*
X133626775Y-97498831D01*
X133621111Y-97497704D01*
X133615336Y-97497628D01*
X133615332Y-97497628D01*
X133509342Y-97496241D01*
X133409094Y-97494929D01*
X133403397Y-97495908D01*
X133403396Y-97495908D01*
X133205818Y-97529858D01*
X133200121Y-97530837D01*
X133001191Y-97604226D01*
X132996230Y-97607178D01*
X132996229Y-97607178D01*
X132823935Y-97709682D01*
X132823932Y-97709684D01*
X132818967Y-97712638D01*
X132659550Y-97852443D01*
X132655975Y-97856978D01*
X132655974Y-97856979D01*
X132641991Y-97874717D01*
X132528280Y-98018958D01*
X132525589Y-98024074D01*
X132525587Y-98024076D01*
X132454971Y-98158295D01*
X132429553Y-98206607D01*
X132427841Y-98212120D01*
X132426182Y-98216125D01*
X132381631Y-98271403D01*
X132309776Y-98293900D01*
X130992361Y-98293900D01*
X130924240Y-98273898D01*
X130903667Y-98257320D01*
X130898897Y-98251103D01*
X130782063Y-98161453D01*
X130646007Y-98105096D01*
X130637823Y-98104019D01*
X130637821Y-98104018D01*
X130508188Y-98086952D01*
X130500000Y-98085874D01*
X130491812Y-98086952D01*
X130362179Y-98104018D01*
X130362177Y-98104019D01*
X130353993Y-98105096D01*
X130217937Y-98161453D01*
X130101103Y-98251103D01*
X130011453Y-98367937D01*
X129955096Y-98503993D01*
X129935874Y-98650000D01*
X129653200Y-98650000D01*
X129653200Y-95169200D01*
X129673202Y-95101079D01*
X129726858Y-95054586D01*
X129779200Y-95043200D01*
X167220800Y-95043200D01*
X167288921Y-95063202D01*
G37*
%TD.AperFunction*%
%TD*%
M02*
